<?xml version="1.0" encoding="UTF-8"?>
<svg width="16px" height="16px" viewBox="0 0 16 16" version="1.1" xmlns="http://www.w3.org/2000/svg" xmlns:xlink="http://www.w3.org/1999/xlink">
    <!-- Generator: Sketch 48.2 (47327) - http://www.bohemiancoding.com/sketch -->
    <title>alarm-clock-solid</title>
    <desc>Created with Sketch.</desc>
    <defs></defs>
    <g id="16px-solid" stroke="none" stroke-width="1" fill="none" fill-rule="evenodd" transform="translate(-48.000000, -96.000000)">
        <g id="alarm-clock-solid" transform="translate(48.000000, 96.000000)" fill="#000000">
            <path d="M7.9999,0.9998 C11.8659,0.9998 14.9999,4.1338 14.9999,7.9998 C14.9999,10.2628 13.9219,12.2698 12.2559,13.5488 L13.8539,15.1458 C14.0489,15.3418 14.0489,15.6588 13.8539,15.8538 C13.6579,16.0488 13.3419,16.0488 13.1459,15.8538 L11.4059,14.1128 C10.3969,14.6758 9.2369,14.9998 7.9999,14.9998 C6.7629,14.9998 5.6029,14.6758 4.5939,14.1128 L2.8539,15.8538 C2.6579,16.0488 2.3419,16.0488 2.1459,15.8538 C1.9509,15.6588 1.9509,15.3418 2.1459,15.1458 L3.7439,13.5488 C2.0789,12.2698 0.9999,10.2628 0.9999,7.9998 C0.9999,4.1338 4.1339,0.9998 7.9999,0.9998 Z M7.9999,8.9998 L7.9999,4.4998 C7.9999,4.2238 7.7759,3.9998 7.4999,3.9998 C7.2239,3.9998 6.9999,4.2238 6.9999,4.4998 L6.9999,9.4998 C6.9999,9.7758 7.2239,9.9998 7.4999,9.9998 L10.4999,9.9998 C10.7759,9.9998 10.9999,9.7758 10.9999,9.4998 C10.9999,9.2238 10.7759,8.9998 10.4999,8.9998 L7.9999,8.9998 Z M11.6269,0.8438 C12.0989,0.3118 12.7749,-0.0002 13.4999,-0.0002 C14.8809,-0.0002 15.9999,1.1198 15.9999,2.4998 C15.9999,3.2278 15.6869,3.9048 15.1519,4.3758 L14.4909,3.6258 C14.8129,3.3428 14.9999,2.9368 14.9999,2.4998 C14.9999,1.6718 14.3289,0.9998 13.4999,0.9998 C13.0639,0.9998 12.6599,1.1868 12.3759,1.5068 L11.6269,0.8438 Z M2.4999,0.9998 C1.6719,0.9998 0.9999,1.6718 0.9999,2.4998 C0.9999,2.9378 1.1879,3.3448 1.5119,3.6278 L0.8529,4.3798 C0.3149,3.9088 -0.0001,3.2288 -0.0001,2.4998 C-0.0001,1.1198 1.1199,-0.0002 2.4999,-0.0002 C3.2289,-0.0002 3.9039,0.3148 4.3759,0.8538 L3.6239,1.5128 C3.3389,1.1878 2.9369,0.9998 2.4999,0.9998 Z" id="shape"></path>
        </g>
    </g>
</svg>