<?xml version="1.0" encoding="UTF-8"?>
<svg width="16px" height="16px" viewBox="0 0 16 16" version="1.1" xmlns="http://www.w3.org/2000/svg" xmlns:xlink="http://www.w3.org/1999/xlink">
    <!-- Generator: Sketch 48.2 (47327) - http://www.bohemiancoding.com/sketch -->
    <title>analytic-graph-solid</title>
    <desc>Created with Sketch.</desc>
    <defs></defs>
    <g id="16px-solid" stroke="none" stroke-width="1" fill="none" fill-rule="evenodd" transform="translate(-336.000000, -48.000000)">
        <g id="analytic-graph-solid" transform="translate(336.000000, 48.000000)" fill="#000000">
            <path d="M13.9001,6.2001 C13.7341,5.9791 13.4211,5.9341 13.2001,6.1001 L9.5471,8.8401 L5.8531,5.1461 C5.6851,4.9781 5.4211,4.9521 5.2221,5.0841 L2.2221,7.0841 C1.9931,7.2371 1.9311,7.5481 2.0841,7.7771 C2.2371,8.0071 2.5471,8.0691 2.7771,7.9161 L5.4361,6.1431 L9.1461,9.8531 C9.3221,10.0301 9.6011,10.0491 9.8001,9.9001 L13.8001,6.9001 C14.0211,6.7341 14.0661,6.4211 13.9001,6.2001 M15.9998,9.4999 L15.9998,1.4999 C15.9998,1.2239 15.7758,0.9999 15.4998,0.9999 L0.4998,0.9999 C0.2238,0.9999 -0.0002,1.2239 -0.0002,1.4999 L-0.0002,9.4999 C-0.0002,11.4329 1.5668,12.9999 3.4998,12.9999 L4.8068,12.9999 L4.0258,15.3419 C3.9378,15.6039 4.0798,15.8869 4.3418,15.9749 C4.6038,16.0619 4.8868,15.9199 4.9748,15.6579 L5.8598,12.9999 L10.1398,12.9999 L11.0258,15.6579 C11.1128,15.9199 11.3958,16.0619 11.6578,15.9749 C11.9198,15.8869 12.0618,15.6039 11.9748,15.3419 L11.1938,12.9999 L12.4998,12.9999 C14.4328,12.9999 15.9998,11.4329 15.9998,9.4999" id="shape"></path>
        </g>
    </g>
</svg>