<svg xmlns="http://www.w3.org/2000/svg" width="64" height="64" viewBox="0 0 64 64"><path d="M64 36v-.5c0-.2-.1-.4-.1-.6 0-.1 0-.1-.1-.2l-.3-.6s0-.1-.1-.1c-.1-.2-.3-.4-.4-.6 0 0 0-.1-.1-.1-.2-.2-.3-.4-.5-.5l-.1-.1c-.2-.2-.4-.3-.7-.4h-.1c-.3-.2-.9-.3-1.5-.3h-8c-2.2 0-4 1.8-4 4s1.8 4 4 4h2.8c-2.9 8.1-10 14.2-18.8 15.7V23.3c4.7-1.6 8-6.1 8-11.3 0-6.6-5.4-12-12-12S20 5.4 20 12c0 5.2 3.3 9.7 8 11.3v32.4C19.2 54.2 12.1 48.1 9.2 40H12c2.2 0 4-1.8 4-4s-1.8-4-4-4H4c-.6 0-1.2.1-1.7.4h-.1c-.2.1-.5.2-.7.4l-.1.1c-.1.1-.2.3-.4.5 0 0 0 .1-.1.1-.2.2-.3.4-.4.6 0 0 0 .1-.1.1l-.3.6c0 .1 0 .1-.1.2-.1.2-.1.4-.1.6v1.1C2.3 52.1 15.8 64 32 64s29.7-11.9 32-27.4V36zM32 8c2.2 0 4 1.8 4 4s-1.8 4-4 4-4-1.8-4-4 1.8-4 4-4z" fill-rule="evenodd" clip-rule="evenodd"/></svg>