<?xml version="1.0" encoding="UTF-8"?>
<svg width="16px" height="16px" viewBox="0 0 16 16" version="1.1" xmlns="http://www.w3.org/2000/svg" xmlns:xlink="http://www.w3.org/1999/xlink">
    <!-- Generator: Sketch 48.2 (47327) - http://www.bohemiancoding.com/sketch -->
    <title>angle-fillet-down-solid</title>
    <desc>Created with Sketch.</desc>
    <defs></defs>
    <g id="16px-solid" stroke="none" stroke-width="1" fill="none" fill-rule="evenodd" transform="translate(-480.000000, -544.000000)">
        <g id="angle-fillet-down-solid" transform="translate(480.000000, 544.000000)" fill="#000000" fill-rule="nonzero">
            <path d="M1.10247022,6.87369197 C0.378734548,6.10170726 0.398197413,4.89469581 1.14644661,4.14644661 C1.17513538,4.1181704 1.17513538,4.1181704 1.20463107,4.09073694 C1.95945495,3.39881505 3.13227412,3.44980719 3.824196,4.20463107 L7.63142293,8.35796953 C7.64121142,8.36864788 7.65145934,8.3788958 7.66213769,8.38868429 C7.86569718,8.57528049 8.18198087,8.56152903 8.36857707,8.35796953 L12.175804,4.20463107 C12.2032375,4.17513538 12.2032375,4.17513538 12.2315137,4.14644661 C12.9555699,3.42239033 14.1294971,3.42239033 14.8535534,4.14644661 C15.6018026,4.89469581 15.6212655,6.10170726 14.8975298,6.87369197 L9.09430581,13.0637975 C9.06084398,13.0987298 9.06084398,13.0987298 9.02591169,13.1321917 C8.42154328,13.698787 7.47228958,13.668166 6.90569419,13.0637975 L1.10247022,6.87369197 Z" id="shape"></path>
        </g>
    </g>
</svg>