<?xml version="1.0" encoding="UTF-8"?>
<svg width="16px" height="16px" viewBox="0 0 16 16" version="1.1" xmlns="http://www.w3.org/2000/svg" xmlns:xlink="http://www.w3.org/1999/xlink">
    <!-- Generator: Sketch 48.2 (47327) - http://www.bohemiancoding.com/sketch -->
    <title>angle-double-circle-down-solid</title>
    <desc>Created with Sketch.</desc>
    <defs></defs>
    <g id="16px-solid" stroke="none" stroke-width="1" fill="none" fill-rule="evenodd" transform="translate(-288.000000, -544.000000)">
        <g id="angle-double-circle-down-solid" transform="translate(288.000000, 544.000000)" fill="#000000" fill-rule="nonzero">
            <path d="M8,16 C3.581722,16 4.4408921e-16,12.418278 4.4408921e-16,8 C4.4408921e-16,3.581722 3.581722,0 8,0 C12.418278,0 16,3.581722 16,8 C16,12.418278 12.418278,16 8,16 Z M11.1746043,8.1203717 L8,10.8414611 L4.82539569,8.1203717 C4.61573277,7.94066062 4.30008277,7.96494139 4.1203717,8.17460431 C3.94066062,8.38426723 3.96494139,8.69991723 4.17460431,8.8796283 L7.67460431,11.8796283 C7.86184918,12.0401239 8.13815082,12.0401239 8.32539569,11.8796283 L11.8253957,8.8796283 C12.0350586,8.69991723 12.0593394,8.38426723 11.8796283,8.17460431 C11.6999172,7.96494139 11.3842672,7.94066062 11.1746043,8.1203717 Z M11.1746043,5.1203717 L8,7.84146111 L4.82539569,5.1203717 C4.61573277,4.94066062 4.30008277,4.96494139 4.1203717,5.17460431 C3.94066062,5.38426723 3.96494139,5.69991723 4.17460431,5.8796283 L7.67460431,8.8796283 C7.86184918,9.0401239 8.13815082,9.0401239 8.32539569,8.8796283 L11.8253957,5.8796283 C12.0350586,5.69991723 12.0593394,5.38426723 11.8796283,5.17460431 C11.6999172,4.96494139 11.3842672,4.94066062 11.1746043,5.1203717 Z" id="shape"></path>
        </g>
    </g>
</svg>