<?xml version="1.0" encoding="UTF-8"?>
<svg width="16px" height="16px" viewBox="0 0 16 16" version="1.1" xmlns="http://www.w3.org/2000/svg" xmlns:xlink="http://www.w3.org/1999/xlink">
    <!-- Generator: Sketch 48.2 (47327) - http://www.bohemiancoding.com/sketch -->
    <title>angle-circle-left-solid</title>
    <desc>Created with Sketch.</desc>
    <defs></defs>
    <g id="16px-solid" stroke="none" stroke-width="1" fill="none" fill-rule="evenodd" transform="translate(-144.000000, -640.000000)">
        <g id="angle-circle-left-solid" transform="translate(144.000000, 640.000000)" fill="#000000" fill-rule="nonzero">
            <path d="M8,16 C3.581722,16 0,12.418278 0,8 C0,3.581722 3.581722,0 8,0 C12.418278,0 16,3.581722 16,8 C16,12.418278 12.418278,16 8,16 Z M9.85355339,11.1464466 L6.70710678,8 L9.85355339,4.85355339 C10.0488155,4.65829124 10.0488155,4.34170876 9.85355339,4.14644661 C9.65829124,3.95118446 9.34170876,3.95118446 9.14644661,4.14644661 L5.64644661,7.64644661 C5.45118446,7.84170876 5.45118446,8.15829124 5.64644661,8.35355339 L9.14644661,11.8535534 C9.34170876,12.0488155 9.65829124,12.0488155 9.85355339,11.8535534 C10.0488155,11.6582912 10.0488155,11.3417088 9.85355339,11.1464466 Z" id="shape"></path>
        </g>
    </g>
</svg>