<svg xmlns="http://www.w3.org/2000/svg" width="16" height="16" viewBox="0 0 16 16">
  <path d="M6.75005885,8.00005885 L4.20005885,4.60005885 C3.868688,4.15823105 3.95823105,3.5314297 4.40005885,3.20005885 C4.84188665,2.868688 5.468688,2.95823105 5.80005885,3.40005885 L8.80005885,7.40005885 C9.06672552,7.75561441 9.06672552,8.2445033 8.80005885,8.60005885 L5.80005885,12.6000589 C5.468688,13.0418867 4.84188665,13.1314297 4.40005885,12.8000589 C3.95823105,12.468688 3.868688,11.8418867 4.20005885,11.4000589 L6.75005885,8.00005885 Z M10.7500589,8.00005885 L8.20005885,4.60005885 C7.868688,4.15823105 7.95823105,3.5314297 8.40005885,3.20005885 C8.84188665,2.868688 9.468688,2.95823105 9.80005885,3.40005885 L12.8000589,7.40005885 C13.0667255,7.75561441 13.0667255,8.2445033 12.8000589,8.60005885 L9.80005885,12.6000589 C9.468688,13.0418867 8.84188665,13.1314297 8.40005885,12.8000589 C7.95823105,12.468688 7.868688,11.8418867 8.20005885,11.4000589 L10.7500589,8.00005885 Z"/>
</svg>
