<?xml version="1.0" encoding="UTF-8"?>
<svg width="16px" height="16px" viewBox="0 0 16 16" version="1.1" xmlns="http://www.w3.org/2000/svg" xmlns:xlink="http://www.w3.org/1999/xlink">
    <!-- Generator: Sketch 48.2 (47327) - http://www.bohemiancoding.com/sketch -->
    <title>angle-double-down-mini-solid</title>
    <desc>Created with Sketch.</desc>
    <defs></defs>
    <g id="16px-solid" stroke="none" stroke-width="1" fill="none" fill-rule="evenodd" transform="translate(-192.000000, -544.000000)">
        <g id="angle-double-down-mini-solid" transform="translate(192.000000, 544.000000)" fill="#000000" fill-rule="nonzero">
            <path d="M8.00005885,6.75005885 L11.4000589,4.20005885 C11.8418867,3.868688 12.468688,3.95823105 12.8000589,4.40005885 C13.1314297,4.84188665 13.0418867,5.468688 12.6000589,5.80005885 L8.60005885,8.80005885 C8.2445033,9.06672552 7.75561441,9.06672552 7.40005885,8.80005885 L3.40005885,5.80005885 C2.95823105,5.468688 2.868688,4.84188665 3.20005885,4.40005885 C3.5314297,3.95823105 4.15823105,3.868688 4.60005885,4.20005885 L8.00005885,6.75005885 Z M8.00005885,10.7500589 L11.4000589,8.20005885 C11.8418867,7.868688 12.468688,7.95823105 12.8000589,8.40005885 C13.1314297,8.84188665 13.0418867,9.468688 12.6000589,9.80005885 L8.60005885,12.8000589 C8.2445033,13.0667255 7.75561441,13.0667255 7.40005885,12.8000589 L3.40005885,9.80005885 C2.95823105,9.468688 2.868688,8.84188665 3.20005885,8.40005885 C3.5314297,7.95823105 4.15823105,7.868688 4.60005885,8.20005885 L8.00005885,10.7500589 Z" id="shape"></path>
        </g>
    </g>
</svg>