<?xml version="1.0" encoding="UTF-8"?>
<svg width="16px" height="16px" viewBox="0 0 16 16" version="1.1" xmlns="http://www.w3.org/2000/svg" xmlns:xlink="http://www.w3.org/1999/xlink">
    <!-- Generator: Sketch 48.2 (47327) - http://www.bohemiancoding.com/sketch -->
    <title>angle-fillet-left-solid</title>
    <desc>Created with Sketch.</desc>
    <defs></defs>
    <g id="16px-solid" stroke="none" stroke-width="1" fill="none" fill-rule="evenodd" transform="translate(-480.000000, -640.000000)">
        <g id="angle-fillet-left-solid" transform="translate(480.000000, 640.000000)" fill="#000000" fill-rule="nonzero">
            <path d="M9.12630803,1.10247022 C9.89829274,0.378734548 11.1053042,0.398197413 11.8535534,1.14644661 C12.5776097,1.87050289 12.5776097,3.04443006 11.8535534,3.76848634 C11.8248646,3.79676255 11.8248646,3.79676255 11.7953689,3.824196 L7.64203047,7.63142293 C7.43847097,7.81801913 7.42471951,8.13430282 7.61131571,8.33786231 C7.6211042,8.34854066 7.63135212,8.35878858 7.64203047,8.36857707 L11.7953689,12.175804 C12.5501928,12.8677259 12.6011849,14.0405451 11.9092631,14.7953689 C11.8818296,14.8248646 11.8818296,14.8248646 11.8535534,14.8535534 C11.1053042,15.6018026 9.89829274,15.6212655 9.12630803,14.8975298 L2.93620245,9.09430581 C2.33183404,8.52771042 2.30121296,7.57845672 2.86780834,6.97408831 C2.90127017,6.93915602 2.90127017,6.93915602 2.93620245,6.90569419 L9.12630803,1.10247022 Z" id="shape"></path>
        </g>
    </g>
</svg>