<?xml version="1.0" encoding="UTF-8"?>
<svg width="16px" height="16px" viewBox="0 0 16 16" version="1.1" xmlns="http://www.w3.org/2000/svg" xmlns:xlink="http://www.w3.org/1999/xlink">
    <!-- Generator: Sketch 48.2 (47327) - http://www.bohemiancoding.com/sketch -->
    <title>angle-double-up-solid</title>
    <desc>Created with Sketch.</desc>
    <defs></defs>
    <g id="16px-solid" stroke="none" stroke-width="1" fill="none" fill-rule="evenodd" transform="translate(-240.000000, -448.000000)">
        <g id="angle-double-up-solid" transform="translate(240.000000, 448.000000)" fill="#000000" fill-rule="nonzero">
            <path d="M8,3.31707778 L1.65079137,8.7592566 C1.23146553,9.11867875 0.600165549,9.07011722 0.240743398,8.65079137 C-0.118678753,8.23146553 -0.0701172162,7.60016555 0.349208627,7.2407434 L7.34920863,1.2407434 C7.72369836,0.919752201 8.27630164,0.919752201 8.65079137,1.2407434 L15.6507914,7.2407434 C16.0701172,7.60016555 16.1186788,8.23146553 15.7592566,8.65079137 C15.3998345,9.07011722 14.7685345,9.11867875 14.3492086,8.7592566 L8,3.31707778 Z M1.65079137,13.7592566 C1.23146553,14.1186788 0.600165549,14.0701172 0.240743398,13.6507914 C-0.118678753,13.2314655 -0.0701172162,12.6001655 0.349208627,12.2407434 L7.34920863,6.2407434 C7.72369836,5.9197522 8.27630164,5.9197522 8.65079137,6.2407434 L15.6507914,12.2407434 C16.0701172,12.6001655 16.1186788,13.2314655 15.7592566,13.6507914 C15.3998345,14.0701172 14.7685345,14.1186788 14.3492086,13.7592566 L8,8.31707778 L1.65079137,13.7592566 Z" id="Path-113"></path>
        </g>
    </g>
</svg>