<?xml version="1.0" encoding="UTF-8"?>
<svg width="16px" height="16px" viewBox="0 0 16 16" version="1.1" xmlns="http://www.w3.org/2000/svg" xmlns:xlink="http://www.w3.org/1999/xlink">
    <!-- Generator: Sketch 48.2 (47327) - http://www.bohemiancoding.com/sketch -->
    <title>angle-double-left-mini-solid</title>
    <desc>Created with Sketch.</desc>
    <defs></defs>
    <g id="16px-solid" stroke="none" stroke-width="1" fill="none" fill-rule="evenodd" transform="translate(-192.000000, -640.000000)">
        <g id="angle-double-left-mini-solid" transform="translate(192.000000, 640.000000)" fill="#000000" fill-rule="nonzero">
            <path d="M9.25002943,8.00002943 L11.8000294,11.4000294 C12.1314003,11.8418572 12.0418572,12.4686586 11.6000294,12.8000294 C11.1582016,13.1314003 10.5314003,13.0418572 10.2000294,12.6000294 L7.20002943,8.60002943 C6.93336276,8.24447387 6.93336276,7.75558498 7.20002943,7.40002943 L10.2000294,3.40002943 C10.5314003,2.95820163 11.1582016,2.86865858 11.6000294,3.20002943 C12.0418572,3.53140028 12.1314003,4.15820163 11.8000294,4.60002943 L9.25002943,8.00002943 Z M5.25002943,8.00002943 L7.80002943,11.4000294 C8.13140028,11.8418572 8.04185723,12.4686586 7.60002943,12.8000294 C7.15820163,13.1314003 6.53140028,13.0418572 6.20002943,12.6000294 L3.20002943,8.60002943 C2.93336276,8.24447387 2.93336276,7.75558498 3.20002943,7.40002943 L6.20002943,3.40002943 C6.53140028,2.95820163 7.15820163,2.86865858 7.60002943,3.20002943 C8.04185723,3.53140028 8.13140028,4.15820163 7.80002943,4.60002943 L5.25002943,8.00002943 Z" id="shape"></path>
        </g>
    </g>
</svg>