<?xml version="1.0" encoding="UTF-8"?>
<svg width="16px" height="16px" viewBox="0 0 16 16" version="1.1" xmlns="http://www.w3.org/2000/svg" xmlns:xlink="http://www.w3.org/1999/xlink">
    <!-- Generator: Sketch 48.2 (47327) - http://www.bohemiancoding.com/sketch -->
    <title>angle-double-right-mini-solid</title>
    <desc>Created with Sketch.</desc>
    <defs></defs>
    <g id="16px-solid" stroke="none" stroke-width="1" fill="none" fill-rule="evenodd" transform="translate(-192.000000, -736.000000)">
        <g id="angle-double-right-mini-solid" transform="translate(192.000000, 736.000000)" fill="#000000" fill-rule="nonzero">
            <path d="M10.25,8.00005885 L12.8,11.4000589 C13.1313708,11.8418867 13.0418278,12.468688 12.6,12.8000589 C12.1581722,13.1314297 11.5313708,13.0418867 11.2,12.6000589 L8.2,8.60005885 C7.93333333,8.2445033 7.93333333,7.75561441 8.2,7.40005885 L11.2,3.40005885 C11.5313708,2.95823105 12.1581722,2.868688 12.6,3.20005885 C13.0418278,3.5314297 13.1313708,4.15823105 12.8,4.60005885 L10.25,8.00005885 Z M6.25,8.00005885 L8.8,11.4000589 C9.13137085,11.8418867 9.0418278,12.468688 8.6,12.8000589 C8.1581722,13.1314297 7.53137085,13.0418867 7.2,12.6000589 L4.2,8.60005885 C3.93333333,8.2445033 3.93333333,7.75561441 4.2,7.40005885 L7.2,3.40005885 C7.53137085,2.95823105 8.1581722,2.868688 8.6,3.20005885 C9.0418278,3.5314297 9.13137085,4.15823105 8.8,4.60005885 L6.25,8.00005885 Z" id="shape" transform="translate(8.500029, 8.000059) scale(-1, 1) translate(-8.500029, -8.000059) "></path>
        </g>
    </g>
</svg>