<?xml version="1.0" encoding="UTF-8"?>
<svg width="16px" height="16px" viewBox="0 0 16 16" version="1.1" xmlns="http://www.w3.org/2000/svg" xmlns:xlink="http://www.w3.org/1999/xlink">
    <!-- Generator: Sketch 48.2 (47327) - http://www.bohemiancoding.com/sketch -->
    <title>angle-fillet-right-solid</title>
    <desc>Created with Sketch.</desc>
    <defs></defs>
    <g id="16px-solid" stroke="none" stroke-width="1" fill="none" fill-rule="evenodd" transform="translate(-480.000000, -736.000000)">
        <g id="angle-fillet-right-solid" transform="translate(480.000000, 736.000000)" fill="#000000" fill-rule="nonzero">
            <path d="M4.20463107,3.824196 C3.44980719,3.13227412 3.39881505,1.95945495 4.09073694,1.20463107 C4.1181704,1.17513538 4.1181704,1.17513538 4.14644661,1.14644661 C4.89469581,0.398197413 6.10170726,0.378734548 6.87369197,1.10247022 L13.0637975,6.90569419 C13.668166,7.47228958 13.698787,8.42154328 13.1321917,9.02591169 C13.0987298,9.06084398 13.0987298,9.06084398 13.0637975,9.09430581 L6.87369197,14.8975298 C6.10170726,15.6212655 4.89469581,15.6018026 4.14644661,14.8535534 C3.42239033,14.1294971 3.42239033,12.9555699 4.14644661,12.2315137 C4.17513538,12.2032375 4.17513538,12.2032375 4.20463107,12.175804 L8.35796953,8.36857707 C8.56152903,8.18198087 8.57528049,7.86569718 8.38868429,7.66213769 C8.3788958,7.65145934 8.36864788,7.64121142 8.35796953,7.63142293 L4.20463107,3.824196 Z" id="shape"></path>
        </g>
    </g>
</svg>