<?xml version="1.0" encoding="UTF-8"?>
<svg width="16px" height="16px" viewBox="0 0 16 16" version="1.1" xmlns="http://www.w3.org/2000/svg" xmlns:xlink="http://www.w3.org/1999/xlink">
    <!-- Generator: Sketch 48.2 (47327) - http://www.bohemiancoding.com/sketch -->
    <title>angle-double-circle-left-solid</title>
    <desc>Created with Sketch.</desc>
    <defs></defs>
    <g id="16px-solid" stroke="none" stroke-width="1" fill="none" fill-rule="evenodd" transform="translate(-288.000000, -640.000000)">
        <g id="angle-double-circle-left-solid" transform="translate(288.000000, 640.000000)" fill="#000000" fill-rule="nonzero">
            <path d="M8,16 C3.581722,16 0,12.418278 0,8 C0,3.581722 3.581722,0 8,0 C12.418278,0 16,3.581722 16,8 C16,12.418278 12.418278,16 8,16 Z M5.15853889,8 L7.8796283,4.82539569 C8.05933938,4.61573277 8.03505861,4.30008277 7.82539569,4.1203717 C7.61573277,3.94066062 7.30008277,3.96494139 7.1203717,4.17460431 L4.1203717,7.67460431 C3.9598761,7.86184918 3.9598761,8.13815082 4.1203717,8.32539569 L7.1203717,11.8253957 C7.30008277,12.0350586 7.61573277,12.0593394 7.82539569,11.8796283 C8.03505861,11.6999172 8.05933938,11.3842672 7.8796283,11.1746043 L5.15853889,8 Z M10.8796283,11.1746043 L8.15853889,8 L10.8796283,4.82539569 C11.0593394,4.61573277 11.0350586,4.30008277 10.8253957,4.1203717 C10.6157328,3.94066062 10.3000828,3.96494139 10.1203717,4.17460431 L7.1203717,7.67460431 C6.9598761,7.86184918 6.9598761,8.13815082 7.1203717,8.32539569 L10.1203717,11.8253957 C10.3000828,12.0350586 10.6157328,12.0593394 10.8253957,11.8796283 C11.0350586,11.6999172 11.0593394,11.3842672 10.8796283,11.1746043 Z" id="shape"></path>
        </g>
    </g>
</svg>