<?xml version="1.0" encoding="UTF-8"?>
<svg width="16px" height="16px" viewBox="0 0 16 16" version="1.1" xmlns="http://www.w3.org/2000/svg" xmlns:xlink="http://www.w3.org/1999/xlink">
    <!-- Generator: Sketch 48.2 (47327) - http://www.bohemiancoding.com/sketch -->
    <title>angle-double-circle-up-solid</title>
    <desc>Created with Sketch.</desc>
    <defs></defs>
    <g id="16px-solid" stroke="none" stroke-width="1" fill="none" fill-rule="evenodd" transform="translate(-288.000000, -448.000000)">
        <g id="angle-double-circle-up-solid" transform="translate(288.000000, 448.000000)" fill="#000000" fill-rule="nonzero">
            <path d="M8,16 C3.581722,16 0,12.418278 0,8 C0,3.581722 3.581722,0 8,0 C12.418278,0 16,3.581722 16,8 C16,12.418278 12.418278,16 8,16 Z M4.82539569,10.8796283 L8,8.15853889 L11.1746043,10.8796283 C11.3842672,11.0593394 11.6999172,11.0350586 11.8796283,10.8253957 C12.0593394,10.6157328 12.0350586,10.3000828 11.8253957,10.1203717 L8.32539569,7.1203717 C8.13815082,6.9598761 7.86184918,6.9598761 7.67460431,7.1203717 L4.17460431,10.1203717 C3.96494139,10.3000828 3.94066062,10.6157328 4.1203717,10.8253957 C4.30008277,11.0350586 4.61573277,11.0593394 4.82539569,10.8796283 Z M4.82539569,7.8796283 L8,5.15853889 L11.1746043,7.8796283 C11.3842672,8.05933938 11.6999172,8.03505861 11.8796283,7.82539569 C12.0593394,7.61573277 12.0350586,7.30008277 11.8253957,7.1203717 L8.32539569,4.1203717 C8.13815082,3.9598761 7.86184918,3.9598761 7.67460431,4.1203717 L4.17460431,7.1203717 C3.96494139,7.30008277 3.94066062,7.61573277 4.1203717,7.82539569 C4.30008277,8.03505861 4.61573277,8.05933938 4.82539569,7.8796283 Z" id="shape"></path>
        </g>
    </g>
</svg>