<?xml version="1.0" encoding="UTF-8"?>
<svg width="16px" height="16px" viewBox="0 0 16 16" version="1.1" xmlns="http://www.w3.org/2000/svg" xmlns:xlink="http://www.w3.org/1999/xlink">
    <!-- Generator: Sketch 48.2 (47327) - http://www.bohemiancoding.com/sketch -->
    <title>angle-circle-down-solid</title>
    <desc>Created with Sketch.</desc>
    <defs></defs>
    <g id="16px-solid" stroke="none" stroke-width="1" fill="none" fill-rule="evenodd" transform="translate(-144.000000, -544.000000)">
        <g id="angle-circle-down-solid" transform="translate(144.000000, 544.000000)" fill="#000000" fill-rule="nonzero">
            <path d="M8,16 C3.581722,16 0,12.418278 0,8 C0,3.581722 3.581722,0 8,0 C12.418278,0 16,3.581722 16,8 C16,12.418278 12.418278,16 8,16 Z M8,9.29289322 L4.85355339,6.14644661 C4.65829124,5.95118446 4.34170876,5.95118446 4.14644661,6.14644661 C3.95118446,6.34170876 3.95118446,6.65829124 4.14644661,6.85355339 L7.64644661,10.3535534 C7.84170876,10.5488155 8.15829124,10.5488155 8.35355339,10.3535534 L11.8535534,6.85355339 C12.0488155,6.65829124 12.0488155,6.34170876 11.8535534,6.14644661 C11.6582912,5.95118446 11.3417088,5.95118446 11.1464466,6.14644661 L8,9.29289322 Z" id="shape"></path>
        </g>
    </g>
</svg>