<?xml version="1.0" encoding="UTF-8"?>
<svg width="16px" height="16px" viewBox="0 0 16 16" version="1.1" xmlns="http://www.w3.org/2000/svg" xmlns:xlink="http://www.w3.org/1999/xlink">
    <!-- Generator: Sketch 48.2 (47327) - http://www.bohemiancoding.com/sketch -->
    <title>angle-double-left-solid</title>
    <desc>Created with Sketch.</desc>
    <defs></defs>
    <g id="16px-solid" stroke="none" stroke-width="1" fill="none" fill-rule="evenodd" transform="translate(-240.000000, -640.000000)">
        <g id="angle-double-left-solid" transform="translate(240.000000, 640.000000)" fill="#000000" fill-rule="nonzero">
            <path d="M3.31708684,8.00000906 L8.75926567,14.3492177 C9.11868782,14.7685435 9.07012628,15.3998435 8.65080044,15.7592657 C8.2314746,16.1186878 7.60017461,16.0701263 7.24075246,15.6508004 L1.24075246,8.65080044 C0.919761266,8.27631071 0.919761266,7.72370742 1.24075246,7.34921769 L7.24075246,0.349217692 C7.60017461,-0.0701081512 8.2314746,-0.118669688 8.65080044,0.240752463 C9.07012628,0.600174613 9.11868782,1.2314746 8.75926567,1.65080044 L3.31708684,8.00000906 Z M13.7592657,1.65080044 L8.31708684,8.00000906 L13.7592657,14.3492177 C14.1186878,14.7685435 14.0701263,15.3998435 13.6508004,15.7592657 C13.2314746,16.1186878 12.6001746,16.0701263 12.2407525,15.6508004 L6.24075246,8.65080044 C5.91976127,8.27631071 5.91976127,7.72370742 6.24075246,7.34921769 L12.2407525,0.349217692 C12.6001746,-0.0701081512 13.2314746,-0.118669688 13.6508004,0.240752463 C14.0701263,0.600174613 14.1186878,1.2314746 13.7592657,1.65080044 Z" id="shape"></path>
        </g>
    </g>
</svg>