<svg xmlns="http://www.w3.org/2000/svg" width="16" height="16" viewBox="0 0 16 16">
  <path d="M12.6829404,8.00001813 L7.24076153,1.6508095 C6.88133938,1.23148366 6.92990091,0.600183678 7.34922676,0.240761528 C7.7685526,-0.118660623 8.39985258,-0.0700990862 8.75927473,0.349226756 L14.7592747,7.34922676 C15.0802659,7.72371649 15.0802659,8.27631977 14.7592747,8.6508095 L8.75927473,15.6508095 C8.39985258,16.0701353 7.7685526,16.1186969 7.34922676,15.7592747 C6.92990091,15.3998526 6.88133938,14.7685526 7.24076153,14.3492268 L12.6829404,8.00001813 Z M2.24076153,1.6508095 C1.88133938,1.23148366 1.92990091,0.600183678 2.34922676,0.240761528 C2.7685526,-0.118660623 3.39985258,-0.0700990862 3.75927473,0.349226756 L9.75927473,7.34922676 C10.0802659,7.72371649 10.0802659,8.27631977 9.75927473,8.6508095 L3.75927473,15.6508095 C3.39985258,16.0701353 2.7685526,16.1186969 2.34922676,15.7592747 C1.92990091,15.3998526 1.88133938,14.7685526 2.24076153,14.3492268 L7.68294035,8.00001813 L2.24076153,1.6508095 Z"/>
</svg>
