<?xml version="1.0" encoding="UTF-8"?>
<svg width="16px" height="16px" viewBox="0 0 16 16" version="1.1" xmlns="http://www.w3.org/2000/svg" xmlns:xlink="http://www.w3.org/1999/xlink">
    <!-- Generator: Sketch 48.2 (47327) - http://www.bohemiancoding.com/sketch -->
    <title>angle-double-right-solid</title>
    <desc>Created with Sketch.</desc>
    <defs></defs>
    <g id="16px-solid" stroke="none" stroke-width="1" fill="none" fill-rule="evenodd" transform="translate(-240.000000, -736.000000)">
        <g id="angle-double-right-solid" transform="translate(240.000000, 736.000000)" fill="#000000" fill-rule="nonzero">
            <path d="M4.31707778,8.00001813 L9.7592566,14.3492268 C10.1186788,14.7685526 10.0701172,15.3998526 9.65079137,15.7592747 C9.23146553,16.1186969 8.60016555,16.0701353 8.2407434,15.6508095 L2.2407434,8.6508095 C1.9197522,8.27631977 1.9197522,7.72371649 2.2407434,7.34922676 L8.2407434,0.349226756 C8.60016555,-0.0700990862 9.23146553,-0.118660623 9.65079137,0.240761528 C10.0701172,0.600183678 10.1186788,1.23148366 9.7592566,1.6508095 L4.31707778,8.00001813 Z M14.7592566,1.6508095 L9.31707778,8.00001813 L14.7592566,14.3492268 C15.1186788,14.7685526 15.0701172,15.3998526 14.6507914,15.7592747 C14.2314655,16.1186969 13.6001655,16.0701353 13.2407434,15.6508095 L7.2407434,8.6508095 C6.9197522,8.27631977 6.9197522,7.72371649 7.2407434,7.34922676 L13.2407434,0.349226756 C13.6001655,-0.0700990862 14.2314655,-0.118660623 14.6507914,0.240761528 C15.0701172,0.600183678 15.1186788,1.23148366 14.7592566,1.6508095 Z" id="shape" transform="translate(8.500009, 8.000018) scale(-1, 1) translate(-8.500009, -8.000018) "></path>
        </g>
    </g>
</svg>