<?xml version="1.0" encoding="UTF-8"?>
<svg width="16px" height="16px" viewBox="0 0 16 16" version="1.1" xmlns="http://www.w3.org/2000/svg" xmlns:xlink="http://www.w3.org/1999/xlink">
    <!-- Generator: Sketch 48.2 (47327) - http://www.bohemiancoding.com/sketch -->
    <title>angle-double-circle-right-solid</title>
    <desc>Created with Sketch.</desc>
    <defs></defs>
    <g id="16px-solid" stroke="none" stroke-width="1" fill="none" fill-rule="evenodd" transform="translate(-288.000000, -736.000000)">
        <g id="angle-double-circle-right-solid" transform="translate(288.000000, 736.000000)" fill="#000000" fill-rule="nonzero">
            <path d="M8,16 C3.581722,16 0,12.418278 0,8 C0,3.581722 3.581722,0 8,0 C12.418278,0 16,3.581722 16,8 C16,12.418278 12.418278,16 8,16 Z M5.1203717,4.82539569 L7.84146111,8 L5.1203717,11.1746043 C4.94066062,11.3842672 4.96494139,11.6999172 5.17460431,11.8796283 C5.38426723,12.0593394 5.69991723,12.0350586 5.8796283,11.8253957 L8.8796283,8.32539569 C9.0401239,8.13815082 9.0401239,7.86184918 8.8796283,7.67460431 L5.8796283,4.17460431 C5.69991723,3.96494139 5.38426723,3.94066062 5.17460431,4.1203717 C4.96494139,4.30008277 4.94066062,4.61573277 5.1203717,4.82539569 Z M8.1203717,4.82539569 L10.8414611,8 L8.1203717,11.1746043 C7.94066062,11.3842672 7.96494139,11.6999172 8.17460431,11.8796283 C8.38426723,12.0593394 8.69991723,12.0350586 8.8796283,11.8253957 L11.8796283,8.32539569 C12.0401239,8.13815082 12.0401239,7.86184918 11.8796283,7.67460431 L8.8796283,4.17460431 C8.69991723,3.96494139 8.38426723,3.94066062 8.17460431,4.1203717 C7.96494139,4.30008277 7.94066062,4.61573277 8.1203717,4.82539569 Z" id="shape"></path>
        </g>
    </g>
</svg>