<?xml version="1.0" encoding="UTF-8"?>
<svg width="16px" height="16px" viewBox="0 0 16 16" version="1.1" xmlns="http://www.w3.org/2000/svg" xmlns:xlink="http://www.w3.org/1999/xlink">
    <!-- Generator: Sketch 48.2 (47327) - http://www.bohemiancoding.com/sketch -->
    <title>angle-double-down-solid</title>
    <desc>Created with Sketch.</desc>
    <defs></defs>
    <g id="16px-solid" stroke="none" stroke-width="1" fill="none" fill-rule="evenodd" transform="translate(-240.000000, -544.000000)">
        <g id="angle-double-down-solid" transform="translate(240.000000, 544.000000)" fill="#000000" fill-rule="nonzero">
            <path d="M8.00001813,12.6829404 L14.3492268,7.24076153 C14.7685526,6.88133938 15.3998526,6.92990091 15.7592747,7.34922676 C16.1186969,7.7685526 16.0701353,8.39985258 15.6508095,8.75927473 L8.6508095,14.7592747 C8.27631977,15.0802659 7.72371649,15.0802659 7.34922676,14.7592747 L0.349226756,8.75927473 C-0.0700990862,8.39985258 -0.118660623,7.7685526 0.240761528,7.34922676 C0.600183678,6.92990091 1.23148366,6.88133938 1.6508095,7.24076153 L8.00001813,12.6829404 Z M1.6508095,2.24076153 L8.00001813,7.68294035 L14.3492268,2.24076153 C14.7685526,1.88133938 15.3998526,1.92990091 15.7592747,2.34922676 C16.1186969,2.7685526 16.0701353,3.39985258 15.6508095,3.75927473 L8.6508095,9.75927473 C8.27631977,10.0802659 7.72371649,10.0802659 7.34922676,9.75927473 L0.349226756,3.75927473 C-0.0700990862,3.39985258 -0.118660623,2.7685526 0.240761528,2.34922676 C0.600183678,1.92990091 1.23148366,1.88133938 1.6508095,2.24076153 Z" id="shape"></path>
        </g>
    </g>
</svg>