<?xml version="1.0" encoding="UTF-8"?>
<svg width="16px" height="16px" viewBox="0 0 16 16" version="1.1" xmlns="http://www.w3.org/2000/svg" xmlns:xlink="http://www.w3.org/1999/xlink">
    <!-- Generator: Sketch 48.2 (47327) - http://www.bohemiancoding.com/sketch -->
    <title>angle-fillet-up-solid</title>
    <desc>Created with Sketch.</desc>
    <defs></defs>
    <g id="16px-solid" stroke="none" stroke-width="1" fill="none" fill-rule="evenodd" transform="translate(-480.000000, -448.000000)">
        <g id="angle-fillet-up-solid" transform="translate(480.000000, 448.000000)" fill="#000000" fill-rule="nonzero">
            <path d="M6.90569419,2.93620245 C6.93915602,2.90127017 6.93915602,2.90127017 6.97408831,2.86780834 C7.57845672,2.30121296 8.52771042,2.33183404 9.09430581,2.93620245 L14.8975298,9.12630803 C15.6212655,9.89829274 15.6018026,11.1053042 14.8535534,11.8535534 C14.8248646,11.8818296 14.8248646,11.8818296 14.7953689,11.9092631 C14.0405451,12.6011849 12.8677259,12.5501928 12.175804,11.7953689 L8.36857707,7.64203047 C8.35878858,7.63135212 8.34854066,7.6211042 8.33786231,7.61131571 C8.13430282,7.42471951 7.81801913,7.43847097 7.63142293,7.64203047 L3.824196,11.7953689 C3.79676255,11.8248646 3.79676255,11.8248646 3.76848634,11.8535534 C3.04443006,12.5776097 1.87050289,12.5776097 1.14644661,11.8535534 C0.398197413,11.1053042 0.378734548,9.89829274 1.10247022,9.12630803 L6.90569419,2.93620245 Z" id="shape"></path>
        </g>
    </g>
</svg>