<?xml version="1.0" encoding="UTF-8"?>
<svg width="16px" height="16px" viewBox="0 0 16 16" version="1.1" xmlns="http://www.w3.org/2000/svg" xmlns:xlink="http://www.w3.org/1999/xlink">
    <!-- Generator: Sketch 48.2 (47327) - http://www.bohemiancoding.com/sketch -->
    <title>arrows-h-solid</title>
    <desc>Created with Sketch.</desc>
    <defs></defs>
    <g id="16px-solid" stroke="none" stroke-width="1" fill="none" fill-rule="evenodd" transform="translate(-144.000000, -898.000000)">
        <g id="arrows-h-solid" transform="translate(144.000000, 898.000000)" fill="#000000">
            <path d="M12,7 L12,5.5 C12,5.07608118 12.4944287,4.84450314 12.8200922,5.11588936 L15.8200922,7.61588936 C16.0599693,7.81578692 16.0599693,8.18421308 15.8200922,8.38411064 L12.8200922,10.8841106 C12.4944287,11.1554969 12,10.9239188 12,10.5 L12,9 L4,9 L4,10.5 C4,10.9239188 3.50557126,11.1554969 3.1799078,10.8841106 L0.1799078,8.38411064 C-0.0599692667,8.18421308 -0.0599692667,7.81578692 0.1799078,7.61588936 L3.1799078,5.11588936 C3.50557126,4.84450314 4,5.07608118 4,5.5 L4,7 L12,7 Z" id="shape"></path>
        </g>
    </g>
</svg>