<?xml version="1.0" encoding="UTF-8"?>
<svg width="16px" height="16px" viewBox="0 0 16 16" version="1.1" xmlns="http://www.w3.org/2000/svg" xmlns:xlink="http://www.w3.org/1999/xlink">
    <!-- Generator: Sketch 48.2 (47327) - http://www.bohemiancoding.com/sketch -->
    <title>arrow-slim-up-solid</title>
    <desc>Created with Sketch.</desc>
    <defs></defs>
    <g id="16px-solid" stroke="none" stroke-width="1" fill="none" fill-rule="evenodd" transform="translate(-192.000000, -496.000000)">
        <g id="arrow-slim-up-solid" transform="translate(192.000000, 496.000000)" fill="#000000" fill-rule="nonzero">
            <path d="M7,3.41421356 L2.70710678,7.70710678 C2.31658249,8.09763107 1.68341751,8.09763107 1.29289322,7.70710678 C0.902368927,7.31658249 0.902368927,6.68341751 1.29289322,6.29289322 L7.29289322,0.292893219 C7.68341751,-0.0976310729 8.31658249,-0.0976310729 8.70710678,0.292893219 L14.7071068,6.29289322 C15.0976311,6.68341751 15.0976311,7.31658249 14.7071068,7.70710678 C14.3165825,8.09763107 13.6834175,8.09763107 13.2928932,7.70710678 L9,3.41421356 L9,15 C9,15.5522847 8.55228475,16 8,16 C7.44771525,16 7,15.5522847 7,15 L7,3.41421356 Z" id="shape"></path>
        </g>
    </g>
</svg>