<?xml version="1.0" encoding="UTF-8"?>
<svg width="16px" height="16px" viewBox="0 0 16 16" version="1.1" xmlns="http://www.w3.org/2000/svg" xmlns:xlink="http://www.w3.org/1999/xlink">
    <!-- Generator: Sketch 48.2 (47327) - http://www.bohemiancoding.com/sketch -->
    <title>arrow-fillet-down-solid</title>
    <desc>Created with Sketch.</desc>
    <defs></defs>
    <g id="16px-solid" stroke="none" stroke-width="1" fill="none" fill-rule="evenodd" transform="translate(-336.000000, -592.000000)">
        <g id="arrow-fillet-down-solid" transform="translate(336.000000, 592.000000)" fill="#000000" fill-rule="nonzero">
            <path d="M12.135763,7.13227869 C12.8924245,6.39123276 14.104659,6.39755218 14.8535534,7.14644661 C14.8761664,7.169321 14.8761664,7.169321 14.898248,7.19270893 C15.6015289,7.94622399 15.5608061,9.12719051 14.8072911,9.83047147 L9.02347987,15.2286971 C8.44716982,15.7665867 7.55283535,15.7665868 6.97652512,15.2286974 L1.19270937,9.83047124 C1.16932122,9.80838953 1.16932122,9.80838953 1.14644661,9.78577625 C0.417615853,9.0569455 0.417615853,7.87527737 1.14644661,7.14644661 C1.8946325,6.39826072 3.10652381,6.3945219 3.85931637,7.13807691 C4.77357599,8.04112671 5.48643412,8.75030649 6,9.26782877 L6,2 C6,0.8954305 6.8954305,1.48029737e-16 8,8.8817842e-16 C9.1045695,1.6283271e-15 10,0.8954305 10,2 L10,9.2549721 C10.542149,8.70328062 11.2537472,7.99607453 12.135763,7.13227869 Z" id="shape"></path>
        </g>
    </g>
</svg>