<?xml version="1.0" encoding="UTF-8"?>
<svg width="16px" height="16px" viewBox="0 0 16 16" version="1.1" xmlns="http://www.w3.org/2000/svg" xmlns:xlink="http://www.w3.org/1999/xlink">
    <!-- Generator: Sketch 48.2 (47327) - http://www.bohemiancoding.com/sketch -->
    <title>arrow-slim-down-solid</title>
    <desc>Created with Sketch.</desc>
    <defs></defs>
    <g id="16px-solid" stroke="none" stroke-width="1" fill="none" fill-rule="evenodd" transform="translate(-192.000000, -592.000000)">
        <g id="arrow-slim-down-solid" transform="translate(192.000000, 592.000000)" fill="#000000" fill-rule="nonzero">
            <path d="M7,12.5857864 L7,1 C7,0.44771525 7.44771525,1.11022302e-16 8,1.11022302e-16 C8.55228475,1.11022302e-16 9,0.44771525 9,1 L9,12.5857864 L13.2928932,8.29289322 C13.6834175,7.90236893 14.3165825,7.90236893 14.7071068,8.29289322 C15.0976311,8.68341751 15.0976311,9.31658249 14.7071068,9.70710678 L8.70710678,15.7071068 C8.31658249,16.0976311 7.68341751,16.0976311 7.29289322,15.7071068 L1.29289322,9.70710678 C0.902368927,9.31658249 0.902368927,8.68341751 1.29289322,8.29289322 C1.68341751,7.90236893 2.31658249,7.90236893 2.70710678,8.29289322 L7,12.5857864 Z" id="shape"></path>
        </g>
    </g>
</svg>