<?xml version="1.0" encoding="UTF-8"?>
<svg width="16px" height="16px" viewBox="0 0 16 16" version="1.1" xmlns="http://www.w3.org/2000/svg" xmlns:xlink="http://www.w3.org/1999/xlink">
    <!-- Generator: Sketch 48.2 (47327) - http://www.bohemiancoding.com/sketch -->
    <title>arrow-slim-left-solid</title>
    <desc>Created with Sketch.</desc>
    <defs></defs>
    <g id="16px-solid" stroke="none" stroke-width="1" fill="none" fill-rule="evenodd" transform="translate(-192.000000, -688.000000)">
        <g id="arrow-slim-left-solid" transform="translate(192.000000, 688.000000)" fill="#000000" fill-rule="nonzero">
            <path d="M3.41421356,7 L15,7 C15.5522847,7 16,7.44771525 16,8 C16,8.55228475 15.5522847,9 15,9 L3.41421356,9 L7.70710678,13.2928932 C8.09763107,13.6834175 8.09763107,14.3165825 7.70710678,14.7071068 C7.31658249,15.0976311 6.68341751,15.0976311 6.29289322,14.7071068 L0.292893219,8.70710678 C-0.0976310729,8.31658249 -0.0976310729,7.68341751 0.292893219,7.29289322 L6.29289322,1.29289322 C6.68341751,0.902368927 7.31658249,0.902368927 7.70710678,1.29289322 C8.09763107,1.68341751 8.09763107,2.31658249 7.70710678,2.70710678 L3.41421356,7 Z" id="shape"></path>
        </g>
    </g>
</svg>