<?xml version="1.0" encoding="UTF-8"?>
<svg width="16px" height="16px" viewBox="0 0 16 16" version="1.1" xmlns="http://www.w3.org/2000/svg" xmlns:xlink="http://www.w3.org/1999/xlink">
    <!-- Generator: Sketch 48.2 (47327) - http://www.bohemiancoding.com/sketch -->
    <title>arrow-circle-left-solid</title>
    <desc>Created with Sketch.</desc>
    <defs></defs>
    <g id="16px-solid" stroke="none" stroke-width="1" fill="none" fill-rule="evenodd" transform="translate(-288.000000, -688.000000)">
        <g id="arrow-circle-left-solid" transform="translate(288.000000, 688.000000)" fill="#000000" fill-rule="nonzero">
            <path d="M8,16 C3.581722,16 0,12.418278 0,8 C0,3.581722 3.581722,4.4408921e-16 8,4.4408921e-16 C12.418278,4.4408921e-16 16,3.581722 16,8 C16,12.418278 12.418278,16 8,16 Z M8,10 L12.5,10 C12.7761424,10 13,9.77614237 13,9.5 L13,6.5 C13,6.22385763 12.7761424,6 12.5,6 L8,6 L8,3.5 C8,3.05454757 7.46142904,2.83146418 7.14644661,3.14644661 L2.64644661,7.64644661 C2.45118446,7.84170876 2.45118446,8.15829124 2.64644661,8.35355339 L7.14644661,12.8535534 C7.46142904,13.1685358 8,12.9454524 8,12.5 L8,10 Z" id="shape"></path>
        </g>
    </g>
</svg>