<?xml version="1.0" encoding="UTF-8"?>
<svg width="16px" height="16px" viewBox="0 0 16 16" version="1.1" xmlns="http://www.w3.org/2000/svg" xmlns:xlink="http://www.w3.org/1999/xlink">
    <!-- Generator: Sketch 48.2 (47327) - http://www.bohemiancoding.com/sketch -->
    <title>arrow-slim-right-solid</title>
    <desc>Created with Sketch.</desc>
    <defs></defs>
    <g id="16px-solid" stroke="none" stroke-width="1" fill="none" fill-rule="evenodd" transform="translate(-192.000000, -784.000000)">
        <g id="arrow-slim-right-solid" transform="translate(192.000000, 784.000000)" fill="#000000" fill-rule="nonzero">
            <path d="M12.5857864,9 L1,9 C0.44771525,9 3.88578059e-16,8.55228475 3.88578059e-16,8 C3.88578059e-16,7.44771525 0.44771525,7 1,7 L12.5857864,7 L8.29289322,2.70710678 C7.90236893,2.31658249 7.90236893,1.68341751 8.29289322,1.29289322 C8.68341751,0.902368927 9.31658249,0.902368927 9.70710678,1.29289322 L15.7071068,7.29289322 C16.0976311,7.68341751 16.0976311,8.31658249 15.7071068,8.70710678 L9.70710678,14.7071068 C9.31658249,15.0976311 8.68341751,15.0976311 8.29289322,14.7071068 C7.90236893,14.3165825 7.90236893,13.6834175 8.29289322,13.2928932 L12.5857864,9 Z" id="shape"></path>
        </g>
    </g>
</svg>