<?xml version="1.0" encoding="UTF-8"?>
<svg width="16px" height="16px" viewBox="0 0 16 16" version="1.1" xmlns="http://www.w3.org/2000/svg" xmlns:xlink="http://www.w3.org/1999/xlink">
    <!-- Generator: Sketch 48.2 (47327) - http://www.bohemiancoding.com/sketch -->
    <title>arrow-fillet-up-solid</title>
    <desc>Created with Sketch.</desc>
    <defs></defs>
    <g id="16px-solid" stroke="none" stroke-width="1" fill="none" fill-rule="evenodd" transform="translate(-336.000000, -496.000000)">
        <g id="arrow-fillet-up-solid" transform="translate(336.000000, 496.000000)" fill="#000000" fill-rule="nonzero">
            <path d="M6,6.70710678 L3.85355339,8.85355339 C3.10600649,9.60110029 1.89399351,9.60110029 1.14644661,8.85355339 C1.12383344,8.83067889 1.12383344,8.83067889 1.10175183,8.80729085 C0.398471082,8.05377576 0.43919406,6.87280939 1.19270915,6.16952864 L6.97652262,0.771302733 C7.55283276,0.233413269 8.44716724,0.233413269 9.02347738,0.771302733 L14.8072908,6.16952864 C14.8306789,6.19161025 14.8306789,6.19161025 14.8535534,6.21422342 C15.5823842,6.94305427 15.5823842,8.12472254 14.8535534,8.85355339 C14.1060065,9.60110029 12.8939935,9.60110029 12.1464466,8.85355339 L10,6.70710678 L10,14 C10,15.1045695 9.1045695,16 8,16 C6.8954305,16 6,15.1045695 6,14 L6,6.70710678 Z" id="shape"></path>
        </g>
    </g>
</svg>