<?xml version="1.0" encoding="UTF-8"?>
<svg width="16px" height="16px" viewBox="0 0 16 16" version="1.1" xmlns="http://www.w3.org/2000/svg" xmlns:xlink="http://www.w3.org/1999/xlink">
    <!-- Generator: Sketch 48.2 (47327) - http://www.bohemiancoding.com/sketch -->
    <title>arrow-circle-right-solid</title>
    <desc>Created with Sketch.</desc>
    <defs></defs>
    <g id="16px-solid" stroke="none" stroke-width="1" fill="none" fill-rule="evenodd" transform="translate(-288.000000, -784.000000)">
        <g id="arrow-circle-right-solid" transform="translate(288.000000, 784.000000)" fill="#000000" fill-rule="nonzero">
            <path d="M8,16 C3.581722,16 0,12.418278 0,8 C0,3.581722 3.581722,0 8,0 C12.418278,0 16,3.581722 16,8 C16,12.418278 12.418278,16 8,16 Z M8,6 L3.5,6 C3.22385763,6 3,6.22385763 3,6.5 L3,9.5 C3,9.77614237 3.22385763,10 3.5,10 L8,10 L8,12.5 C8,12.9454524 8.53857096,13.1685358 8.85355339,12.8535534 L13.3535534,8.35355339 C13.5488155,8.15829124 13.5488155,7.84170876 13.3535534,7.64644661 L8.85355339,3.14644661 C8.53857096,2.83146418 8,3.05454757 8,3.5 L8,6 Z" id="shape"></path>
        </g>
    </g>
</svg>