<?xml version="1.0" encoding="UTF-8"?>
<svg width="16px" height="16px" viewBox="0 0 16 16" version="1.1" xmlns="http://www.w3.org/2000/svg" xmlns:xlink="http://www.w3.org/1999/xlink">
    <!-- Generator: Sketch 48.2 (47327) - http://www.bohemiancoding.com/sketch -->
    <title>arrow-fillet-right-solid</title>
    <desc>Created with Sketch.</desc>
    <defs></defs>
    <g id="16px-solid" stroke="none" stroke-width="1" fill="none" fill-rule="evenodd" transform="translate(-336.000000, -784.000000)">
        <g id="arrow-fillet-right-solid" transform="translate(336.000000, 784.000000)" fill="#000000" fill-rule="nonzero">
            <path d="M7.14644661,3.85355339 C6.39889971,3.10600649 6.39889971,1.89399351 7.14644661,1.14644661 C7.16932111,1.12383344 7.16932111,1.12383344 7.19270915,1.10175183 C7.94622424,0.398471082 9.12719061,0.43919406 9.83047136,1.19270915 L15.2286973,6.97652262 C15.7665867,7.55283276 15.7665867,8.44716724 15.2286973,9.02347738 L9.83047136,14.8072908 C9.80838975,14.8306789 9.80838975,14.8306789 9.78577658,14.8535534 C9.05694573,15.5823842 7.87527746,15.5823842 7.14644661,14.8535534 C6.39889971,14.1060065 6.39889971,12.8939935 7.14644661,12.1464466 L9.29289322,10 L2,10 C0.8954305,10 -5.61957888e-14,9.1045695 -5.67879077e-14,8 C-5.69359374e-14,6.8954305 0.8954305,6 2,6 L9.29289322,6 L7.14644661,3.85355339 Z" id="shape"></path>
        </g>
    </g>
</svg>