<?xml version="1.0" encoding="UTF-8"?>
<svg width="16px" height="16px" viewBox="0 0 16 16" version="1.1" xmlns="http://www.w3.org/2000/svg" xmlns:xlink="http://www.w3.org/1999/xlink">
    <!-- Generator: Sketch 48.2 (47327) - http://www.bohemiancoding.com/sketch -->
    <title>binoculars-solid</title>
    <desc>Created with Sketch.</desc>
    <defs></defs>
    <g id="16px-solid" stroke="none" stroke-width="1" fill="none" fill-rule="evenodd" transform="translate(-384.000000, -96.000000)">
        <g id="binoculars-solid" transform="translate(384.000000, 96.000000)" fill="#000000">
            <path d="M12.5,13.0000289 C11.119,13.0000289 10,11.8810289 10,10.5000289 C10,9.12002893 11.119,8.00002893 12.5,8.00002893 C13.881,8.00002893 15,9.12002893 15,10.5000289 C15,11.8810289 13.881,13.0000289 12.5,13.0000289 Z M1,10.5000289 C1,9.12002893 2.119,8.00002893 3.5,8.00002893 C4.163,8.00002893 4.799,8.26402893 5.268,8.73302893 C5.736,9.20202893 6,9.83702893 6,10.5000289 C6,11.8810289 4.881,13.0000289 3.5,13.0000289 C2.119,13.0000289 1,11.8810289 1,10.5000289 Z M6.984,10.6570289 C7.205,10.2020289 7.543,9.97002893 7.965,9.99902893 C8.455,9.97002893 8.795,10.2020289 9.016,10.6570289 C9.099,12.5160289 10.62,14.0000289 12.5,14.0000289 C14.433,14.0000289 16,12.4330289 16,10.5000289 C16,9.81102893 15.801,9.16802893 15.457,8.62702893 L12.806,3.58302893 C12.43,2.90702893 11.727,2.49602893 10.964,2.50002893 C10.398,2.50102893 9.855,2.73402893 9.463,3.14402893 C9.07,3.55502893 8.861,4.10802893 8.887,4.67502893 L8.888,4.74902893 C8.61,4.60102893 8.312,4.50002893 8.002,4.50002893 C7.692,4.50002893 7.397,4.60002893 7.122,4.74602893 L7.124,4.66402893 C7.148,4.10802893 6.939,3.55502893 6.547,3.14402893 C6.154,2.73402893 5.611,2.50102893 5.043,2.50002893 C4.269,2.50002893 3.56,2.92802893 3.198,3.61202893 L0.449,8.79902893 C0.175,9.30802893 0,9.88102893 0,10.5000289 C0,12.4330289 1.567,14.0000289 3.5,14.0000289 C5.379,14.0000289 6.9,12.5160289 6.984,10.6570289 Z" id="shape"></path>
        </g>
    </g>
</svg>