<svg xmlns="http://www.w3.org/2000/svg" width="64" height="64" viewBox="0 0 64 64"><path d="M60 40V4c0-2.4-1.6-4-4-4H8C5.6 0 4 1.6 4 4v36H0v8h16l-7.2 9.6c-1.2 1.6-.8 4.4.8 5.6.8.4 1.6.8 2.4.8 1.2 0 2.4-.4 3.2-1.6L26 48h2v8h8v-8h2l10.8 14.4c.8 1.2 2 1.6 3.2 1.6.8 0 1.6-.4 2.4-.8 1.6-1.2 2-4 .8-5.6L48 48h16v-8h-4zM12 8h40v32H12V8z"/><g fill-rule="evenodd" clip-rule="evenodd"><path d="M30.6 22.6l-8.1 8.2c-1.5 1.5-3.9 1.5-5.4 0-1.5-1.5-1.5-4 0-5.5l8.1-8.2c1.5-1.5 3.9-1.5 5.4 0 1.5 1.6 1.5 4 0 5.5z"/><path d="M33.4 30.9l-8.1-8.2c-1.5-1.5-1.5-4 0-5.5s3.9-1.5 5.4 0l8.1 8.2c1.5 1.5 1.5 4 0 5.5s-3.9 1.5-5.4 0z"/><path d="M46.9 22.6l-8.1 8.2c-1.5 1.5-3.9 1.5-5.4 0-1.5-1.5-1.5-4 0-5.5l8.1-8.2c1.5-1.5 3.9-1.5 5.4 0 1.5 1.6 1.5 4 0 5.5z"/></g></svg>