<?xml version="1.0" encoding="UTF-8"?>
<svg width="16px" height="16px" viewBox="0 0 16 16" version="1.1" xmlns="http://www.w3.org/2000/svg" xmlns:xlink="http://www.w3.org/1999/xlink">
    <!-- Generator: Sketch 48.2 (47327) - http://www.bohemiancoding.com/sketch -->
    <title>book-solid</title>
    <desc>Created with Sketch.</desc>
    <defs></defs>
    <g id="16px-solid" stroke="none" stroke-width="1" fill="none" fill-rule="evenodd" transform="translate(-144.000000, -240.000000)">
        <g id="book-solid" transform="translate(144.000000, 240.000000)" fill="#000000">
            <path d="M0.777,14.9162 C0.445,15.1372 0,14.8992 0,14.5002 L0,1.5002 C0,1.3332 0.083,1.1762 0.223,1.0842 C1.307,0.3612 2.57,0.0002 4,0.0002 C5.312,0.0002 6.478,0.3192 7.5,0.9282 C8.522,0.3192 9.688,0.0002 11,0.0002 C12.43,0.0002 13.693,0.3612 14.777,1.0842 C14.917,1.1762 15,1.3332 15,1.5002 L15,14.5002 C15,14.8992 14.555,15.1372 14.223,14.9162 C13.307,14.3052 12.237,14.0002 11,14.0002 C9.763,14.0002 8.693,14.3052 7.777,14.9162 C7.77,14.9212 7.762,14.9192 7.755,14.9232 C7.708,14.9512 7.656,14.9602 7.603,14.9722 C7.568,14.9802 7.535,14.9972 7.5,14.9972 C7.465,14.9972 7.432,14.9802 7.397,14.9722 C7.344,14.9602 7.292,14.9512 7.245,14.9232 C7.238,14.9192 7.23,14.9212 7.223,14.9162 C6.307,14.3052 5.237,14.0002 4,14.0002 C2.763,14.0002 1.693,14.3052 0.777,14.9162 Z M6,10.4999 C6,10.2239 5.776,9.9999 5.5,9.9999 L2.5,9.9999 C2.224,9.9999 2,10.2239 2,10.4999 C2,10.7759 2.224,10.9999 2.5,10.9999 L5.5,10.9999 C5.776,10.9999 6,10.7759 6,10.4999 Z M2.5,7.9999 L5.5,7.9999 C5.776,7.9999 6,7.7759 6,7.4999 C6,7.2239 5.776,6.9999 5.5,6.9999 L2.5,6.9999 C2.224,6.9999 2,7.2239 2,7.4999 C2,7.7759 2.224,7.9999 2.5,7.9999 Z M2.5,4.9999 L5.5,4.9999 C5.776,4.9999 6,4.7759 6,4.4999 C6,4.2239 5.776,3.9999 5.5,3.9999 L2.5,3.9999 C2.224,3.9999 2,4.2239 2,4.4999 C2,4.7759 2.224,4.9999 2.5,4.9999 Z M9.5,7.9999 L12.5,7.9999 C12.776,7.9999 13,7.7759 13,7.4999 C13,7.2239 12.776,6.9999 12.5,6.9999 L9.5,6.9999 C9.224,6.9999 9,7.2239 9,7.4999 C9,7.7759 9.224,7.9999 9.5,7.9999 Z M9.5,10.9999 L12.5,10.9999 C12.776,10.9999 13,10.7759 13,10.4999 C13,10.2239 12.776,9.9999 12.5,9.9999 L9.5,9.9999 C9.224,9.9999 9,10.2239 9,10.4999 C9,10.7759 9.224,10.9999 9.5,10.9999 Z M9.5,4.9999 L12.5,4.9999 C12.776,4.9999 13,4.7759 13,4.4999 C13,4.2239 12.776,3.9999 12.5,3.9999 L9.5,3.9999 C9.224,3.9999 9,4.2239 9,4.4999 C9,4.7759 9.224,4.9999 9.5,4.9999 Z" id="shape"></path>
        </g>
    </g>
</svg>