<?xml version="1.0" encoding="UTF-8"?>
<svg width="16px" height="16px" viewBox="0 0 16 16" version="1.1" xmlns="http://www.w3.org/2000/svg" xmlns:xlink="http://www.w3.org/1999/xlink">
    <!-- Generator: Sketch 48.2 (47327) - http://www.bohemiancoding.com/sketch -->
    <title>bookmark-solid</title>
    <desc>Created with Sketch.</desc>
    <defs></defs>
    <g id="16px-solid" stroke="none" stroke-width="1" fill="none" fill-rule="evenodd" transform="translate(-384.000000, -384.000000)">
        <g id="bookmark-solid" transform="translate(384.000000, 384.000000)" fill="#000000">
            <path d="M3,0 C1.896,0 1,0.896 1,2 L1,13.5 C1,14.88 2.119,16 3.5,16 L10.5,16 C11.725,16 12.743,15.12 12.958,13.958 C14.12,13.743 15,12.724 15,11.5 L15,2.5 C15,1.12 13.881,0 12.5,0 L3,0 Z M3,1 L12.5,1 C13.328,1 14,1.671 14,2.5 L14,11.5 C14,12.154 13.583,12.708 13,12.914 L13,4.5 C13,3.12 11.881,2 10.5,2 L2,2 C2,1.448 2.447,1 3,1 Z M3,8.5 L3,3 L8,3 L8,8.5 C8,8.912 7.53,9.147 7.2,8.9 L5.5,7.625 L3.8,8.9 C3.707,8.97 3.604,9.001 3.502,9.001 C3.243,9.001 3,8.796 3,8.5 Z" id="shape"></path>
        </g>
    </g>
</svg>