<?xml version="1.0" encoding="UTF-8"?>
<svg width="16px" height="16px" viewBox="0 0 16 16" version="1.1" xmlns="http://www.w3.org/2000/svg" xmlns:xlink="http://www.w3.org/1999/xlink">
    <!-- Generator: Sketch 48.2 (47327) - http://www.bohemiancoding.com/sketch -->
    <title>briefcase-solid</title>
    <desc>Created with Sketch.</desc>
    <defs></defs>
    <g id="16px-solid" stroke="none" stroke-width="1" fill="none" fill-rule="evenodd" transform="translate(-48.000000, -240.000000)">
        <g id="briefcase-solid" transform="translate(48.000000, 240.000000)" fill="#000000">
            <path d="M5.5,1 C5.311,1 5.138,1.107 5.052,1.276 L4.191,3 L0.5,3 C0.224,3 0,3.224 0,3.5 L0,6.807 L0.637,7.019 C2.925,7.673 5.379,8 8,8 C10.622,8 13.075,7.673 15.342,7.026 L15.9315795,6.82977217 C15.9724359,6.81617408 16,6.77794925 16,6.73488943 L16,3.5 C16,3.224 15.777,3 15.5,3 L11.809,3 L10.947,1.276 C10.863,1.107 10.69,1 10.5,1 L5.5,1 Z M5.809,2 L10.191,2 L10.691,3 L5.309,3 L5.809,2 Z M6,6.5 C6,6.223 6.223,6 6.5,6 L9.5,6 C9.776,6 10,6.223 10,6.5 C10,6.776 9.776,7 9.5,7 L6.5,7 C6.223,7 6,6.776 6,6.5 Z M15.637,7.981 C13.258,8.661 10.712,9 8,9 C5.288,9 2.742,8.661 0.342,7.974 L0,7.861 L0,11.5 C0,13.433 1.567,15 3.5,15 L12.5,15 C14.433,15 16,13.433 16,11.5 L16,7.86 L15.637,7.981 Z" id="shape"></path>
        </g>
    </g>
</svg>