<?xml version="1.0" encoding="UTF-8"?>
<svg width="16px" height="16px" viewBox="0 0 16 16" version="1.1" xmlns="http://www.w3.org/2000/svg" xmlns:xlink="http://www.w3.org/1999/xlink">
    <!-- Generator: Sketch 48.2 (47327) - http://www.bohemiancoding.com/sketch -->
    <title>browser-windows-solid</title>
    <desc>Created with Sketch.</desc>
    <defs></defs>
    <g id="16px-solid" stroke="none" stroke-width="1" fill="none" fill-rule="evenodd" transform="translate(-144.000000, -48.000000)">
        <g id="browser-windows-solid" transform="translate(144.000000, 48.000000)" fill="#000000">
            <path d="M1,5 L12,5 C12.5522847,5 13,5.44771525 13,6 L13,15 L2.5,15 C1.671,15 1,14.329 1,13.5 L1,5 Z M0,13.5 C0,14.881 1.119,16 2.5,16 L13.5,16 C13.776,16 14,15.776 14,15.5 L14,4 C14,2.8954305 13.1045695,2 12,2 L0.5,2 C0.224,2 0,2.224 0,2.5 L0,13.5 Z M13,1.77635684e-15 L5.5,1.77635684e-15 C4,1.77635684e-15 3.5,0.5 3,1 L12.8,1 C14.0150264,1 15,1.98497355 15,3.2 L15,13 C15.5,12.5 16,12 16,10.5 L16,3 C16,1.34314575 14.6568542,1.47199765e-15 13,1.77635684e-15 Z M2,3.5 C2,3.776 2.224,4 2.5,4 C2.776,4 3,3.776 3,3.5 C3,3.224 2.776,3 2.5,3 C2.224,3 2,3.224 2,3.5 Z M4,3.5 C4,3.776 4.224,4 4.5,4 C4.776,4 5,3.776 5,3.5 C5,3.224 4.776,3 4.5,3 C4.224,3 4,3.224 4,3.5 Z M6,3.5 C6,3.776 6.224,4 6.5,4 C6.776,4 7,3.776 7,3.5 C7,3.224 6.776,3 6.5,3 C6.224,3 6,3.224 6,3.5 Z" id="shape"></path>
        </g>
    </g>
</svg>