<?xml version="1.0" encoding="UTF-8"?>
<svg width="16px" height="16px" viewBox="0 0 16 16" version="1.1" xmlns="http://www.w3.org/2000/svg" xmlns:xlink="http://www.w3.org/1999/xlink">
    <!-- Generator: Sketch 48.2 (47327) - http://www.bohemiancoding.com/sketch -->
    <title>browser-tab-solid</title>
    <desc>Created with Sketch.</desc>
    <defs></defs>
    <g id="16px-solid" stroke="none" stroke-width="1" fill="none" fill-rule="evenodd" transform="translate(-192.000000, -336.000000)">
        <g id="browser-tab-solid" transform="translate(192.000000, 336.000000)" fill="#000000" fill-rule="nonzero">
            <path d="M2.5,4 L12,4 L12,13.5 C12,14.8807119 10.8807119,16 9.5,16 L0,16 L0,6.5 C-1.38777878e-16,5.11928813 1.11928813,4 2.5,4 Z M15,1 L6.5,1 C5.67157288,1 5,1.67157288 5,2.5 L5,3 L4,3 L4,2.5 C4,1.11928813 5.11928813,2.77555756e-16 6.5,0 L16,0 L16,9.5 C16,10.8807119 14.8807119,12 13.5,12 L13,12 L13,11 L13.5,11 C14.3284271,11 15,10.3284271 15,9.5 L15,1 Z" id="shape"></path>
        </g>
    </g>
</svg>