<?xml version="1.0" encoding="UTF-8"?>
<svg width="16px" height="16px" viewBox="0 0 16 16" version="1.1" xmlns="http://www.w3.org/2000/svg" xmlns:xlink="http://www.w3.org/1999/xlink">
    <!-- Generator: Sketch 48.2 (47327) - http://www.bohemiancoding.com/sketch -->
    <title>brush-solid</title>
    <desc>Created with Sketch.</desc>
    <defs></defs>
    <g id="16px-solid" stroke="none" stroke-width="1" fill="none" fill-rule="evenodd" transform="translate(-144.000000, -144.000000)">
        <g id="brush-solid" transform="translate(144.000000, 144.000000)" fill="#000000" fill-rule="nonzero">
            <path d="M15.5446197,2.66421356 L8.32200251,9.91421356 C8.12747786,10.1094757 7.81209108,10.1094757 7.61756643,9.91421356 L6.12323184,8.41421356 C5.92870719,8.21895142 5.92870719,7.90236893 6.12323184,7.70710678 L13.345849,0.457106781 C13.9530228,-0.152368927 14.9374459,-0.152368927 15.5446197,0.457106781 C16.1517934,1.06658249 16.1517934,2.05473785 15.5446197,2.66421356 Z M0.51501626,16 C0.104365626,16 -0.140571847,15.5405701 0.0872161401,15.1975741 C0.714810941,14.2525616 1.02916802,13.1480806 1.02916802,11.8709677 C1.02916802,10.1606666 2.41032951,8.77419355 4.11407855,8.77419355 C5.81782759,8.77419355 7.19898909,10.1606666 7.19898909,11.8709677 C7.19898909,14.6389932 4.87477283,16 0.51501626,16 Z" id="shape"></path>
        </g>
    </g>
</svg>