<?xml version="1.0" encoding="UTF-8"?>
<svg width="16px" height="16px" viewBox="0 0 16 16" version="1.1" xmlns="http://www.w3.org/2000/svg" xmlns:xlink="http://www.w3.org/1999/xlink">
    <!-- Generator: Sketch 48.2 (47327) - http://www.bohemiancoding.com/sketch -->
    <title>building-solid</title>
    <desc>Created with Sketch.</desc>
    <defs></defs>
    <g id="16px-solid" stroke="none" stroke-width="1" fill="none" fill-rule="evenodd" transform="translate(-432.000000, -384.000000)">
        <g id="building-solid" transform="translate(432.000000, 384.000000)" fill="#000000" fill-rule="nonzero">
            <path d="M1,15.0005385 L1,3.50053854 C1,3.30052448 1.11919843,3.11975542 1.30304035,3.04096602 L8.30304035,0.040966023 C8.63297456,-0.100434353 9,0.141580811 9,0.500538538 L9,4.14015893 L14.6581139,6.02619689 C14.862285,6.09425391 15,6.28532333 15,6.50053854 L15,15.0005385 L15.5,15.0005385 C15.7761424,15.0005385 16,15.2243962 16,15.5005385 C16,15.7766809 15.7761424,16.0005385 15.5,16.0005385 L0.5,16.0005385 C0.223857625,16.0005385 0,15.7766809 0,15.5005385 C0,15.2243962 0.223857625,15.0005385 0.5,15.0005385 L1,15.0005385 Z M3.5,6.00053854 L6.5,6.00053854 C6.77614237,6.00053854 7,5.77668091 7,5.50053854 C7,5.22439616 6.77614237,5.00053854 6.5,5.00053854 L3.5,5.00053854 C3.22385763,5.00053854 3,5.22439616 3,5.50053854 C3,5.77668091 3.22385763,6.00053854 3.5,6.00053854 Z M3.5,9.00053854 L6.5,9.00053854 C6.77614237,9.00053854 7,8.77668091 7,8.50053854 C7,8.22439616 6.77614237,8.00053854 6.5,8.00053854 L3.5,8.00053854 C3.22385763,8.00053854 3,8.22439616 3,8.50053854 C3,8.77668091 3.22385763,9.00053854 3.5,9.00053854 Z M3.5,12.0005385 L6.5,12.0005385 C6.77614237,12.0005385 7,11.7766809 7,11.5005385 C7,11.2243962 6.77614237,11.0005385 6.5,11.0005385 L3.5,11.0005385 C3.22385763,11.0005385 3,11.2243962 3,11.5005385 C3,11.7766809 3.22385763,12.0005385 3.5,12.0005385 Z M9.5,12.0005385 L12.5,12.0005385 C12.7761424,12.0005385 13,11.7766809 13,11.5005385 C13,11.2243962 12.7761424,11.0005385 12.5,11.0005385 L9.5,11.0005385 C9.22385763,11.0005385 9,11.2243962 9,11.5005385 C9,11.7766809 9.22385763,12.0005385 9.5,12.0005385 Z M9.5,9.00053854 L12.5,9.00053854 C12.7761424,9.00053854 13,8.77668091 13,8.50053854 C13,8.22439616 12.7761424,8.00053854 12.5,8.00053854 L9.5,8.00053854 C9.22385763,8.00053854 9,8.22439616 9,8.50053854 C9,8.77668091 9.22385763,9.00053854 9.5,9.00053854 Z" id="shape"></path>
        </g>
    </g>
</svg>