<svg xmlns="http://www.w3.org/2000/svg" width="64" height="64" viewBox="0 0 64 64"><path d="M61.9 5.1h-7.7c-1.2 0-2.2 1-2.2 2.1v2.7L12.1 26v-1.1c0-1.7-1.4-3.1-3.2-3.1H3.2c-1.8 0-3.2 1.4-3.2 3.1v18.8c0 1.7 1.4 3.1 3.2 3.1h5.7c1.8 0 3.2-1.4 3.2-3.1v-1.3l4.1.8c-.1.7-.2 1.3-.2 2C16 52.8 22.2 59 29.9 59c6.6 0 12.1-4.5 13.5-10.7l8.6 2.3v2.6c0 1.1 1 2.1 2.1 2.1h7.7c1.2 0 2.1-.9 2.1-2.1v-46c.1-1.1-.9-2.1-2-2.1zM30 54.9c-5.5 0-9.9-4.4-9.9-9.8 0-.4.1-.8.2-1.2l19.4 3.6c-1.2 4.2-5.1 7.4-9.7 7.4zM8.1 37.6v5.2H4v-17h4.1v5.9l48-19.1V9.1h4v42h-4V47l-48-9.4z"/></svg>