<?xml version="1.0" encoding="UTF-8"?>
<svg width="16px" height="16px" viewBox="0 0 16 16" version="1.1" xmlns="http://www.w3.org/2000/svg" xmlns:xlink="http://www.w3.org/1999/xlink">
    <!-- Generator: Sketch 48.2 (47327) - http://www.bohemiancoding.com/sketch -->
    <title>calendar-solid</title>
    <desc>Created with Sketch.</desc>
    <defs></defs>
    <g id="16px-solid" stroke="none" stroke-width="1" fill="none" fill-rule="evenodd" transform="translate(-288.000000, -336.000000)">
        <g id="calendar-solid" transform="translate(288.000000, 336.000000)" fill="#000000">
            <path d="M11,1 L6,1 L6,0.5 C6,0.223 5.776,0 5.5,0 C5.224,0 5,0.223 5,0.5 L5,1 L3.5,1 C2.12,1 1,2.119 1,3.5 L1,13.5 C1,14.881 2.12,16 3.5,16 L13.5,16 C14.881,16 16,14.881 16,13.5 L16,5 L16,3.5 C16,2.119 14.881,1 13.5,1 L12,1 L12,0.5 C12,0.223 11.776,0 11.5,0 C11.224,0 11,0.223 11,0.5 L11,1 Z M2,13.5 L2,5 L15,5 L15,13.5 C15,14.328 14.329,15 13.5,15 L3.5,15 C2.671,15 2,14.328 2,13.5 Z M7.5,7 C7.223,7 7,7.224 7,7.5 C7,7.776 7.223,8 7.5,8 L8,8 L8,11.5 C8,11.777 8.223,12 8.5,12 C8.777,12 9,11.777 9,11.5 L9,7.5 C9,7.224 8.777,7 8.5,7 L7.5,7 Z" id="shape"></path>
        </g>
    </g>
</svg>