<?xml version="1.0" encoding="UTF-8"?>
<svg width="16px" height="16px" viewBox="0 0 16 16" version="1.1" xmlns="http://www.w3.org/2000/svg" xmlns:xlink="http://www.w3.org/1999/xlink">
    <!-- Generator: Sketch 48.2 (47327) - http://www.bohemiancoding.com/sketch -->
    <title>camera-retro-solid</title>
    <desc>Created with Sketch.</desc>
    <defs></defs>
    <g id="16px-solid" stroke="none" stroke-width="1" fill="none" fill-rule="evenodd" transform="translate(-288.000000, -48.000000)">
        <g id="camera-retro-solid" transform="translate(288.000000, 48.000000)" fill="#000000" fill-rule="nonzero">
            <path d="M8.70710678,2 L14.5,2 C15.3284271,2 16,2.67157288 16,3.5 L16,11.5 C16,13.4329966 14.4329966,15 12.5,15 L3.5,15 C1.56700338,15 2.59052039e-16,13.4329966 0,11.5 L2.22044605e-16,3.5 C5.55111512e-17,2.67157288 0.671572875,2 1.5,2 L2.29289322,2 L3.14644661,1.14644661 C3.2402148,1.05267842 3.36739176,1 3.5,1 L7.5,1 C7.63260824,1 7.7597852,1.05267842 7.85355339,1.14644661 L8.70710678,2 Z M12,5.5 L12,11.5 C12,11.7761424 12.2238576,12 12.5,12 C12.7761424,12 13,11.7761424 13,11.5 L13,5.5 C13,5.22385763 12.7761424,5 12.5,5 C12.2238576,5 12,5.22385763 12,5.5 Z M5.5,12 C7.43299662,12 9,10.4329966 9,8.5 C9,6.56700338 7.43299662,5 5.5,5 C3.56700338,5 2,6.56700338 2,8.5 C2,10.4329966 3.56700338,12 5.5,12 Z M5.5,11 C6.88071187,11 8,9.88071187 8,8.5 C8,7.11928813 6.88071187,6 5.5,6 C4.11928813,6 3,7.11928813 3,8.5 C3,9.88071187 4.11928813,11 5.5,11 Z" id="shape"></path>
        </g>
    </g>
</svg>