<?xml version="1.0" encoding="UTF-8"?>
<svg width="16px" height="16px" viewBox="0 0 16 16" version="1.1" xmlns="http://www.w3.org/2000/svg" xmlns:xlink="http://www.w3.org/1999/xlink">
    <!-- Generator: Sketch 48.2 (47327) - http://www.bohemiancoding.com/sketch -->
    <title>camera-solid</title>
    <desc>Created with Sketch.</desc>
    <defs></defs>
    <g id="16px-solid" stroke="none" stroke-width="1" fill="none" fill-rule="evenodd" transform="translate(-240.000000, -48.000000)">
        <g id="camera-solid" transform="translate(240.000000, 48.000000)" fill="#000000">
            <path d="M12.5,15 C14.433,15 16,13.433 16,11.5 L16,4.5 C16,3.671 15.329,3 14.5,3 L11.809,3 L10.947,1.276 C10.862,1.107 10.689,1 10.5,1 L5.5,1 C5.311,1 5.138,1.107 5.053,1.276 L4.191,3 L1.5,3 C0.671,3 0,3.671 0,4.5 L0,11.5 C0,13.433 1.567,15 3.5,15 L12.5,15 Z M8,6 C9.657,6 11,7.343 11,9 C11,10.657 9.657,12 8,12 C6.343,12 5,10.657 5,9 C5,7.343 6.343,6 8,6 M8,13 C10.209,13 12,11.209 12,9 C12,6.791 10.209,5 8,5 C5.791,5 4,6.791 4,9 C4,11.209 5.791,13 8,13" id="shape"></path>
        </g>
    </g>
</svg>