<svg xmlns="http://www.w3.org/2000/svg" width="64" height="64" viewBox="0 0 64 64"><path d="M59.6 7.5l-3.1-3.1c-5.9-5.9-15.5-5.9-21.4 0L33.5 6l6.1 6.1 1.5-1.5c2.5-2.5 6.6-2.5 9.2 0l3.1 3.1c2.5 2.5 2.5 6.7 0 9.2L41.2 35.1c-2.5 2.5-6.6 2.5-9.2 0l-1.5-1.5-6.1 6.1 1.5 1.5c5.9 5.9 15.5 5.9 21.4 0L59.5 29c6-6 6-15.6.1-21.5zM22.8 53.4c-2.5 2.5-6.7 2.5-9.2 0l-3.1-3.1c-2.5-2.5-2.5-6.6 0-9.2l12.2-12.2c2.5-2.5 6.6-2.5 9.2 0l1.5 1.5 6.1-6.1-1.5-1.5c-5.9-5.9-15.5-5.9-21.4 0L4.4 35.1c-5.9 5.9-5.9 15.5 0 21.4l3.1 3.1c5.9 5.9 15.5 5.9 21.4 0l1.5-1.5-6.1-6.1-1.5 1.4z" fill-rule="evenodd" clip-rule="evenodd"/></svg>