<svg xmlns="http://www.w3.org/2000/svg" width="64" height="64" viewBox="0 0 64 64"><path d="M63.4 15.4L35.5 43.1c0 .1 0 .1-.1.2-.4.4-.9.6-1.4.6-.5 0-1.1-.1-1.5-.6-.1-.1 0-.1-.1-.2L20.6 31.4c-.8-.8-.8-2 0-2.8.8-.8 2-.8 2.8 0L34 39.1l26.7-26.5c.8-.8 2-.8 2.8 0 .7.7.7 2-.1 2.8zM32 4C16.5 4 4 16.5 4 32s12.5 28 28 28 28-12.5 28-28c0-.6-.1-1.2-.2-1.8l3.7-3.6c.3 1.7.5 3.5.5 5.3 0 17.7-14.3 32-32 32C14.3 64 0 49.7 0 32S14.3 0 32 0c8.1 0 15.5 3 21.1 8l-2.9 2.9C45.3 6.6 39 4 32 4z" fill-rule="evenodd" clip-rule="evenodd"/></svg>