<?xml version="1.0" encoding="UTF-8"?>
<svg width="16px" height="16px" viewBox="0 0 16 16" version="1.1" xmlns="http://www.w3.org/2000/svg" xmlns:xlink="http://www.w3.org/1999/xlink">
    <!-- Generator: Sketch 48.2 (47327) - http://www.bohemiancoding.com/sketch -->
    <title>chevron-circle-left-solid</title>
    <desc>Created with Sketch.</desc>
    <defs></defs>
    <g id="16px-solid" stroke="none" stroke-width="1" fill="none" fill-rule="evenodd" transform="translate(-96.000000, -688.000000)">
        <g id="chevron-circle-left-solid" transform="translate(96.000000, 688.000000)" fill="#000000" fill-rule="nonzero">
            <path d="M8,16 C3.581722,16 0,12.418278 0,8 C0,3.581722 3.581722,0 8,0 C12.418278,0 16,3.581722 16,8 C16,12.418278 12.418278,16 8,16 Z M10.8796283,11.1746043 L8.15853889,8 L10.8796283,4.82539569 C11.1576312,4.50105903 10.9271766,4 10.5,4 L7.5,4 C7.35403756,4 7.2153628,4.06378136 7.1203717,4.17460431 L4.1203717,7.67460431 C3.9598761,7.86184918 3.9598761,8.13815082 4.1203717,8.32539569 L7.1203717,11.8253957 C7.2153628,11.9362186 7.35403756,12 7.5,12 L10.5,12 C10.9271766,12 11.1576312,11.498941 10.8796283,11.1746043 Z" id="shape"></path>
        </g>
    </g>
</svg>