<?xml version="1.0" encoding="UTF-8"?>
<svg width="16px" height="16px" viewBox="0 0 16 16" version="1.1" xmlns="http://www.w3.org/2000/svg" xmlns:xlink="http://www.w3.org/1999/xlink">
    <!-- Generator: Sketch 48.2 (47327) - http://www.bohemiancoding.com/sketch -->
    <title>chevron-circle-right-solid</title>
    <desc>Created with Sketch.</desc>
    <defs></defs>
    <g id="16px-solid" stroke="none" stroke-width="1" fill="none" fill-rule="evenodd" transform="translate(-96.000000, -784.000000)">
        <g id="chevron-circle-right-solid" transform="translate(96.000000, 784.000000)" fill="#000000" fill-rule="nonzero">
            <path d="M8,16 C3.581722,16 0,12.418278 0,8 C0,3.581722 3.581722,0 8,0 C12.418278,0 16,3.581722 16,8 C16,12.418278 12.418278,16 8,16 Z M7.84146111,8 L5.1203717,11.1746043 C4.84236885,11.498941 5.07282339,12 5.5,12 L8.5,12 C8.64596244,12 8.7846372,11.9362186 8.8796283,11.8253957 L11.8796283,8.32539569 C12.0401239,8.13815082 12.0401239,7.86184918 11.8796283,7.67460431 L8.8796283,4.17460431 C8.7846372,4.06378136 8.64596244,4 8.5,4 L5.5,4 C5.07282339,4 4.84236885,4.50105903 5.1203717,4.82539569 L7.84146111,8 Z" id="shape"></path>
        </g>
    </g>
</svg>