<?xml version="1.0" encoding="UTF-8"?>
<svg width="16px" height="16px" viewBox="0 0 16 16" version="1.1" xmlns="http://www.w3.org/2000/svg" xmlns:xlink="http://www.w3.org/1999/xlink">
    <!-- Generator: Sketch 48.2 (47327) - http://www.bohemiancoding.com/sketch -->
    <title>clock-solid</title>
    <desc>Created with Sketch.</desc>
    <defs></defs>
    <g id="16px-solid" stroke="none" stroke-width="1" fill="none" fill-rule="evenodd" transform="translate(-288.000000, -144.000000)">
        <g id="clock-solid" transform="translate(288.000000, 144.000000)" fill="#000000" fill-rule="nonzero">
            <path d="M8,16 C3.581722,16 0,12.418278 0,8 C0,3.581722 3.581722,0 8,0 C12.418278,0 16,3.581722 16,8 C16,12.418278 12.418278,16 8,16 Z M8,9 L8,3.5 C8,3.22385763 7.77614237,3 7.5,3 C7.22385763,3 7,3.22385763 7,3.5 L7,9.5 C7,9.77614237 7.22385763,10 7.5,10 L11.5,10 C11.7761424,10 12,9.77614237 12,9.5 C12,9.22385763 11.7761424,9 11.5,9 L8,9 Z" id="shape"></path>
        </g>
    </g>
</svg>