<?xml version="1.0" encoding="UTF-8"?>
<svg width="16px" height="16px" viewBox="0 0 16 16" version="1.1" xmlns="http://www.w3.org/2000/svg" xmlns:xlink="http://www.w3.org/1999/xlink">
    <!-- Generator: Sketch 48.2 (47327) - http://www.bohemiancoding.com/sketch -->
    <title>close-circle-solid</title>
    <desc>Created with Sketch.</desc>
    <defs></defs>
    <g id="16px-solid" stroke="none" stroke-width="1" fill="none" fill-rule="evenodd" transform="translate(-384.000000, -898.000000)">
        <g id="close-circle-solid" transform="translate(384.000000, 898.000000)" fill="#000000">
            <path d="M8,7.29289322 L5.85355339,5.14644661 C5.65829124,4.95118446 5.34170876,4.95118446 5.14644661,5.14644661 C4.95118446,5.34170876 4.95118446,5.65829124 5.14644661,5.85355339 L7.29289322,8 L5.14644661,10.1464466 C4.95118446,10.3417088 4.95118446,10.6582912 5.14644661,10.8535534 C5.34170876,11.0488155 5.65829124,11.0488155 5.85355339,10.8535534 L8,8.70710678 L10.1464466,10.8535534 C10.3417088,11.0488155 10.6582912,11.0488155 10.8535534,10.8535534 C11.0488155,10.6582912 11.0488155,10.3417088 10.8535534,10.1464466 L8.70710678,8 L10.8535534,5.85355339 C11.0488155,5.65829124 11.0488155,5.34170876 10.8535534,5.14644661 C10.6582912,4.95118446 10.3417088,4.95118446 10.1464466,5.14644661 L8,7.29289322 Z M8,16 C3.581722,16 0,12.418278 0,8 C0,3.581722 3.581722,0 8,0 C12.418278,0 16,3.581722 16,8 C16,12.418278 12.418278,16 8,16 Z" id="shape"></path>
        </g>
    </g>
</svg>