<svg xmlns="http://www.w3.org/2000/svg" width="64" height="64" viewBox="0 0 64 64"><path d="M18.9 17.1c-1.5-1.5-3.9-1.5-5.4 0L2.2 28.4c-.4.2-.7.4-1.1.7C.3 29.9 0 31 0 32s.3 2.1 1.1 2.8c.3.3.7.5 1 .7l11.3 11.4c1.5 1.5 3.9 1.5 5.4 0 1.5-1.5 1.5-3.9 0-5.4L9.4 32l9.5-9.5c1.5-1.5 1.5-3.9 0-5.4zm44 12.1c-.3-.3-.6-.5-1-.7l-11-11.1c-1.4-1.5-3.8-1.5-5.2 0-1.4 1.5-1.4 3.8 0 5.3l9.2 9.4-9.2 9.4c-1.4 1.5-1.4 3.8 0 5.3s3.8 1.5 5.2 0l11-11.2c.4-.2.7-.4 1-.7C63.7 34 64 33 64 32s-.3-2-1.1-2.8z" fill-rule="evenodd" clip-rule="evenodd"/></svg>