<svg xmlns="http://www.w3.org/2000/svg" width="64" height="64" viewBox="0 0 64 64"><path d="M62 28h-6.3c-.6-3.6-2.1-7-4.1-9.9l4.5-4.5c.8-.8.8-2 0-2.8L53.2 8c-.8-.8-2-.8-2.8 0l-4.5 4.5C43 10.4 39.6 9 36 8.3V2c0-1.1-.9-2-2-2h-4c-1.1 0-2 .9-2 2v6.3c-3.6.6-7 2.1-9.9 4.1L13.6 8c-.8-.8-2-.8-2.8 0L8 10.8c-.8.8-.8 2 0 2.8l4.5 4.5C10.4 21 9 24.4 8.3 28H2c-1.1 0-2 .9-2 2v4c0 1.1.9 2 2 2h6.3c.6 3.6 2.1 7 4.1 9.9L8 50.4c-.8.8-.8 2 0 2.8l2.8 2.8c.8.8 2 .8 2.8 0l4.5-4.5c2.9 2.1 6.2 3.5 9.9 4.1V62c0 1.1.9 2 2 2h4c1.1 0 2-.9 2-2v-6.3c3.6-.6 7-2.1 9.9-4.1l4.5 4.5c.8.8 2 .8 2.8 0l2.8-2.8c.8-.8.8-2 0-2.8L51.5 46c2.1-2.9 3.5-6.2 4.1-9.9H62c1.1 0 2-.9 2-2v-4c0-1.2-.9-2.1-2-2.1zM32 44c-6.6 0-12-5.4-12-12s5.4-12 12-12 12 5.4 12 12-5.4 12-12 12z" fill-rule="evenodd" clip-rule="evenodd"/></svg>