<svg xmlns="http://www.w3.org/2000/svg" width="16" height="16" viewBox="0 0 16 16">
  <path d="M11.427083,7.67187484 C11.6701392,7.89062516 11.9496526,8 12.2656252,8 C12.5815971,8 12.8550345,7.89062516 13.0859374,7.67187484 C13.3168404,7.45312516 13.4322918,7.17361111 13.4322918,6.83333333 C13.4322918,6.49305556 13.3168404,6.21354151 13.0859374,5.99479182 C12.8550345,5.77604151 12.5815971,5.66666667 12.2656252,5.66666667 C11.9496526,5.66666667 11.6762152,5.77604151 11.4453123,5.99479182 C11.21441,6.21354151 11.0989585,6.49305556 11.0989585,6.83333333 C11.0989585,7.17361111 11.2083333,7.45312516 11.427083,7.67187484 Z M9.09374969,4.57291698 C9.33680587,4.79166667 9.61631929,4.90104151 9.93229182,4.90104151 C10.2482637,4.90104151 10.5217012,4.78559004 10.7526041,4.55468773 C10.983507,4.3237848 11.0989585,4.05034738 11.0989585,3.73437484 C11.0989585,3.41840293 10.983507,3.14496551 10.7526041,2.91406258 C10.5217012,2.68315964 10.2482637,2.56770818 9.93229182,2.56770818 C9.61631929,2.56770818 9.34288187,2.68315964 9.11197893,2.91406258 C8.88107662,3.14496551 8.76562516,3.41840293 8.76562516,3.73437484 C8.76562516,4.05034738 8.875,4.3298608 9.09374969,4.57291698 Z M5.22916667,4.57291698 C5.47222222,4.79166667 5.75173627,4.90104151 6.06770818,4.90104151 C6.38368071,4.90104151 6.65711813,4.78559004 6.88802107,4.55468773 C7.11892338,4.3237848 7.23437484,4.05034738 7.23437484,3.73437484 C7.23437484,3.41840293 7.11892338,3.14496551 6.88802107,2.91406258 C6.65711813,2.68315964 6.38368071,2.56770818 6.06770818,2.56770818 C5.75173627,2.56770818 5.47829884,2.68315964 5.24739591,2.91406258 C5.01649298,3.14496551 4.90104151,3.41840293 4.90104151,3.73437484 C4.90104151,4.05034738 5.01041636,4.3298608 5.22916667,4.57291698 Z M2.89583333,7.67187484 C3.13888889,7.89062516 3.41840293,8 3.73437484,8 C4.05034738,8 4.3237848,7.89062516 4.55468773,7.67187484 C4.78559004,7.45312516 4.90104151,7.17361111 4.90104151,6.83333333 C4.90104151,6.49305556 4.78559004,6.21354151 4.55468773,5.99479182 C4.3237848,5.77604151 4.05034738,5.66666667 3.73437484,5.66666667 C3.41840293,5.66666667 3.14496551,5.77604151 2.91406258,5.99479182 C2.68315964,6.21354151 2.56770818,6.49305556 2.56770818,6.83333333 C2.56770818,7.17361111 2.67708302,7.45312516 2.89583333,7.67187484 Z M8,1 C9.9201392,1 11.5668404,1.60763858 12.9401041,2.82291698 C14.3133678,4.03819413 15,5.50868071 15,7.23437484 C15,8.30381929 14.6171877,9.21527778 13.8515626,9.96874969 C13.0859374,10.7222222 12.1684029,11.0989585 11.0989585,11.0989585 L9.75,11.0989585 C9.40972222,11.0989585 9.13020818,11.21441 8.91145849,11.4453123 C8.69270818,11.6762152 8.58333333,11.9496526 8.58333333,12.2656252 C8.58333333,12.532986 8.68055556,12.7881941 8.875,13.0312503 C9.06944444,13.2743052 9.16666667,13.5416667 9.16666667,13.8333333 C9.16666667,14.1736111 9.05729182,14.4531252 8.83854151,14.6718748 C8.61979182,14.8906252 8.34027778,15 8,15 C6.05555556,15 4.40277778,14.3194444 3.04166667,12.9583333 C1.68055556,11.5972222 1,9.94444444 1,8 C1,6.05555556 1.68055556,4.40277778 3.04166667,3.04166667 C4.40277778,1.68055556 6.05555556,1 8,1 Z"/>
</svg>
