<?xml version="1.0" encoding="UTF-8"?>
<svg width="16px" height="16px" viewBox="0 0 16 16" version="1.1" xmlns="http://www.w3.org/2000/svg" xmlns:xlink="http://www.w3.org/1999/xlink">
    <!-- Generator: Sketch 48.2 (47327) - http://www.bohemiancoding.com/sketch -->
    <title>compass-solid</title>
    <desc>Created with Sketch.</desc>
    <defs></defs>
    <g id="16px-solid" stroke="none" stroke-width="1" fill="none" fill-rule="evenodd" transform="translate(-336.000000, -384.000000)">
        <g id="compass-solid" transform="translate(336.000000, 384.000000)" fill="#000000">
            <path d="M11.4270599,4.19553008 L6.50247906,5.8761659 C6.2081589,5.97660998 5.97732157,6.20826641 5.87792062,6.50294051 L4.22738214,11.3959618 C4.17442415,11.5529558 4.25876197,11.7231555 4.41575596,11.7761135 C4.47726368,11.7968616 4.5438418,11.7970999 4.60549647,11.7767927 L9.52297547,10.157118 C9.82312758,10.0582566 10.0588878,9.8233367 10.1588202,9.52353948 L11.8085601,4.57431973 C11.8609544,4.41713674 11.7760064,4.24724074 11.6188234,4.19484641 C11.5565489,4.17408825 11.4891848,4.17432841 11.4270599,4.19553008 Z M8,-0.0001 C3.582,-0.0001 0,3.5819 0,7.9999 C0,12.4179 3.582,15.9999 8,15.9999 C12.418,15.9999 16,12.4179 16,7.9999 C16,3.5819 12.418,-0.0001 8,-0.0001 Z M8,9 C8.55228475,9 9,8.55228475 9,8 C9,7.44771525 8.55228475,7 8,7 C7.44771525,7 7,7.44771525 7,8 C7,8.55228475 7.44771525,9 8,9 Z" id="shape"></path>
        </g>
    </g>
</svg>