<?xml version="1.0" encoding="UTF-8"?>
<svg width="16px" height="16px" viewBox="0 0 16 16" version="1.1" xmlns="http://www.w3.org/2000/svg" xmlns:xlink="http://www.w3.org/1999/xlink">
    <!-- Generator: Sketch 48.2 (47327) - http://www.bohemiancoding.com/sketch -->
    <title>diamond-solid</title>
    <desc>Created with Sketch.</desc>
    <defs></defs>
    <g id="16px-solid" stroke="none" stroke-width="1" fill="none" fill-rule="evenodd" transform="translate(-432.000000, -240.000000)">
        <g id="diamond-solid" transform="translate(432.000000, 240.000000)" fill="#000000">
            <path d="M15.8142,4.6851 C15.9472,4.9271 16.0012,5.1951 15.9912,5.4601 C15.9922,5.4741 16.0002,5.4861 15.9952,5.5211 C15.9932,5.5491 15.9812,5.5741 15.9782,5.6011 C15.9712,5.6331 15.9712,5.6671 15.9572,5.6961 C15.9132,5.9191 15.8332,6.1361 15.6882,6.3231 L8.3952,15.8051 C8.1952,16.0651 7.8052,16.0651 7.6042,15.8051 L0.3112,6.3231 C0.1672,6.1361 0.0872,5.9191 0.0432,5.6961 C0.0292,5.6671 0.0292,5.6331 0.0212,5.6011 C0.0182,5.5741 0.0072,5.5491 0.0052,5.5211 C0.0042,5.5131 0.0002,5.5081 0.0092,5.4601 C-0.0008,5.1951 0.0532,4.9271 0.1852,4.6851 L1.7832,1.7771 C2.0472,1.2981 2.5502,1.0001 3.0962,1.0001 L12.9032,1.0001 C13.4502,1.0001 13.9532,1.2981 14.2172,1.7771 L15.8142,4.6851 Z M3.5,6 L12.5,6 C12.7761424,6 13,5.77614237 13,5.5 C13,5.22385763 12.7761424,5 12.5,5 L3.5,5 C3.22385763,5 3,5.22385763 3,5.5 C3,5.77614237 3.22385763,6 3.5,6 Z" id="shape"></path>
        </g>
    </g>
</svg>