<?xml version="1.0" encoding="UTF-8"?>
<svg width="16px" height="16px" viewBox="0 0 16 16" version="1.1" xmlns="http://www.w3.org/2000/svg" xmlns:xlink="http://www.w3.org/1999/xlink">
    <!-- Generator: Sketch 48.2 (47327) - http://www.bohemiancoding.com/sketch -->
    <title>drawer-solid</title>
    <desc>Created with Sketch.</desc>
    <defs></defs>
    <g id="16px-solid" stroke="none" stroke-width="1" fill="none" fill-rule="evenodd" transform="translate(-192.000000, -192.000000)">
        <g id="drawer-solid" transform="translate(192.000000, 192.000000)" fill="#000000">
            <path d="M11.5,7.9999 L4.5,7.9999 C4.224,7.9999 4,8.2239 4,8.4999 C4,8.7759 4.224,8.9999 4.5,8.9999 L11.5,8.9999 C11.776,8.9999 12,8.7759 12,8.4999 C12,8.2239 11.776,7.9999 11.5,7.9999 M0.5005,4.9999 L15.0005,4.9999 L15.5005,4.9999 C15.7955,4.9999 16.0265,5.2549 15.9975,5.5499 L15.2675,12.8489 C15.0885,14.6379 13.5835,15.9999 11.7855,15.9999 L4.2145,15.9999 C2.4175,15.9999 0.9115,14.6379 0.7325,12.8489 L0.0025,5.5499 C-0.0265,5.2549 0.2045,4.9999 0.5005,4.9999 Z M1.49993013,1 L4.5,1 C4.63000488,1 4.75999451,1.05000305 4.8500061,1.1499939 L6.71000671,3 L14.5,3 C14.7761424,3 15,3.22385763 15,3.5 L15,3.50001164 C15,3.77615402 14.7761424,4.00001164 14.5,4.00001164 L1.49993013,4.00001164 C1.22378776,4.00001164 0.999930135,3.77615402 0.999930135,3.50001164 L0.999930135,1.5 C0.999930135,1.22385763 1.22378776,1 1.49993013,1 Z" id="shape"></path>
        </g>
    </g>
</svg>