<?xml version="1.0" encoding="UTF-8"?>
<svg width="16px" height="16px" viewBox="0 0 16 16" version="1.1" xmlns="http://www.w3.org/2000/svg" xmlns:xlink="http://www.w3.org/1999/xlink">
    <!-- Generator: Sketch 48.2 (47327) - http://www.bohemiancoding.com/sketch -->
    <title>drawer-line-solid</title>
    <desc>Created with Sketch.</desc>
    <defs></defs>
    <g id="16px-solid" stroke="none" stroke-width="1" fill="none" fill-rule="evenodd" transform="translate(-384.000000, -240.000000)">
        <g id="drawer-line-solid" transform="translate(384.000000, 240.000000)" fill="#000000">
            <path d="M11.4998852,4 C11.7758761,4 11.9998687,3.776 11.9998687,3.5 C11.9998687,3.224 11.7758761,3 11.4998852,3 L4.50011484,3 C4.2241239,3 4.00013125,3.224 4.00013125,3.5 C4.00013125,3.776 4.2241239,4 4.50011484,4 L11.4998852,4 Z M2.90116731,1 L13.0998327,1 L14.8767743,9 L11.4998852,9 C11.2238942,9 10.9999016,9.224 10.9999016,9.5 L10.9999016,11 L5.00009844,11 L5.00009844,9.5 C5.00009844,9.224 4.77610579,9 4.50011484,9 L1.12322565,9 L2.90116731,1 Z M12.8058423,16 C14.0278022,16 15.070768,15.117 15.2707614,13.911 L15.9897378,9.599 C16.0037374,9.533 16.0037374,9.463 15.9877379,9.392 L13.9878035,0.392 C13.9378052,0.163 13.7338119,0 13.4998195,0 L2.50018047,0 C2.26618815,0 2.06319481,0.163 2.01219648,0.392 L0.0122621069,9.392 C-0.00373736809,9.462 -0.00373736809,9.533 0.0102621725,9.599 L0.72923858,13.911 C0.930231985,15.117 1.97319776,16 3.1941577,16 L12.8058423,16 Z M12.4998523,6 L3.50014766,6 C3.22415671,6 3.00016406,6.224 3.00016406,6.5 C3.00016406,6.776 3.22415671,7 3.50014766,7 L12.4998523,7 C12.7758433,7 12.9998359,6.776 12.9998359,6.5 C12.9998359,6.224 12.7758433,6 12.4998523,6 Z" id="shape"></path>
        </g>
    </g>
</svg>