<?xml version="1.0" encoding="UTF-8"?>
<svg width="16px" height="16px" viewBox="0 0 16 16" version="1.1" xmlns="http://www.w3.org/2000/svg" xmlns:xlink="http://www.w3.org/1999/xlink">
    <!-- Generator: Sketch 48.2 (47327) - http://www.bohemiancoding.com/sketch -->
    <title>email-solid</title>
    <desc>Created with Sketch.</desc>
    <defs></defs>
    <g id="16px-solid" stroke="none" stroke-width="1" fill="none" fill-rule="evenodd" transform="translate(-240.000000, -144.000000)">
        <g id="email-solid" transform="translate(240.000000, 144.000000)" fill="#000000" fill-rule="nonzero">
            <path d="M2.5,2 L13.5,2 C14.8807119,2 16,3.11928813 16,4.5 L16,11.5 C16,12.8807119 14.8807119,14 13.5,14 L2.5,14 C1.11928813,14 1.38777878e-16,12.8807119 0,11.5 L0,4.5 C-1.38777878e-16,3.11928813 1.11928813,2 2.5,2 Z M13.2605739,5.06105221 L8,7.93045618 L2.73942607,5.06105221 C2.4970019,4.92882085 2.19328358,5.01814977 2.06105221,5.26057393 C1.92882085,5.5029981 2.01814977,5.80671642 2.26057393,5.93894779 L7.76057393,8.93894779 C7.90981268,9.02035074 8.09018732,9.02035074 8.23942607,8.93894779 L13.7394261,5.93894779 C13.9818502,5.80671642 14.0711792,5.5029981 13.9389478,5.26057393 C13.8067164,5.01814977 13.5029981,4.92882085 13.2605739,5.06105221 Z" id="shape"></path>
        </g>
    </g>
</svg>