<svg xmlns="http://www.w3.org/2000/svg" width="64" height="64" viewBox="0 0 64 64"><path d="M56 20V2c0-1.1-.9-2-2-2h-4c-1.1 0-2 .9-2 2v18c-2.2 0-4 1.8-4 4v8c0 2.2 1.8 4 4 4v26c0 1.1.9 2 2 2h4c1.1 0 2-.9 2-2V36c2.2 0 4-1.8 4-4v-8c0-2.2-1.8-4-4-4zM36 36V2c0-1.1-.9-2-2-2h-4c-1.1 0-2 .9-2 2v34c-2.2 0-4 1.8-4 4v8c0 2.2 1.8 4 4 4v10c0 1.1.9 2 2 2h4c1.1 0 2-.9 2-2V52c2.2 0 4-1.8 4-4v-8c0-2.2-1.8-4-4-4zM16 16V2c0-1.1-.9-2-2-2h-4C8.9 0 8 .9 8 2v14c-2.2 0-4 1.8-4 4v8c0 2.2 1.8 4 4 4v30c0 1.1.9 2 2 2h4c1.1 0 2-.9 2-2V32c2.2 0 4-1.8 4-4v-8c0-2.2-1.8-4-4-4z"/></svg>