<svg xmlns="http://www.w3.org/2000/svg" width="16" height="16" viewBox="0 0 16 16">
  <path d="M8,13 C5.05448133,13 2.38781467,11.3333333 0,8 C2.38781467,4.66666667 5.05448133,3 8,3 C10.9455187,3 13.6121853,4.66666667 16,8 C13.6121853,11.3333333 10.9455187,13 8,13 Z M8,4.5 C5.84153304,4.5 3.81459303,5.62699065 1.88503402,8 C3.81459303,10.3730094 5.84153304,11.5 8,11.5 C10.158467,11.5 12.185407,10.3730094 14.114966,8 C12.185407,5.62699065 10.158467,4.5 8,4.5 Z M8,10 C6.8954305,10 6,9.1045695 6,8 C6,6.8954305 6.8954305,6 8,6 C9.1045695,6 10,6.8954305 10,8 C10,9.1045695 9.1045695,10 8,10 Z M8,9 C8.55228475,9 9,8.55228475 9,8 C9,7.44771525 8.55228475,7 8,7 C7.44771525,7 7,7.44771525 7,8 C7,8.55228475 7.44771525,9 8,9 Z"/>
</svg>
