<?xml version="1.0" encoding="UTF-8"?>
<svg width="16px" height="16px" viewBox="0 0 16 16" version="1.1" xmlns="http://www.w3.org/2000/svg" xmlns:xlink="http://www.w3.org/1999/xlink">
    <!-- Generator: Sketch 48.2 (47327) - http://www.bohemiancoding.com/sketch -->
    <title>feather-pen-solid</title>
    <desc>Created with Sketch.</desc>
    <defs></defs>
    <g id="16px-solid" stroke="none" stroke-width="1" fill="none" fill-rule="evenodd" transform="translate(-96.000000, -48.000000)">
        <g id="feather-pen-solid" transform="translate(96.000000, 48.000000)" fill="#000000">
            <path d="M6.1466,6.8539 C6.3416,7.0489 6.6586,7.0489 6.8536,6.8539 C7.0486,6.6579 7.0486,6.3419 6.8536,6.1469 L5.0246,4.3179 C5.2216,4.0869 5.4296,3.8629 5.6466,3.6459 C8.0786,1.2139 11.3736,-0.0001 15.4996,-0.0001 C15.7946,-0.0001 16,0.207 15.9976,0.5 L15.9976,0.5 C15.9991348,0.635508398 15.9459717,0.765912637 15.8501327,0.861723767 L0.8536,15.8539 C0.6586,16.0489 0.3416,16.0489 0.1466,15.8539 C-0.0484,15.6589 -0.0484,15.3419 0.1466,15.1459 L2.0076,13.2849 C2.0296,11.2129 2.3606,9.3529 3.0026,7.7089 L4.1466,8.8539 C4.3416,9.0489 4.6586,9.0489 4.8536,8.8539 C5.0486,8.6579 5.0486,8.3419 4.8536,8.1469 L3.4346,6.7279 C3.7166,6.1599 4.0386,5.6209 4.4036,5.1109 L6.1466,6.8539 Z M15.7846,2.3219 C15.4426,4.6549 14.8916,6.5399 14.1266,7.9789 C14.0576,8.1079 13.9366,8.1999 13.7946,8.2319 C12.8376,8.4489 12.0636,8.6279 11.4736,8.7699 C11.7046,8.9999 11.9976,9.2929 12.3526,9.6449 C12.5486,9.8409 12.5496,10.1579 12.3536,10.3539 C10.2626,12.4439 7.5306,13.6299 4.1856,13.9219 L15.7846,2.3219 Z" id="shape"></path>
        </g>
    </g>
</svg>