<?xml version="1.0" encoding="UTF-8"?>
<svg width="16px" height="16px" viewBox="0 0 16 16" version="1.1" xmlns="http://www.w3.org/2000/svg" xmlns:xlink="http://www.w3.org/1999/xlink">
    <!-- Generator: Sketch 48.2 (47327) - http://www.bohemiancoding.com/sketch -->
    <title>file-text text-solid</title>
    <desc>Created with Sketch.</desc>
    <defs></defs>
    <g id="16px-solid" stroke="none" stroke-width="1" fill="none" fill-rule="evenodd" transform="translate(-144.000000, -336.000000)">
        <g id="file-texttext-solid" transform="translate(144.000000, 336.000000)" fill="#000000" fill-rule="nonzero">
            <path d="M4.5,0 L14.5,0 C14.7761424,0 15,0.223857625 15,0.5 L15,12.5 C15,14.4329966 13.4329966,16 11.5,16 L1.5,16 C1.22385763,16 1,15.7761424 1,15.5 L1,3.5 C1,1.56700338 2.56700338,3.88578059e-16 4.5,0 Z M4.5,4 L7.5,4 C7.77614237,4 8,3.77614237 8,3.5 C8,3.22385763 7.77614237,3 7.5,3 L4.5,3 C4.22385763,3 4,3.22385763 4,3.5 C4,3.77614237 4.22385763,4 4.5,4 Z M4.5,7 L9.5,7 C9.77614237,7 10,6.77614237 10,6.5 C10,6.22385763 9.77614237,6 9.5,6 L4.5,6 C4.22385763,6 4,6.22385763 4,6.5 C4,6.77614237 4.22385763,7 4.5,7 Z M4.5,10 L11.5,10 C11.7761424,10 12,9.77614237 12,9.5 C12,9.22385763 11.7761424,9 11.5,9 L4.5,9 C4.22385763,9 4,9.22385763 4,9.5 C4,9.77614237 4.22385763,10 4.5,10 Z M4.5,13 L11.5,13 C11.7761424,13 12,12.7761424 12,12.5 C12,12.2238576 11.7761424,12 11.5,12 L4.5,12 C4.22385763,12 4,12.2238576 4,12.5 C4,12.7761424 4.22385763,13 4.5,13 Z" id="shape"></path>
        </g>
    </g>
</svg>