<?xml version="1.0" encoding="UTF-8"?>
<svg width="16px" height="16px" viewBox="0 0 16 16" version="1.1" xmlns="http://www.w3.org/2000/svg" xmlns:xlink="http://www.w3.org/1999/xlink">
    <!-- Generator: Sketch 48.2 (47327) - http://www.bohemiancoding.com/sketch -->
    <title>flag-solid</title>
    <desc>Created with Sketch.</desc>
    <defs></defs>
    <g id="16px-solid" stroke="none" stroke-width="1" fill="none" fill-rule="evenodd" transform="translate(-48.000000, -384.000000)">
        <g id="flag-solid" transform="translate(48.000000, 384.000000)" fill="#000000">
            <path d="M2.4996,0.0003 C2.2236,0.0003 1.9996,0.2243 1.9996,0.5003 L1.9996,1.5003 L1.9996,8.5003 L1.9996,15.5003 C1.9996,15.7763 2.2236,16.0003 2.4996,16.0003 C2.7766,16.0003 2.9996,15.7763 2.9996,15.5003 L2.9996,9.2043 C4.2476,9.5623 5.4956,9.4143 7.8466,8.8623 C7.9806,8.8303 7.9806,8.8303 8.1136,8.7993 C10.6596,8.2053 11.9206,8.1733 13.2516,8.9343 C13.5856,9.1243 13.9996,8.8833 13.9996,8.5003 L13.9996,1.5003 C13.9996,1.3383 13.9216,1.1873 13.7906,1.0933 C12.1466,-0.0807 10.5816,-0.0807 7.8706,0.6423 C7.7396,0.6773 7.6286,0.7073 7.3996,0.7693 C5.1406,1.3843 4.0786,1.5233 2.9996,1.1513 L2.9996,0.5003 C2.9996,0.2243 2.7766,0.0003 2.4996,0.0003" id="shape"></path>
        </g>
    </g>
</svg>