<svg xmlns="http://www.w3.org/2000/svg" width="16" height="16" viewBox="0 0 16 16">
  <path d="M7.90135304,1.01418166 C7.9261191,0.985877602 8.82831104,1.00356764 9.09012361,1.03540971 C10.2364381,1.17693001 11.2129282,1.62979499 11.9169917,2.34801054 C12.7059674,3.15467628 13.1057623,4.25499665 13.0845342,5.54636943 C13.0809962,5.79756797 13.0703822,6.03461448 13.0597682,6.07353257 C13.0491541,6.11245065 13.0173121,6.25397096 12.98547,6.39195325 C12.6741253,7.71870611 11.4287466,9.31080954 9.60667272,10.7118606 C9.4120823,10.8604569 9.24933395,10.9984392 9.24933395,11.0090532 C9.24933395,11.0232052 9.30948008,11.0338193 9.38377824,11.0338193 C9.60667272,11.0302812 10.0312336,11.0833514 10.218748,11.1328835 C10.3178123,11.1611875 10.4876366,11.2071816 10.5937768,11.2390237 C10.8414374,11.3133219 11.4924308,11.3133219 11.9417578,11.2425617 L12.1009681,11.2142576 L12.1434242,11.0161292 C12.2707925,10.4217439 12.507839,10.3368318 12.5573711,10.8675329 C12.5644471,10.9559831 12.5715231,11.0408953 12.5750611,11.0621233 C12.5785991,11.0904274 12.6599733,10.8463049 12.6918154,10.7083226 C12.7236574,10.5774163 12.8050316,10.442972 12.8687157,10.4217439 C12.9465519,10.3969779 13.0314641,10.4783521 13.0385401,10.5915683 C13.0420781,10.6269484 13.0491541,10.6694045 13.0526921,10.6906325 C13.0562302,10.7083226 13.0633062,10.8038488 13.0668442,10.899375 C13.0703822,11.0656613 13.0739202,11.0727373 13.1871364,11.0939654 C13.3251187,11.1187314 13.7355276,11.3274739 13.8735099,11.4406901 C14.0645623,11.5999005 14.2697668,11.829871 14.3016088,11.9253972 C14.354679,12.0775315 14.2662288,12.2190518 14.0504103,12.3393441 C13.8062878,12.4773264 13.6470774,12.5410105 13.00316,12.763905 C12.7024294,12.8700452 12.4512308,12.9620334 12.4406168,12.9726474 C12.4300028,12.9832615 12.4406168,13.0752497 12.4653829,13.1813899 C12.514915,13.3972084 12.6988914,13.7297811 12.8793298,13.9102195 C12.9465519,13.9809796 12.999622,14.0552778 12.999622,14.0765058 C12.999622,14.2038741 12.7519615,14.1897221 12.4512308,14.0482018 C12.2566404,13.9562136 11.9983659,13.683787 11.8957637,13.4608925 C11.8533076,13.3689043 11.8143895,13.2875301 11.8108515,13.2804541 C11.7966994,13.255688 11.5136588,13.4325884 11.5136588,13.4644305 C11.5136588,13.5104246 11.6905592,13.7403951 11.7860854,13.8146933 C11.8497696,13.8677634 11.8603836,13.8925294 11.8320795,13.9455995 C11.7825474,14.0411257 11.5207348,14.0092837 11.2766123,13.8748394 L11.0820219,13.7722372 L10.9652676,13.8606873 C10.9015835,13.9066814 10.7246831,14.0198977 10.5725488,14.1083479 C10.3814964,14.2180261 10.3213503,14.2675582 10.3814964,14.2640202 C10.5937768,14.2463302 10.646847,14.2675582 10.8095953,14.4373826 C10.9794197,14.610745 11.0784839,14.8230254 11.0395658,14.9256276 C11.0183378,14.9751598 10.9794197,14.9786978 10.7423732,14.9539317 C10.3213503,14.9114756 10.0630757,14.9043996 9.94632145,14.9397797 C9.79064912,14.9857738 9.37316422,15.0176158 9.28825203,14.9893118 C9.24225793,14.9751598 9.21395387,14.9327037 9.20687786,14.8548675 C9.19626383,14.7416512 9.19272583,14.7416512 9.01936345,14.7451893 C8.92383725,14.7487273 8.74693687,14.7699553 8.63018261,14.7911834 C8.347142,14.8442535 8.09948147,14.8407155 8.05702538,14.7841073 C8.03933534,14.7628793 8.02518331,14.6815051 8.02872132,14.610745 C8.03225933,14.5010667 8.0181073,14.4763007 7.94734714,14.4586106 C7.72799067,14.4055405 7.38480393,14.1967981 7.19021351,14.0057457 C6.88948286,13.708553 6.76211459,13.4255124 6.74796256,13.0257175 C6.73734854,12.5410105 6.85056478,12.1659817 7.12652937,11.8015669 C7.30696776,11.5609824 7.60769841,10.6941705 7.67845856,10.1953114 C7.68907259,10.1280893 7.70322462,10.0502531 7.71030063,10.0254871 C7.77044676,9.85566272 7.79521281,8.99946487 7.75275672,8.63858809 C7.69261059,8.14326703 7.50509619,7.56303378 7.31758179,7.29060719 L7.22205558,7.14908688 L7.10883934,7.26584114 C6.43307988,7.97698067 5.15585913,8.69873422 4.17229301,8.92516671 C3.89986642,8.98531284 3.28071509,8.99946487 3.05782061,8.94285675 C2.57665157,8.82964051 2.19808475,8.53952388 1.98580429,8.11850097 C1.62846552,7.42505148 1.60369947,6.21151486 1.92565817,5.23502476 C2.36437111,3.9082719 3.50360957,2.70534931 5.07448495,1.90929759 C5.58749606,1.64748503 6.28094555,1.36444442 6.56044815,1.29722227 C6.58875221,1.29014626 6.76211459,1.24415216 6.94255298,1.19462005 C7.11945336,1.14862595 7.26804968,1.11324588 7.26804968,1.12032189 C7.26804968,1.13093591 7.30342976,1.1238599 7.34942385,1.10616986 C7.39541795,1.08847982 7.53340025,1.06371377 7.65723052,1.04956174 C7.78459879,1.03540971 7.89427703,1.02125768 7.90135304,1.01418166 Z M13.4949431,11.5432924 C13.448949,11.4548422 13.3357328,11.4300761 13.2543586,11.4902222 C13.1093003,11.5892865 13.2720486,11.829871 13.427721,11.7484968 C13.5090951,11.7060407 13.5373992,11.6175905 13.4949431,11.5432924 Z"/>
</svg>
