<svg xmlns="http://www.w3.org/2000/svg" width="64" height="64" viewBox="0 0 64 64"><path d="M59.8 48.6c-2.1-1.7-2.6-1.2-3.1-1.7-.9-.7-.5-3.4-1.7-3.5-.3 0-.8 2.7-.8 2.7-.2.1-.3.1-.5 0-.3-.2-.2-2.7-.9-2.6-.5 0-.9 3.3-1.5 3.4-4.1.8-8.2 1.1-12.9-1.4.9-.7 1.8-1.3 2.5-2.1 3.9-4.1 8.2-7.9 11.5-12.5C59.7 20.8 55.7 2.6 38.5.3 25.1-1.5 14.2 3.8 6.1 14.6 2.9 18.9 2.2 24.1 3 29.4c.8 4.9 4 7.6 8.9 7 2.7-.3 5.5-1.2 8-2.4 3-1.4 5.6-3.5 8.9-5.6.6 1.4 1.3 2.7 1.6 4.1 1.4 6.2.4 12-2.7 17.5-2.4 4.1-2.1 8.3 1.5 10.5.9.6 2 .7 2.8 1.4 1.1 1.1 2.1 1.6 3.8 1.1.1 0 1.4-.1 1.8.1.6.3.8 1 .8 1h7.2s.1-.4.2-.6c-.7-.9-1.4-1.9-2.6-3.5.9-.1 1.7-1 2.5-1.1 1.2-.1 2.5.9 3.6.8 0 0 .6-.3.5-.5-.1-.2-.4-.5-.4-.5-.3-.4-1.2-1.2-1.2-1.2l1.1-1s2.9 4.4 5.9 3.9c-.5-.8-1.3-2.1-1.6-2.8-1.3-2.4-1.2-2.4 1.4-3.3 1.4-.5 2.9-1 4.3-1.6 2.5-1.3 2.6-2.4.5-4.1zm-4.2 1.5c-.6 0-1.1-.5-1.1-1.1s.5-1 1.1-1c.6 0 1.1.5 1.1 1.1s-.5 1-1.1 1z"/></svg>