<?xml version="1.0" encoding="UTF-8"?>
<svg width="16px" height="16px" viewBox="0 0 16 16" version="1.1" xmlns="http://www.w3.org/2000/svg" xmlns:xlink="http://www.w3.org/1999/xlink">
    <!-- Generator: Sketch 48.2 (47327) - http://www.bohemiancoding.com/sketch -->
    <title>food-solid</title>
    <desc>Created with Sketch.</desc>
    <defs></defs>
    <g id="16px-solid" stroke="none" stroke-width="1" fill="none" fill-rule="evenodd" transform="translate(-192.000000, -288.000000)">
        <g id="food-solid" transform="translate(192.000000, 288.000000)" fill="#000000">
            <path d="M0.5,14.9999 L15.5,14.9999 C15.776,14.9999 16,14.7759 16,14.4999 C16,14.2239 15.776,13.9999 15.5,13.9999 L0.5,13.9999 C0.224,13.9999 0,14.2239 0,14.4999 C0,14.7759 0.224,14.9999 0.5,14.9999 M7.0004,3.9999 C7.0004,3.4479 7.4474,2.9999 8.0004,2.9999 C8.5524,2.9999 9.0004,3.4479 9.0004,3.9999 L9.0004,4.0719 C8.6724,4.0289 8.3394,3.9999 8.0004,3.9999 C7.6604,3.9999 7.3284,4.0289 7.0004,4.0719 L7.0004,3.9999 Z M8.0004,1.9999 C6.8954,1.9999 6.0004,2.8959 6.0004,3.9999 L6.0004,4.2729 C2.5334,5.2039 0.0004,8.4969 0.0004,12.4999 C0.0004,12.7759 0.2234,12.9999 0.5004,12.9999 L15.5004,12.9999 C15.7764,12.9999 16.0004,12.7759 16.0004,12.4999 C16.0004,8.4969 13.4664,5.2039 10.0004,4.2729 L10.0004,3.9999 C10.0004,2.8959 9.1044,1.9999 8.0004,1.9999 Z" id="shape"></path>
        </g>
    </g>
</svg>