<?xml version="1.0" encoding="UTF-8"?>
<svg width="16px" height="16px" viewBox="0 0 16 16" version="1.1" xmlns="http://www.w3.org/2000/svg" xmlns:xlink="http://www.w3.org/1999/xlink">
    <!-- Generator: Sketch 48.2 (47327) - http://www.bohemiancoding.com/sketch -->
    <title>fork-knife-solid</title>
    <desc>Created with Sketch.</desc>
    <defs></defs>
    <g id="16px-solid" stroke="none" stroke-width="1" fill="none" fill-rule="evenodd" transform="translate(-240.000000, -288.000000)">
        <g id="fork-knife-solid" transform="translate(240.000000, 288.000000)" fill="#000000">
            <path d="M9.9888,15.5 C9.9888,15.776 9.7678,16 9.4938,16 C9.2208,16 8.9998,15.776 8.9998,15.5 L8.9998,1.25 C8.9998,0.56 9.5528,0 10.2358,0 C10.8878,0 11.4718,0.409 11.7008,1.027 L13.9058,6.973 C13.9678,7.142 13.9998,7.32 13.9998,7.5 C13.9998,8.329 13.3358,9 12.5168,9 L9.9888,9 L9.9888,15.5 Z M2.5,0 C2.776,0 3,0.224 3,0.5 L3,5 L4,5 L4,0.5 C4,0.224 4.224,0 4.5,0 C4.776,0 5,0.224 5,0.5 L5,5 L6,5 L6,0.5 C6,0.224 6.224,0 6.5,0 C6.776,0 7,0.224 7,0.5 L7,5.5 C7,6.709 6.141,7.718 5,7.95 L5,15.5 C5,15.776 4.776,16 4.5,16 C4.224,16 4,15.776 4,15.5 L4,7.95 C2.859,7.718 2,6.709 2,5.5 L2,0.5 C2,0.224 2.224,0 2.5,0 Z" id="shape"></path>
        </g>
    </g>
</svg>