<?xml version="1.0" encoding="UTF-8"?>
<svg width="16px" height="16px" viewBox="0 0 16 16" version="1.1" xmlns="http://www.w3.org/2000/svg" xmlns:xlink="http://www.w3.org/1999/xlink">
    <!-- Generator: Sketch 48.2 (47327) - http://www.bohemiancoding.com/sketch -->
    <title>fountain-pen-solid</title>
    <desc>Created with Sketch.</desc>
    <defs></defs>
    <g id="16px-solid" stroke="none" stroke-width="1" fill="none" fill-rule="evenodd" transform="translate(-336.000000, -96.000000)">
        <g id="fountain-pen-solid" transform="translate(336.000000, 96.000000)" fill="#000000">
            <path d="M13,14.0002889 C13.553,14.0002889 14,14.4482242 14,15.0001444 C14,15.5520647 13.553,16 13,16 L4,16 C3.448,16 3,15.5520647 3,15.0001444 C3,14.4482242 3.448,14.0002889 4,14.0002889 L13,14.0002889 Z M8,5.99744503 C8,6.05143723 7.966,6.09843044 7.916,6.11942741 C7.378,6.34739448 7,6.88031749 7,7.50122779 C7,8.33010804 7.672,9.00101112 8.5,9.00101112 C9.329,9.00101112 10,8.33010804 10,7.50122779 C10,6.88031749 9.623,6.34739448 9.084,6.11942741 C9.034,6.09843044 9,6.05143723 9,5.99744503 L9,0.101342112 C9,0.00435612286 9.125,-0.0376389584 9.182,0.0413496304 L13.865,7.1522782 C13.985,7.31925408 14.017,7.53322316 13.952,7.728195 L12.226,12.9054471 C12.207,12.9624388 12.153,13.0004333 12.094,13.0004333 L4.906,13.0004333 C4.847,13.0004333 4.793,12.9624388 4.774,12.9054471 L3.049,7.72719514 C2.983,7.53322316 3.016,7.32025393 3.135,7.15327805 L7.818,0.0413496304 C7.875,-0.0376389584 8,0.00435612286 8,0.101342112 L8,5.99744503 Z" id="shape"></path>
        </g>
    </g>
</svg>