<svg xmlns="http://www.w3.org/2000/svg" width="64" height="64" viewBox="0 0 64 64"><path d="M32 0C14.3 0 0 14.3 0 32s14.3 32 32 32 32-14.3 32-32S49.7 0 32 0zm0 8c2.6 0 5.1.7 7.5 1.5-1.7 1.6-3.6 3-3.3 4.5s5.5 1 5.5 4c0 2.2-3.4 2.8-1 5.3 2.8 2.8-5.1 7.8-5.3 11.5-.2 6.6 6.7 7.8 12.2 7.8 3.4 0 4.2 1.6 4 3.5-4.3 6.2-11.7 10-19.8 10-3 0-5.8-.7-8.5-1.8 1.8-3.5-2.2-10.5-6-12.7-1.8-1.8-5.8-1.1-8-2-.7-2.2-1.4-4.3-1.5-6.7.2-.4.6-.7 1.3-.7 1.5 0 3.6 3 4.7 2.7 1.4-.3-5.9-10.5-2.5-12.5 1.6-1 4.8 3.1 3.8-1.3-1-4.1 2.9-2.2 5.3-3.3 2.1-.9 3.6-3.3 1-4.7-.5-.2-1-.8-1.8-1.5C23.4 9.4 27.5 8.1 32 8zm18.5 8.7c1.4 1.8 2.6 3.7 3.5 5.8v.2c-.3.6-.9.9-1.8 1.8-2.2 2.2-2.6-1.7-3.5-2.5-1-1-4.8.2-5.3-1-.5-1.5 4-3.4 7.1-4.3z"/></svg>