<svg xmlns="http://www.w3.org/2000/svg" width="64" height="64" viewBox="0 0 64 64"><path d="M56 32.5c0-2-.2-3.5-.5-5h-23v9.1H46c-.3 2.3-1.7 5.7-5 7.9v.3l7.3 5.6.5.1c4.5-4.2 7.2-10.5 7.2-18"/><path d="M32.5 56.5c6.6 0 12.2-2.2 16.2-5.9l-7.7-6C38.9 46 36.1 47 32.5 47c-6.5 0-12-4.3-13.9-10.2h-.3l-7.6 5.9-.1.3c4 8 12.3 13.5 21.9 13.5"/><path d="M18.6 36.8c-.5-1.5-.8-3.2-.8-4.8 0-1.7.3-3.3.8-4.8v-.3L10.9 21h-.3C9 24.3 8 28.1 8 32s1 7.7 2.6 11l8-6.2"/><path d="M32.5 17c4.6 0 7.7 2 9.5 3.6l6.9-6.7c-4.2-3.9-9.8-6.4-16.4-6.4-9.6 0-17.9 5.5-21.9 13.5l7.9 6.1c2-5.8 7.5-10.1 14-10.1"/></svg>