<svg xmlns="http://www.w3.org/2000/svg" width="16" height="16" viewBox="0 0 16 16">
  <path d="M8.14418581,6.99739585 L8.14418581,9.40364581 L12.1999998,9.40364581 C12.0325577,10.4335941 10.9720929,12.4205728 8.14418581,12.4205728 C5.70697652,12.4205728 3.71627919,10.4427086 3.71627919,8 C3.71627919,5.5572919 5.70697652,3.5794272 8.14418581,3.5794272 C9.53023251,3.5794272 10.460465,4.16276062 10.9906974,4.6640627 L12.9348834,2.83203108 C11.6883719,1.69270837 10.0697672,1 8.14418581,1 C4.19069742,1 1,4.12630194 1,8 C1,11.8736981 4.19069742,15 8.14418581,15 C12.2651163,15 15,12.1562502 15,8.1640627 C15,7.69921875 14.9534881,7.35286484 14.8883716,6.99739585 L8.14418581,6.99739585 Z"/>
</svg>
