<svg xmlns="http://www.w3.org/2000/svg" width="64" height="64" viewBox="0 0 64 64"><path d="M16 4C9.4 4 4 9.4 4 16s5.4 12 12 12h4v8h-4C9.4 36 4 41.4 4 48s5.4 12 12 12 12-5.4 12-12v-4h8v4c0 6.6 5.4 12 12 12s12-5.4 12-12-5.4-12-12-12h-4v-8h4c6.6 0 12-5.4 12-12S54.6 4 48 4 36 9.4 36 16v4h-8v-4c0-6.6-5.4-12-12-12zm0 8c2.2 0 4 1.8 4 4v4h-4c-2.2 0-4-1.8-4-4s1.8-4 4-4zm32 0c2.2 0 4 1.8 4 4s-1.8 4-4 4h-4v-4c0-2.2 1.8-4 4-4zM28 28h8v8h-8v-8zM16 44h4v4c0 2.2-1.8 4-4 4s-4-1.8-4-4 1.8-4 4-4zm28 0h4c2.2 0 4 1.8 4 4s-1.8 4-4 4-4-1.8-4-4v-4z"/></svg>