<?xml version="1.0" encoding="UTF-8"?>
<svg width="16px" height="16px" viewBox="0 0 16 16" version="1.1" xmlns="http://www.w3.org/2000/svg" xmlns:xlink="http://www.w3.org/1999/xlink">
    <!-- Generator: Sketch 49.3 (51167) - http://www.bohemiancoding.com/sketch -->
    <title>hanger-solid</title>
    <desc>Created with Sketch.</desc>
    <defs></defs>
    <g id="Page-1" stroke="none" stroke-width="1" fill="none" fill-rule="evenodd">
        <g id="16px-solid" transform="translate(-480.000000, -240.000000)" fill="#000000" fill-rule="nonzero">
            <g id="hanger-solid" transform="translate(480.000000, 240.000000)">
                <path d="M5.07887394,8.87939317 C5.42162562,8.64681167 5.88802533,8.73612225 6.12060683,9.07887394 C6.35318833,9.42162562 6.26387775,9.88802533 5.92112606,10.1206068 L1.61424826,13.0431311 C1.49999769,13.1206582 1.4702275,13.2761248 1.54775467,13.3903754 C1.59428218,13.4589422 1.67176094,13.5 1.75462361,13.5 L14.2523407,13.5 C14.3904119,13.5 14.5023407,13.3880712 14.5023407,13.25 C14.5023407,13.1653195 14.4594741,13.0863952 14.3884423,13.0402946 L8.27508582,9.07264571 C7.6357993,8.65774034 7.25,7.94742145 7.25,7.18529697 L7.25,7 C7.25,6.21283685 7.59668452,5.75468054 8.40327937,5.07722136 C8.46156874,5.02835956 8.46156874,5.02835956 8.51833506,4.98085273 C9.08743252,4.50404127 9.25,4.28801694 9.25,4 C9.25,3.30964406 8.69035594,2.75 8,2.75 C7.30964406,2.75 6.75,3.30964406 6.75,4 C6.75,4.41421356 6.41421356,4.75 6,4.75 C5.58578644,4.75 5.25,4.41421356 5.25,4 C5.25,2.48121694 6.48121694,1.25 8,1.25 C9.51878306,1.25 10.75,2.48121694 10.75,4 C10.75,4.88371686 10.3747235,5.38239498 9.48166494,6.13063338 C9.42384822,6.17902015 9.42384822,6.17902015 9.3680003,6.2258351 C8.8866624,6.6301109 8.75,6.81071528 8.75,7 L8.75,7.18529697 C8.75,7.43933847 8.87859977,7.67611143 9.09169527,7.81441322 L15.2050518,11.7820621 C15.7022746,12.1047663 16.0023407,12.6572365 16.0023407,13.25 C16.0023407,14.2164983 15.218839,15 14.2523407,15 L1.75462361,15 C1.17458491,15 0.632233562,14.7125955 0.306541007,14.2326275 C-0.236149166,13.4328735 -0.0277578093,12.3446076 0.77199613,11.8019174 L5.07887394,8.87939317 Z" id="shape"></path>
            </g>
        </g>
    </g>
</svg>