<?xml version="1.0" encoding="UTF-8"?>
<svg width="16px" height="16px" viewBox="0 0 16 16" version="1.1" xmlns="http://www.w3.org/2000/svg" xmlns:xlink="http://www.w3.org/1999/xlink">
    <!-- Generator: Sketch 48.2 (47327) - http://www.bohemiancoding.com/sketch -->
    <title>heart-beat-solid</title>
    <desc>Created with Sketch.</desc>
    <defs></defs>
    <g id="16px-solid" stroke="none" stroke-width="1" fill="none" fill-rule="evenodd" transform="translate(-96.000000, -144.000000)">
        <g id="heart-beat-solid" transform="translate(96.000000, 144.000000)" fill="#000000">
            <path d="M8,2.339 C6.966,1.477 6.023,1 4.999,1 C2.231,1 0,3.241 0,6 C0,9.25 2.394,11.854 7.722,15.416 C7.89,15.528 8.11,15.528 8.278,15.416 C12.466,12.616 14.846,10.399 15.669,8 L12,8 C11.867,8 11.74,7.948 11.646,7.854 L10.564,6.771 L8.406,9.791 C8.21,10.066 7.802,10.071 7.6,9.8 L6.25,8 L4.5,8 C4.224,8 4,7.776 4,7.5 C4,7.224 4.224,7 4.5,7 L6.5,7 C6.658,7 6.806,7.075 6.9,7.201 L7.991,8.653 L10.093,5.709 C10.273,5.458 10.636,5.427 10.853,5.646 L12.207,7 L15.92,7 C15.973,6.672 16,6.34 16,6 C16,3.241 13.769,1 11,1 C9.976,1 9.034,1.476 8,2.339 Z" id="shape"></path>
        </g>
    </g>
</svg>