<svg xmlns="http://www.w3.org/2000/svg" width="16" height="16" viewBox="0 0 16 16">
  <path d="M5.0216491,12.3925645 L2.41119861,15.003015 L1.00052005,13.5852664 L3.22065137,11.3651351 C2.09597564,10.5489933 1.02242519,9.42728161 0,8 C2.38781467,4.66666667 5.05448133,3 8,3 C9.02666056,3 10.0194442,3.20247851 10.9783509,3.60743554 L13.5829404,1.00284608 L14.997238,2.41697561 L12.7793486,4.63486493 C13.9040244,5.4510067 14.9775748,6.57271839 16,8 C13.6121853,11.3333333 10.9455187,13 8,13 C6.97333944,13 5.98055581,12.7975215 5.0216491,12.3925645 Z M9.80979568,4.77599076 C9.21663763,4.59108529 8.61363393,4.5 8,4.5 C5.84153304,4.5 3.81459303,5.62699065 1.88503402,8 C2.67184382,8.96763406 3.47484552,9.72808806 4.29635423,10.2894322 L6.06774324,8.5180432 C6.02355725,8.35281657 6,8.17915933 6,8 C6,6.8954305 6.8954305,6 8,6 C8.17915933,6 8.35281657,6.02355725 8.5180432,6.06774324 L9.80979568,4.77599076 Z M11.7036458,5.7105678 L9.93225676,7.4819568 C9.97644275,7.64718343 10,7.82084067 10,8 C10,9.1045695 9.1045695,10 8,10 C7.82084067,10 7.64718343,9.97644275 7.4819568,9.93225676 L6.19020432,11.2240092 C6.78336237,11.4089147 7.38636607,11.5 8,11.5 C10.158467,11.5 12.185407,10.3730094 14.114966,8 C13.3281562,7.03236594 12.5251545,6.27191194 11.7036458,5.7105678 Z"/>
</svg>
