<?xml version="1.0" encoding="UTF-8"?>
<svg width="16px" height="16px" viewBox="0 0 16 16" version="1.1" xmlns="http://www.w3.org/2000/svg" xmlns:xlink="http://www.w3.org/1999/xlink">
    <!-- Generator: Sketch 48.2 (47327) - http://www.bohemiancoding.com/sketch -->
    <title>home-solid</title>
    <desc>Created with Sketch.</desc>
    <defs>
        <path d="M7.688,0.109 L0.188,6.11 C-0.028,6.283 -0.063,6.597 0.109,6.813 C0.282,7.029 0.597,7.063 0.813,6.891 L1,6.741 L1,13.5 C1,14.881 2.119,16 3.5,16 L12.5,16 C13.88,16 15,14.881 15,13.5 L15,6.741 L15.187,6.891 C15.403,7.063 15.718,7.029 15.891,6.813 C16.063,6.597 16.028,6.283 15.812,6.11 L8.312,0.109 C8.221,0.036 8.111,0 8,0 C7.89,0 7.779,0.036 7.688,0.109 Z M7,10.5 C7,9.671 7.671,9 8.5,9 L10.5,9 C11.329,9 12,9.671 12,10.5 L12,16 L11,16 L8,16 L7,16 L7,10.5 Z M3,11.501 L3,10.501 C3,10.224 3.224,10 3.5,10 L4.5,10 C4.776,10 5,10.224 5,10.501 L5,11.501 C5,11.776 4.776,12 4.5,12 L3.5,12 C3.224,12 3,11.776 3,11.501 Z M8.5,10 C8.224,10 8,10.224 8,10.5 L8,16 L11,16 L11,10.5 C11,10.224 10.776,10 10.5,10 L8.5,10 Z" id="path-1"></path>
    </defs>
    <g id="16px-solid" stroke="none" stroke-width="1" fill="none" fill-rule="evenodd" transform="translate(-480.000000, -288.000000)">
        <g id="home-solid" transform="translate(480.000000, 288.000000)">
            <mask id="mask-2" fill="white">
                <use xlink:href="#path-1"></use>
            </mask>
            <use id="shape" fill="#000000" xlink:href="#path-1"></use>
        </g>
    </g>
</svg>