<?xml version="1.0" encoding="UTF-8"?>
<svg width="16px" height="16px" viewBox="0 0 16 16" version="1.1" xmlns="http://www.w3.org/2000/svg" xmlns:xlink="http://www.w3.org/1999/xlink">
    <!-- Generator: Sketch 48.2 (47327) - http://www.bohemiancoding.com/sketch -->
    <title>ic_car-solid</title>
    <desc>Created with Sketch.</desc>
    <defs>
        <path d="M5.541,1 C3.83,1 2.37,2.237 2.089,3.924 L1.545,7.189 C0.638,7.564 0,8.458 0,9.5 L0,12.5 C0,13.329 0.671,14 1.5,14 L2,14 L2,14.5 C2,15.328 2.671,16 3.5,16 C4.329,16 5,15.328 5,14.5 L5,14 L11,14 L11,14.5 C11,15.328 11.671,16 12.5,16 C13.329,16 14,15.328 14,14.5 L14,14 L14.5,14 C15.329,14 16,13.329 16,12.5 L16,9.5 C16,8.458 15.362,7.564 14.455,7.189 L13.911,3.924 C13.63,2.237 12.17,1 10.459,1 L5.541,1 Z M3.075,4.089 C3.276,2.883 4.319,2 5.541,2 L10.459,2 C11.681,2 12.723,2.883 12.925,4.089 L13.41,7 L2.59,7 L3.075,4.089 Z M11,10.5 C11,9.671 11.671,9 12.5,9 C13.329,9 14,9.671 14,10.5 C14,11.329 13.329,12 12.5,12 C11.671,12 11,11.329 11,10.5 Z M2,10.5 C2,9.671 2.671,9 3.5,9 C4.329,9 5,9.671 5,10.5 C5,11.329 4.329,12 3.5,12 C2.671,12 2,11.329 2,10.5 Z M12,14.5 L12,14 L13,14 L13,14.5 C13,14.777 12.776,15 12.5,15 C12.224,15 12,14.777 12,14.5 Z M3,14.5 L3,14 L4,14 L4,14.5 C4,14.777 3.776,15 3.5,15 C3.224,15 3,14.777 3,14.5 Z" id="path-1"></path>
    </defs>
    <g id="16px-solid" stroke="none" stroke-width="1" fill="none" fill-rule="evenodd" transform="translate(-432.000000, -288.000000)">
        <g id="car-solid" transform="translate(432.000000, 288.000000)">
            <mask id="mask-2" fill="white">
                <use xlink:href="#path-1"></use>
            </mask>
            <use id="shape" fill="#000000" xlink:href="#path-1"></use>
        </g>
    </g>
</svg>