<?xml version="1.0" encoding="UTF-8"?>
<svg width="16px" height="16px" viewBox="0 0 16 16" version="1.1" xmlns="http://www.w3.org/2000/svg" xmlns:xlink="http://www.w3.org/1999/xlink">
    <!-- Generator: Sketch 48.2 (47327) - http://www.bohemiancoding.com/sketch -->
    <title>internet-solid</title>
    <desc>Created with Sketch.</desc>
    <defs></defs>
    <g id="16px-solid" stroke="none" stroke-width="1" fill="none" fill-rule="evenodd" transform="translate(-288.000000, -288.000000)">
        <g id="internet-solid" transform="translate(288.000000, 288.000000)" fill="#000000">
            <path d="M10.7158,9.9999 L5.2848,9.9999 C5.1798,9.9999 5.0908,9.9229 5.0818,9.8189 C5.0288,9.2419 4.9998,8.6339 4.9998,7.9999 C4.9998,7.3659 5.0288,6.7579 5.0818,6.1809 C5.0908,6.0769 5.1798,5.9999 5.2848,5.9999 L10.7158,5.9999 C10.8198,5.9999 10.9088,6.0769 10.9188,6.1809 C10.9718,6.7579 10.9998,7.3659 10.9998,7.9999 C10.9998,8.6339 10.9718,9.2419 10.9188,9.8189 C10.9088,9.9229 10.8198,9.9999 10.7158,9.9999 Z M10.5308,10.9999 C10.6558,10.9999 10.7518,11.1189 10.7308,11.2419 C10.2188,14.1529 9.0638,15.9999 7.9998,15.9999 C6.9358,15.9999 5.7808,14.1529 5.2698,11.2419 C5.2478,11.1189 5.3448,10.9999 5.4698,10.9999 L10.5308,10.9999 Z M15.5858,9.9999 L12.1238,9.9999 C12.0078,9.9999 11.9178,9.9049 11.9278,9.7899 C11.9758,9.2149 12.0008,8.6169 12.0008,7.9999 C12.0008,7.3839 11.9758,6.7859 11.9278,6.2099 C11.9178,6.0949 12.0078,5.9999 12.1238,5.9999 L15.5858,5.9999 C15.6808,5.9999 15.7648,6.0639 15.7868,6.1559 C15.9258,6.7479 16.0008,7.3649 16.0008,7.9999 C16.0008,8.6349 15.9258,9.2519 15.7868,9.8439 C15.7648,9.9359 15.6808,9.9999 15.5858,9.9999 Z M15.2938,11.2879 C14.3998,13.2629 12.7248,14.8089 10.6628,15.5369 C10.4908,15.5979 10.3308,15.4009 10.4238,15.2459 C11.0338,14.2319 11.5008,12.8299 11.7628,11.1699 C11.7778,11.0729 11.8608,10.9999 11.9578,10.9999 L15.1048,10.9999 C15.2508,10.9999 15.3548,11.1549 15.2938,11.2879 Z M3.8768,9.9999 L0.4138,9.9999 C0.3198,9.9999 0.2358,9.9359 0.2138,9.8439 C0.0738,9.2519 -0.0002,8.6349 -0.0002,7.9999 C-0.0002,7.3649 0.0738,6.7479 0.2138,6.1559 C0.2358,6.0639 0.3198,5.9999 0.4138,5.9999 L3.8768,5.9999 C3.9928,5.9999 4.0828,6.0949 4.0728,6.2099 C4.0248,6.7859 3.9998,7.3839 3.9998,7.9999 C3.9998,8.6169 4.0248,9.2149 4.0728,9.7899 C4.0828,9.9049 3.9928,9.9999 3.8768,9.9999 Z M4.2368,11.1699 C4.4998,12.8299 4.9658,14.2319 5.5758,15.2459 C5.6698,15.4009 5.5088,15.5979 5.3378,15.5369 C3.2758,14.8089 1.6008,13.2629 0.7058,11.2879 C0.6458,11.1549 0.7498,10.9999 0.8948,10.9999 L4.0428,10.9999 C4.1398,10.9999 4.2218,11.0729 4.2368,11.1699 Z M10.5308,4.9999 L5.4698,4.9999 C5.3448,4.9999 5.2478,4.8819 5.2698,4.7589 C5.7808,1.8469 6.9358,-0.0001 7.9998,-0.0001 C9.0638,-0.0001 10.2188,1.8469 10.7308,4.7589 C10.7518,4.8819 10.6558,4.9999 10.5308,4.9999 Z M15.1048,4.9999 L11.9578,4.9999 C11.8598,4.9999 11.7778,4.9269 11.7628,4.8309 C11.5008,3.1709 11.0338,1.7679 10.4238,0.7539 C10.3308,0.5989 10.4908,0.4029 10.6628,0.4629 C12.7248,1.1909 14.3998,2.7369 15.2938,4.7119 C15.3548,4.8449 15.2508,4.9999 15.1048,4.9999 Z M0.8948,4.9999 C0.7498,4.9999 0.6458,4.8449 0.7058,4.7119 C1.6008,2.7369 3.2758,1.1909 5.3378,0.4629 C5.5088,0.4029 5.6698,0.5989 5.5758,0.7539 C4.9658,1.7679 4.4998,3.1709 4.2378,4.8309 C4.2218,4.9269 4.1398,4.9999 4.0428,4.9999 L0.8948,4.9999 Z" id="shape"></path>
        </g>
    </g>
</svg>