<?xml version="1.0" encoding="UTF-8"?>
<svg width="16px" height="16px" viewBox="0 0 16 16" version="1.1" xmlns="http://www.w3.org/2000/svg" xmlns:xlink="http://www.w3.org/1999/xlink">
    <!-- Generator: Sketch 48.2 (47327) - http://www.bohemiancoding.com/sketch -->
    <title>lab-solid</title>
    <desc>Created with Sketch.</desc>
    <defs></defs>
    <g id="16px-solid" stroke="none" stroke-width="1" fill="none" fill-rule="evenodd" transform="translate(-480.000000, -96.000000)">
        <g id="lab-solid" transform="translate(480.000000, 96.000000)" fill="#000000">
            <path d="M8.00024729,2 C8.00024729,1.448 7.55228357,1 7.00032828,1 C6.44737307,1 6.00040927,1.448 6.00040927,2 C6.00040927,2.552 6.44737307,3 7.00032828,3 C7.55228357,3 8.00024729,2.552 8.00024729,2 M3.04664853,15.291 L6.00040927,8.89 L6.00040927,5 L5.50044977,5 C5.22447213,5 5.00049027,4.776 5.00049027,4.5 C5.00049027,4.224 5.22447213,4 5.50044977,4 L6.50036878,4 L9.50012579,4 L10.5000448,4 C10.7750225,4 11.0000043,4.224 11.0000043,4.5 C11.0000043,4.776 10.7750225,5 10.5000448,5 L10.0000853,5 L10.0000853,8.89 L12.953846,15.291 C13.1058337,15.622 12.8638533,16 12.4998828,16 L3.50061176,16 C3.13564132,16 2.89366092,15.622 3.04664853,15.291 Z M9.00016629,5 L7.00032828,5 L7.00032828,9 L6.95433201,9.209 L5.66643633,12 L10.3340582,12 L9.04616257,9.209 L9.00016629,9 L9.00016629,5 Z M10.0000853,0.5 C10.0000853,0.224 9.77510352,0 9.50012579,0 C9.22414815,0 9.00016629,0.224 9.00016629,0.5 C9.00016629,0.776 9.22414815,1 9.50012579,1 C9.77510352,1 10.0000853,0.776 10.0000853,0.5" id="shape"></path>
        </g>
    </g>
</svg>