<?xml version="1.0" encoding="UTF-8"?>
<svg width="16px" height="16px" viewBox="0 0 16 16" version="1.1" xmlns="http://www.w3.org/2000/svg" xmlns:xlink="http://www.w3.org/1999/xlink">
    <!-- Generator: Sketch 48.2 (47327) - http://www.bohemiancoding.com/sketch -->
    <title>lamp-solid</title>
    <desc>Created with Sketch.</desc>
    <defs></defs>
    <g id="16px-solid" stroke="none" stroke-width="1" fill="none" fill-rule="evenodd" transform="translate(-480.000000, -144.000000)">
        <g id="lamp-solid" transform="translate(480.000000, 144.000000)" fill="#000000">
            <path d="M7.3252,1 C5.9242,1 5.1032,1.17 4.3112,1.594 C3.5852,1.982 2.9822,2.585 2.5942,3.311 C2.1702,4.103 2.0002,4.924 2.0002,6.325 L2.0002,7.675 C2.0002,9.075 2.1702,9.898 2.5942,10.691 C2.9852,11.42 3.5922,12.025 4.3222,12.413 C5.1112,12.832 5.9302,13 7.3252,13 L8.6752,13 C10.0752,13 10.8982,12.83 11.6902,12.407 C12.4162,12.019 13.0192,11.416 13.4072,10.69 C13.8302,9.898 14.0002,9.075 14.0002,7.675 L14.0002,6.325 C14.0002,4.931 13.8312,4.111 13.4132,3.322 C13.0252,2.592 12.4202,1.985 11.6912,1.594 C10.8982,1.17 10.0752,1 8.6752,1 L7.3252,1 Z M7.3252,14 C6.4412,14 5.7402,13.935 5.1202,13.782 C5.0572,13.767 5.0002,13.813 5.0002,13.877 L5.0002,14.5 C5.0002,15.329 5.6712,16 6.5002,16 L9.5002,16 C10.3282,16 11.0002,15.329 11.0002,14.5 L11.0002,13.877 C11.0002,13.813 10.9422,13.767 10.8802,13.782 C10.2602,13.935 9.5572,14 8.6752,14 L7.3252,14 Z" id="shape"></path>
        </g>
    </g>
</svg>