<svg xmlns="http://www.w3.org/2000/svg" width="64" height="64" viewBox="0 0 64 64"><path d="M60 28c-2.2 0-4-1.8-4-4v-2.3L38.8 38.8c-.7.8-1.7 1.2-2.8 1.2-1.1 0-2.1-.4-2.8-1.2L28 33.7l-9.2 9.2c-.7.7-1.7 1.1-2.8 1.1-2.2 0-4-1.8-4-4 0-1.1.4-2.1 1.2-2.8l12-12c.7-.7 1.7-1.2 2.8-1.2 1.1 0 2.1.4 2.8 1.2l5.2 5.2L50.3 16H48c-2.2 0-4-1.8-4-4s1.8-4 4-4h12c2.2 0 4 1.8 4 4v12c0 2.2-1.8 4-4 4zm0 20c2.2 0 4 1.8 4 4s-1.8 4-4 4H4c-2.2 0-4-1.8-4-4V12c0-2.2 1.8-4 4-4s4 1.8 4 4v36h52z" fill-rule="evenodd" clip-rule="evenodd"/></svg>