<svg xmlns="http://www.w3.org/2000/svg" width="16" height="16" viewBox="0 0 16 16">
  <path fill-rule="evenodd" d="M10.2108683,9.5 L1,9.5 L1,8 L5.6208297,8 C4.38257913,7.42698847 3.5174538,6.45555974 3.5174538,4.76591376 C3.5174538,2.58110883 5.38603696,1 7.94455852,1 C10.1868583,1 12.2566735,2.23613963 12.3429158,4.65092402 L10.5605749,4.65092402 C10.4743326,3.44353183 9.29568789,2.6386037 7.97330595,2.6386037 C6.42094456,2.6386037 5.35728953,3.52977413 5.35728953,4.79466119 C5.35728953,6.05954825 6.44969199,6.60574949 7.42710472,6.83572895 L9.41067762,7.32443532 C10.0966336,7.49027083 10.6580661,7.72133293 11.1131151,8 L15,8 L15,9.5 L12.4965757,9.5 C12.7340867,10.0061148 12.8316222,10.5499737 12.8316222,11.0903491 C12.8316222,13.476386 10.6755647,15 7.88706366,15 C5.55852156,15 3.22997947,13.6488706 3,11.0903491 L4.69609856,11.0903491 C4.8973306,12.211499 5.93223819,13.3613963 7.88706366,13.3613963 C9.81314168,13.3613963 10.9917864,12.412731 10.9917864,11.0616016 C10.9917864,10.406787 10.7232249,9.88625309 10.2108683,9.5 Z"/>
</svg>
