<?xml version="1.0" encoding="UTF-8"?>
<svg width="16px" height="16px" viewBox="0 0 16 16" version="1.1" xmlns="http://www.w3.org/2000/svg" xmlns:xlink="http://www.w3.org/1999/xlink">
    <!-- Generator: Sketch 48.2 (47327) - http://www.bohemiancoding.com/sketch -->
    <title>link url-solid</title>
    <desc>Created with Sketch.</desc>
    <defs></defs>
    <g id="16px-solid" stroke="none" stroke-width="1" fill="none" fill-rule="evenodd" transform="translate(-336.000000, -240.000000)">
        <g id="linkurl-solid" transform="translate(336.000000, 240.000000)" fill="#000000" fill-rule="nonzero">
            <path d="M6.93032398,9.06967602 C7.2232172,9.36256924 7.2232172,9.83744297 6.93032398,10.1303362 C6.63743076,10.4232294 6.16255703,10.4232294 5.86966381,10.1303362 C4.47220109,8.73287347 4.47220109,6.46713874 5.86966381,5.06967602 L9.86966381,1.06967602 C11.2671265,-0.327786701 13.5328613,-0.327786701 14.930324,1.06967602 C16.3277867,2.46713874 16.3277867,4.73287347 14.930324,6.13033619 L13.1339373,7.92672291 C12.841044,8.21961613 12.3661703,8.21961613 12.0732771,7.92672291 C11.7803839,7.63382969 11.7803839,7.15895596 12.0732771,6.86606274 L13.8696638,5.06967602 C14.6813401,4.25799974 14.6813401,2.94201247 13.8696638,2.13033619 C13.0579875,1.31865991 11.7420003,1.31865991 10.930324,2.13033619 L6.93032398,6.13033619 C6.1186477,6.94201247 6.1186477,8.25799974 6.93032398,9.06967602 Z M9.06967602,6.93032398 C8.7767828,6.63743076 8.7767828,6.16255703 9.06967602,5.86966381 C9.36256924,5.57677059 9.83744297,5.57677059 10.1303362,5.86966381 C11.5277989,7.26712653 11.5277989,9.53286126 10.1303362,10.930324 L6.13033619,14.930324 C4.73287347,16.3277867 2.46713874,16.3277867 1.06967602,14.930324 C-0.327786701,13.5328613 -0.327786701,11.2671265 1.06967602,9.86966381 L2.86928997,8.07004986 C3.16218319,7.77715664 3.63705692,7.77715664 3.92995014,8.07004986 C4.22284336,8.36294308 4.22284336,8.83781681 3.92995014,9.13071003 L2.13033619,10.930324 C1.31865991,11.7420003 1.31865991,13.0579875 2.13033619,13.8696638 C2.94201247,14.6813401 4.25799974,14.6813401 5.06967602,13.8696638 L9.06967602,9.86966381 C9.8813523,9.05798753 9.8813523,7.74200026 9.06967602,6.93032398 Z" id="shape"></path>
        </g>
    </g>
</svg>