<svg xmlns="http://www.w3.org/2000/svg" width="64" height="64" viewBox="0 0 64 64"><path d="M0 8v16c0 2.2 1.8 4 4 4h16c2.2 0 4-1.8 4-4V8c0-2.2-1.8-4-4-4H4C1.8 4 0 5.8 0 8zm32-2v4c0 1.1.9 2 2 2h28c1.1 0 2-.9 2-2V6c0-1.1-.9-2-2-2H34c-1.1 0-2 .9-2 2zm0 16v4c0 1.1.9 2 2 2h20c1.1 0 2-.9 2-2v-4c0-1.1-.9-2-2-2H34c-1.1 0-2 .9-2 2zM0 40v16c0 2.2 1.8 4 4 4h16c2.2 0 4-1.8 4-4V40c0-2.2-1.8-4-4-4H4c-2.2 0-4 1.8-4 4zm32-2v4c0 1.1.9 2 2 2h28c1.1 0 2-.9 2-2v-4c0-1.1-.9-2-2-2H34c-1.1 0-2 .9-2 2zm0 16v4c0 1.1.9 2 2 2h20c1.1 0 2-.9 2-2v-4c0-1.1-.9-2-2-2H34c-1.1 0-2 .9-2 2z"/></svg>