<svg xmlns="http://www.w3.org/2000/svg" width="64" height="64" viewBox="0 0 64 64"><path d="M62 8H18c-1.1 0-2 .9-2 2v4c0 1.1.9 2 2 2h44c1.1 0 2-.9 2-2v-4c0-1.1-.9-2-2-2zm0 20H18c-1.1 0-2 .9-2 2v4c0 1.1.9 2 2 2h44c1.1 0 2-.9 2-2v-4c0-1.1-.9-2-2-2zm0 20H18c-1.1 0-2 .9-2 2v4c0 1.1.9 2 2 2h44c1.1 0 2-.9 2-2v-4c0-1.1-.9-2-2-2zM6 8H2c-1.1 0-2 .9-2 2v4c0 1.1.9 2 2 2h4c1.1 0 2-.9 2-2v-4c0-1.1-.9-2-2-2zm0 20H2c-1.1 0-2 .9-2 2v4c0 1.1.9 2 2 2h4c1.1 0 2-.9 2-2v-4c0-1.1-.9-2-2-2zm0 20H2c-1.1 0-2 .9-2 2v4c0 1.1.9 2 2 2h4c1.1 0 2-.9 2-2v-4c0-1.1-.9-2-2-2z" fill-rule="evenodd" clip-rule="evenodd"/></svg>