<?xml version="1.0" encoding="UTF-8"?>
<svg width="16px" height="16px" viewBox="0 0 16 16" version="1.1" xmlns="http://www.w3.org/2000/svg" xmlns:xlink="http://www.w3.org/1999/xlink">
    <!-- Generator: Sketch 48.2 (47327) - http://www.bohemiancoding.com/sketch -->
    <title>list-ul-solid</title>
    <desc>Created with Sketch.</desc>
    <defs></defs>
    <g id="16px-solid" stroke="none" stroke-width="1" fill="none" fill-rule="evenodd" transform="translate(-432.000000, -336.000000)">
        <g id="list-ul-solid" transform="translate(432.000000, 336.000000)" fill="#000000" fill-rule="nonzero">
            <path d="M5.5,9 C5.22385763,9 5,8.77614237 5,8.5 C5,8.22385763 5.22385763,8 5.5,8 L14.5,8 C14.7761424,8 15,8.22385763 15,8.5 C15,8.77614237 14.7761424,9 14.5,9 L5.5,9 Z M5.5,4 C5.22385763,4 5,3.77614237 5,3.5 C5,3.22385763 5.22385763,3 5.5,3 L14.5,3 C14.7761424,3 15,3.22385763 15,3.5 C15,3.77614237 14.7761424,4 14.5,4 L5.5,4 Z M5.5,14 C5.22385763,14 5,13.7761424 5,13.5 C5,13.2238576 5.22385763,13 5.5,13 L14.5,13 C14.7761424,13 15,13.2238576 15,13.5 C15,13.7761424 14.7761424,14 14.5,14 L5.5,14 Z M2.5,5 C1.67157288,5 1,4.32842712 1,3.5 C1,2.67157288 1.67157288,2 2.5,2 C3.32842712,2 4,2.67157288 4,3.5 C4,4.32842712 3.32842712,5 2.5,5 Z M2.5,15 C1.67157288,15 1,14.3284271 1,13.5 C1,12.6715729 1.67157288,12 2.5,12 C3.32842712,12 4,12.6715729 4,13.5 C4,14.3284271 3.32842712,15 2.5,15 Z M2.5,10 C1.67157288,10 1,9.32842712 1,8.5 C1,7.67157288 1.67157288,7 2.5,7 C3.32842712,7 4,7.67157288 4,8.5 C4,9.32842712 3.32842712,10 2.5,10 Z" id="shape"></path>
        </g>
    </g>
</svg>