<?xml version="1.0" encoding="UTF-8"?>
<svg width="16px" height="16px" viewBox="0 0 16 16" version="1.1" xmlns="http://www.w3.org/2000/svg" xmlns:xlink="http://www.w3.org/1999/xlink">
    <!-- Generator: Sketch 48.2 (47327) - http://www.bohemiancoding.com/sketch -->
    <title>list-align-left-solid</title>
    <desc>Created with Sketch.</desc>
    <defs></defs>
    <g id="16px-solid" stroke="none" stroke-width="1" fill="none" fill-rule="evenodd" transform="translate(-96.000000, -832.000000)">
        <g id="list-align-left-solid" transform="translate(96.000000, 832.000000)" fill="#000000" fill-rule="nonzero">
            <path d="M2,4 C1.44771525,4 1,3.55228475 1,3 C1,2.44771525 1.44771525,2 2,2 L8,2 C8.55228475,2 9,2.44771525 9,3 C9,3.55228475 8.55228475,4 8,4 L2,4 Z M2,9 C1.44771525,9 1,8.55228475 1,8 C1,7.44771525 1.44771525,7 2,7 L14,7 C14.5522847,7 15,7.44771525 15,8 C15,8.55228475 14.5522847,9 14,9 L2,9 Z M2,14 C1.44771525,14 1,13.5522847 1,13 C1,12.4477153 1.44771525,12 2,12 L11,12 C11.5522847,12 12,12.4477153 12,13 C12,13.5522847 11.5522847,14 11,14 L2,14 Z" id="shape"></path>
        </g>
    </g>
</svg>