<svg xmlns="http://www.w3.org/2000/svg" width="16" height="16" viewBox="0 0 16 16">
  <g fill="none" fill-rule="evenodd">
    <path fill="#000" fill-opacity=".4" fill-rule="nonzero" d="M8,15 C4.13400675,15 1,11.8659932 1,8 C1,4.13400675 4.13400675,1 8,1 C11.8659932,1 15,4.13400675 15,8 C15,11.8659932 11.8659932,15 8,15 Z M8,13 C10.7614237,13 13,10.7614237 13,8 C13,5.23857625 10.7614237,3 8,3 C5.23857625,3 3,5.23857625 3,8 C3,10.7614237 5.23857625,13 8,13 Z"/>
    <path fill="#000" fill-rule="nonzero" d="M15,8 L13,8 C13,5.23857625 10.7614237,3 8,3 L8,1 C11.8659932,1 15,4.13400675 15,8 Z"/>
  </g>
</svg>
