<?xml version="1.0" encoding="UTF-8"?>
<svg width="16px" height="16px" viewBox="0 0 16 16" version="1.1" xmlns="http://www.w3.org/2000/svg" xmlns:xlink="http://www.w3.org/1999/xlink">
    <!-- Generator: Sketch 48.2 (47327) - http://www.bohemiancoding.com/sketch -->
    <title>lock-solid</title>
    <desc>Created with Sketch.</desc>
    <defs></defs>
    <g id="16px-solid" stroke="none" stroke-width="1" fill="none" fill-rule="evenodd" transform="translate(-144.000000, -384.000000)">
        <g id="lock-solid" transform="translate(144.000000, 384.000000)" fill="#000000">
            <path d="M5,3.9999 C5,2.3429 6.343,0.9999 8,0.9999 C9.657,0.9999 11,2.3429 11,3.9999 L11,5.9999 L5,5.9999 L5,3.9999 Z M8,-0.0001 C5.791,-0.0001 4,1.7909 4,3.9999 L4,5.9999 L2.5,5.9999 C1.671,5.9999 1,6.6719 1,7.4999 L1,14.4999 C1,15.3289 1.671,15.9999 2.5,15.9999 L13.5,15.9999 C14.329,15.9999 15,15.3289 15,14.4999 L15,7.4999 C15,6.6719 14.329,5.9999 13.5,5.9999 L12,5.9999 L12,3.9999 C12,1.7909 10.209,-0.0001 8,-0.0001 Z" id="shape"></path>
        </g>
    </g>
</svg>