<svg xmlns="http://www.w3.org/2000/svg" width="16" height="16" viewBox="0 0 16 16">
  <path fill-rule="evenodd" d="M5.54600002,11.2089999 L5.50700002,11.2089999 C5.35099924,11.4863346 5.09966842,11.7138324 4.75300002,11.8914999 C4.40633162,12.0691675 4.01200223,12.1579999 3.57000002,12.1579999 C3.31866543,12.1579999 3.05650138,12.1255002 2.78350002,12.0604999 C2.51049865,11.9954996 2.25916783,11.8871673 2.02950002,11.7354999 C1.7998322,11.5838325 1.60916744,11.3845012 1.45750002,11.1374999 C1.30583259,10.8904987 1.23000002,10.5850017 1.23000002,10.2209999 C1.23000002,9.75299758 1.36216536,9.38033464 1.62650002,9.10299992 C1.89083467,8.8256652 2.23099794,8.61333399 2.64700002,8.46599992 C3.0630021,8.31866585 3.52449748,8.22116683 4.03150002,8.17349992 C4.53850255,8.12583302 5.03466426,8.10199992 5.52000002,8.10199992 L5.52000002,7.94599992 C5.52000002,7.55599797 5.37916809,7.26783419 5.09750002,7.08149992 C4.81583194,6.89516566 4.48000197,6.80199992 4.09000002,6.80199992 C3.76066504,6.80199992 3.44433487,6.87133256 3.14100002,7.00999992 C2.83766517,7.14866728 2.58633435,7.31766559 2.38700002,7.51699992 L1.58100002,6.56799992 C1.93633513,6.23866494 2.34583103,5.99166741 2.80950002,5.82699992 C3.273169,5.66233243 3.74333097,5.57999992 4.22000002,5.57999992 C4.77466946,5.57999992 5.23183155,5.65799914 5.59150002,5.81399992 C5.95116848,5.9700007 6.23499898,6.17366533 6.44300002,6.42499992 C6.65100106,6.67633451 6.79616627,6.95799836 6.87850002,7.26999992 C6.96083376,7.58200148 7.00200002,7.89399836 7.00200002,8.20599992 L7.00200002,12.0019999 L5.54600002,12.0019999 L5.54600002,11.2089999 Z M5.51999996,9.15499992 L5.16899996,9.15499992 C4.91766537,9.15499992 4.65333468,9.16583315 4.37599996,9.18749992 C4.09866524,9.2091667 3.84300113,9.25683289 3.60899996,9.33049992 C3.37499879,9.40416696 3.18000074,9.50816592 3.02399996,9.64249992 C2.86799918,9.77683393 2.78999996,9.96099875 2.78999996,10.1949999 C2.78999996,10.342334 2.82249964,10.4658328 2.88749996,10.5654999 C2.95250029,10.6651671 3.03699944,10.745333 3.14099996,10.8059999 C3.24500048,10.8666669 3.36199931,10.9099998 3.49199996,10.9359999 C3.62200061,10.9620001 3.75199931,10.9749999 3.88199996,10.9749999 C4.41933598,10.9749999 4.82666524,10.8320014 5.10399996,10.5459999 C5.38133468,10.2599985 5.51999996,9.87000239 5.51999996,9.37599992 L5.51999996,9.15499992 Z M12.5459995,11.2089999 L12.5069995,11.2089999 C12.3509988,11.4863346 12.0996679,11.7138324 11.7529995,11.8914999 C11.4063311,12.0691675 11.0120018,12.1579999 10.5699995,12.1579999 C10.318665,12.1579999 10.0565009,12.1255002 9.78349954,12.0604999 C9.51049818,11.9954996 9.25916736,11.8871673 9.02949954,11.7354999 C8.79983173,11.5838325 8.60916697,11.3845012 8.45749954,11.1374999 C8.30583212,10.8904987 8.22999954,10.5850017 8.22999954,10.2209999 C8.22999954,9.75299758 8.36216489,9.38033464 8.62649954,9.10299992 C8.8908342,8.8256652 9.23099746,8.61333399 9.64699954,8.46599992 C10.0630016,8.31866585 10.524497,8.22116683 11.0314995,8.17349992 C11.5385021,8.12583302 12.0346638,8.10199992 12.5199995,8.10199992 L12.5199995,7.94599992 C12.5199995,7.55599797 12.3791676,7.26783419 12.0974995,7.08149992 C11.8158315,6.89516566 11.4800015,6.80199992 11.0899995,6.80199992 C10.7606646,6.80199992 10.4443344,6.87133256 10.1409995,7.00999992 C9.83766469,7.14866728 9.58633387,7.31766559 9.38699954,7.51699992 L8.58099954,6.56799992 C8.93633465,6.23866494 9.34583056,5.99166741 9.80949954,5.82699992 C10.2731685,5.66233243 10.7433305,5.57999992 11.2199995,5.57999992 C11.774669,5.57999992 12.2318311,5.65799914 12.5914995,5.81399992 C12.951168,5.9700007 13.2349985,6.17366533 13.4429995,6.42499992 C13.6510006,6.67633451 13.7961658,6.95799836 13.8784995,7.26999992 C13.9608333,7.58200148 14.0019995,7.89399836 14.0019995,8.20599992 L14.0019995,12.0019999 L12.5459995,12.0019999 L12.5459995,11.2089999 Z M12.52,9.15499992 L12.169,9.15499992 C11.9176654,9.15499992 11.6533347,9.16583315 11.376,9.18749992 C11.0986652,9.2091667 10.8430011,9.25683289 10.609,9.33049992 C10.3749988,9.40416696 10.1800007,9.50816592 10.024,9.64249992 C9.86799918,9.77683393 9.78999996,9.96099875 9.78999996,10.1949999 C9.78999996,10.342334 9.82249964,10.4658328 9.88749996,10.5654999 C9.95250029,10.6651671 10.0369994,10.745333 10.141,10.8059999 C10.2450005,10.8666669 10.3619993,10.9099998 10.492,10.9359999 C10.6220006,10.9620001 10.7519993,10.9749999 10.882,10.9749999 C11.419336,10.9749999 11.8266652,10.8320014 12.104,10.5459999 C12.3813347,10.2599985 12.52,9.87000239 12.52,9.37599992 L12.52,9.15499992 Z"/>
</svg>
