<?xml version="1.0" encoding="UTF-8"?>
<svg width="16px" height="16px" viewBox="0 0 16 16" version="1.1" xmlns="http://www.w3.org/2000/svg" xmlns:xlink="http://www.w3.org/1999/xlink">
    <!-- Generator: Sketch 48.2 (47327) - http://www.bohemiancoding.com/sketch -->
    <title>magic-wand-solid</title>
    <desc>Created with Sketch.</desc>
    <defs></defs>
    <g id="16px-solid" stroke="none" stroke-width="1" fill="none" fill-rule="evenodd" transform="translate(-192.000000, -48.000000)">
        <g id="magic-wand-solid" transform="translate(192.000000, 48.000000)" fill="#000000" fill-rule="nonzero">
            <path d="M12.2803301,4.78033009 C11.9874369,5.0732233 11.5125631,5.0732233 11.2196699,4.78033009 C10.9267767,4.48743687 10.9267767,4.01256313 11.2196699,3.71966991 L13.7196699,1.21966991 C14.0125631,0.926776695 14.4874369,0.926776695 14.7803301,1.21966991 C15.0732233,1.51256313 15.0732233,1.98743687 14.7803301,2.28033009 L12.2803301,4.78033009 Z M11.2196699,9.28033009 C10.9267767,8.98743687 10.9267767,8.51256313 11.2196699,8.21966991 C11.5125631,7.9267767 11.9874369,7.9267767 12.2803301,8.21966991 L14.7803301,10.7196699 C15.0732233,11.0125631 15.0732233,11.4874369 14.7803301,11.7803301 C14.4874369,12.0732233 14.0125631,12.0732233 13.7196699,11.7803301 L11.2196699,9.28033009 Z M7.78207837,3.71804089 C8.07491249,4.0109932 8.07481669,4.48586692 7.78186438,4.77870104 C7.48891208,5.07153516 7.01403836,5.07143936 6.72120423,4.77848706 L4.22158809,2.27786212 C3.92875397,1.98490982 3.92884978,1.5100361 4.22180208,1.21720197 C4.51475438,0.924367852 4.98962811,0.924463657 5.28246223,1.21741596 L7.78207837,3.71804089 Z M6.71948347,8.21985643 C7.01227368,7.92686024 7.48714739,7.92669326 7.78014357,8.21948347 C8.07313976,8.51227368 8.07330674,8.98714739 7.78051653,9.28014357 L1.28051653,15.7847163 C0.98772632,16.0777125 0.512852615,16.0778795 0.219856425,15.7850893 C-0.0731397647,15.4922991 -0.073306743,15.0174254 0.219483469,14.7244292 L6.71948347,8.21985643 Z M10.25,3.24731121 C10.25,3.66152477 9.91421356,3.99731121 9.5,3.99731121 C9.08578644,3.99731121 8.75,3.66152477 8.75,3.24731121 L8.75,0.751250266 C8.75,0.337036703 9.08578644,0.00125026554 9.5,0.00125026554 C9.91421356,0.00125026554 10.25,0.337036703 10.25,0.751250266 L10.25,3.24731121 Z M12.7501877,7.25 C12.3359741,7.25 12.0001877,6.91421356 12.0001877,6.5 C12.0001877,6.08578644 12.3359741,5.75 12.7501877,5.75 L15.2485862,5.75 C15.6627998,5.75 15.9985862,6.08578644 15.9985862,6.5 C15.9985862,6.91421356 15.6627998,7.25 15.2485862,7.25 L12.7501877,7.25 Z M8.75,9.74807727 C8.75,9.33386371 9.08578644,8.99807727 9.5,8.99807727 C9.91421356,8.99807727 10.25,9.33386371 10.25,9.74807727 L10.25,12.2530221 C10.25,12.6672356 9.91421356,13.0030221 9.5,13.0030221 C9.08578644,13.0030221 8.75,12.6672356 8.75,12.2530221 L8.75,9.74807727 Z M6.24755792,5.75 C6.66177149,5.75 6.99755792,6.08578644 6.99755792,6.5 C6.99755792,6.91421356 6.66177149,7.25 6.24755792,7.25 L3.75466706,7.25 C3.34045349,7.25 3.00466706,6.91421356 3.00466706,6.5 C3.00466706,6.08578644 3.34045349,5.75 3.75466706,5.75 L6.24755792,5.75 Z" id="shape"></path>
        </g>
    </g>
</svg>