<?xml version="1.0" encoding="UTF-8"?>
<svg width="16px" height="16px" viewBox="0 0 16 16" version="1.1" xmlns="http://www.w3.org/2000/svg" xmlns:xlink="http://www.w3.org/1999/xlink">
    <!-- Generator: Sketch 48.2 (47327) - http://www.bohemiancoding.com/sketch -->
    <title>map-solid</title>
    <desc>Created with Sketch.</desc>
    <defs></defs>
    <g id="16px-solid" stroke="none" stroke-width="1" fill="none" fill-rule="evenodd" transform="translate(-48.000000, -144.000000)">
        <g id="map-solid" transform="translate(48.000000, 144.000000)" fill="#000000" fill-rule="nonzero">
            <path d="M5.5,13.0385165 L0.685695338,14.9642383 C0.357263142,15.0956112 0,14.8537323 0,14.5 L0,3.5 C0,3.29554771 0.124475472,3.11169333 0.314304662,3.03576165 L5.31430466,1.03576165 C5.43351018,0.988079448 5.56648982,0.988079448 5.68569534,1.03576165 L10.5476909,2.98055987 L15.4019419,2.00970966 C15.7113379,1.94783047 16,2.18447679 16,2.5 L16,13.5 C16,13.7383405 15.8317702,13.9435479 15.5980581,13.9902903 L10.5980581,14.9902903 C10.5029488,15.0093122 10.4043602,15.0002606 10.3143047,14.9642383 L5.5,13.0385165 Z M10,6.5 L10,11.5 C10,11.7761424 10.2238576,12 10.5,12 C10.7761424,12 11,11.7761424 11,11.5 L11,6.5 C11,6.22385763 10.7761424,6 10.5,6 C10.2238576,6 10,6.22385763 10,6.5 Z M5,4.5 L5,9.5 C5,9.77614237 5.22385763,10 5.5,10 C5.77614237,10 6,9.77614237 6,9.5 L6,4.5 C6,4.22385763 5.77614237,4 5.5,4 C5.22385763,4 5,4.22385763 5,4.5 Z" id="shape"></path>
        </g>
    </g>
</svg>