<?xml version="1.0" encoding="UTF-8"?>
<svg width="16px" height="16px" viewBox="0 0 16 16" version="1.1" xmlns="http://www.w3.org/2000/svg" xmlns:xlink="http://www.w3.org/1999/xlink">
    <!-- Generator: Sketch 48.2 (47327) - http://www.bohemiancoding.com/sketch -->
    <title>pin-map-solid</title>
    <desc>Created with Sketch.</desc>
    <defs></defs>
    <g id="16px-solid" stroke="none" stroke-width="1" fill="none" fill-rule="evenodd" transform="translate(-480.000000, -336.000000)">
        <g id="pin-map-solid" transform="translate(480.000000, 336.000000)" fill="#000000" fill-rule="nonzero">
            <path d="M3.22948327,11.0798653 C3.46151724,10.9301494 3.77098665,10.9968814 3.92070253,11.2289154 C4.07041841,11.4609494 4.00368641,11.7704188 3.77165244,11.9201347 C3.2739426,12.2412733 3,12.6525417 3,13 C3,13.9968909 5.20684001,15 8,15 C10.79316,15 13,13.9968909 13,13 C13,12.6499766 12.7283926,12.2413928 12.2295229,11.920526 C11.9972728,11.7711457 11.9300936,11.461773 12.079474,11.2295229 C12.2288543,10.9972728 12.538227,10.9300936 12.7704771,11.079474 C13.5331294,11.5700024 14,12.272324 14,13 C14,14.7645328 11.2819723,16 8,16 C4.71802775,16 2,14.7645328 2,13 C2,12.2746189 2.46895098,11.5705855 3.22948327,11.0798653 Z M8.30421603,13.7597742 C8.1247432,13.8973702 7.8752568,13.8973702 7.69578397,13.7597742 C4.88281426,11.6031612 3,8.68425594 3,6 C3,3.26931217 5.26931217,1 8,1 C10.7306878,1 13,3.26931217 13,6 C13,8.68781998 11.1197767,11.6011748 8.30421603,13.7597742 Z M8,8 C9.1045695,8 10,7.1045695 10,6 C10,4.8954305 9.1045695,4 8,4 C6.8954305,4 6,4.8954305 6,6 C6,7.1045695 6.8954305,8 8,8 Z" id="shape"></path>
        </g>
    </g>
</svg>