<?xml version="1.0" encoding="UTF-8"?>
<svg width="16px" height="16px" viewBox="0 0 16 16" version="1.1" xmlns="http://www.w3.org/2000/svg" xmlns:xlink="http://www.w3.org/1999/xlink">
    <!-- Generator: Sketch 48.2 (47327) - http://www.bohemiancoding.com/sketch -->
    <title>maximize-solid</title>
    <desc>Created with Sketch.</desc>
    <defs></defs>
    <g id="16px-solid" stroke="none" stroke-width="1" fill="none" fill-rule="evenodd" transform="translate(-48.000000, -946.000000)">
        <g id="maximize-solid" transform="translate(48.000000, 946.000000)" fill="#000000" fill-rule="nonzero">
            <path d="M12.5857864,2 L11,2 C10.4477153,2 10,1.55228475 10,1 C10,0.44771525 10.4477153,0 11,0 L15,0 C15.5522847,0 16,0.44771525 16,1 L16,5 C16,5.55228475 15.5522847,6 15,6 C14.4477153,6 14,5.55228475 14,5 L14,3.41421356 L10.7071068,6.70710678 C10.3165825,7.09763107 9.68341751,7.09763107 9.29289322,6.70710678 C8.90236893,6.31658249 8.90236893,5.68341751 9.29289322,5.29289322 L12.5857864,2 Z M3.41421356,14 L4.5,14 C5.05228475,14 5.5,14.4477153 5.5,15 C5.5,15.5522847 5.05228475,16 4.5,16 L1,16 C0.44771525,16 0,15.5522847 0,15 L0,11.5 C0,10.9477153 0.44771525,10.5 1,10.5 C1.55228475,10.5 2,10.9477153 2,11.5 L2,12.5857864 L5.29289322,9.29289322 C5.68341751,8.90236893 6.31658249,8.90236893 6.70710678,9.29289322 C7.09763107,9.68341751 7.09763107,10.3165825 6.70710678,10.7071068 L3.41421356,14 Z" id="shape"></path>
        </g>
    </g>
</svg>