<?xml version="1.0" encoding="UTF-8"?>
<svg width="16px" height="16px" viewBox="0 0 16 16" version="1.1" xmlns="http://www.w3.org/2000/svg" xmlns:xlink="http://www.w3.org/1999/xlink">
    <!-- Generator: Sketch 48.2 (47327) - http://www.bohemiancoding.com/sketch -->
    <title>megaphone-solid</title>
    <desc>Created with Sketch.</desc>
    <defs></defs>
    <g id="16px-solid" stroke="none" stroke-width="1" fill="none" fill-rule="evenodd" transform="translate(-240.000000, -96.000000)">
        <g id="megaphone-solid" transform="translate(240.000000, 96.000000)" fill="#000000">
            <path d="M12.02,2.07926897 L1.761,5.54419684 C0.708,5.90018943 0,6.88716888 0,7.99814576 C0,9.10912263 0.708,10.0961021 1.761,10.4520947 L3,10.871086 L3,13.5000312 C3,14.329014 3.671,15 4.5,15 C5.087,15 5.621,14.6580071 5.864,14.1230183 L6.769,12.1440595 L12.02,13.9180225 C12.174,13.9710214 12.337,13.9980209 12.5,13.9980209 C13.329,13.9980209 14,13.3260348 14,12.4980521 L14,9.99810412 C15.104,9.99810412 16,9.10212278 16,7.99814576 C16,6.89416874 15.104,5.99818739 14,5.99818739 L14,3.50023939 C14,3.33724278 13.973,3.17524615 13.921,3.02024938 C13.656,2.23526572 12.805,1.81427449 12.02,2.07926897 Z" id="shape"></path>
        </g>
    </g>
</svg>