<?xml version="1.0" encoding="UTF-8"?>
<svg width="16px" height="16px" viewBox="0 0 16 16" version="1.1" xmlns="http://www.w3.org/2000/svg" xmlns:xlink="http://www.w3.org/1999/xlink">
    <!-- Generator: Sketch 48.2 (47327) - http://www.bohemiancoding.com/sketch -->
    <title>minimize-solid</title>
    <desc>Created with Sketch.</desc>
    <defs></defs>
    <g id="16px-solid" stroke="none" stroke-width="1" fill="none" fill-rule="evenodd" transform="translate(-96.000000, -946.000000)">
        <g id="minimize-solid" transform="translate(96.000000, 946.000000)" fill="#000000" fill-rule="nonzero">
            <path d="M11,3.58578644 L14.2928932,0.292893219 C14.6834175,-0.0976310729 15.3165825,-0.0976310729 15.7071068,0.292893219 C16.0976311,0.683417511 16.0976311,1.31658249 15.7071068,1.70710678 L12.4142136,5 L14,5 C14.5522847,5 15,5.44771525 15,6 C15,6.55228475 14.5522847,7 14,7 L10,7 C9.44771525,7 9,6.55228475 9,6 L9,2 C9,1.44771525 9.44771525,1 10,1 C10.5522847,1 11,1.44771525 11,2 L11,3.58578644 Z M3.58578644,11 L2.5,11 C1.94771525,11 1.5,10.5522847 1.5,10 C1.5,9.44771525 1.94771525,9 2.5,9 L6,9 C6.55228475,9 7,9.44771525 7,10 L7,13.5 C7,14.0522847 6.55228475,14.5 6,14.5 C5.44771525,14.5 5,14.0522847 5,13.5 L5,12.4142136 L1.70710678,15.7071068 C1.31658249,16.0976311 0.683417511,16.0976311 0.292893219,15.7071068 C-0.0976310729,15.3165825 -0.0976310729,14.6834175 0.292893219,14.2928932 L3.58578644,11 Z" id="shape"></path>
        </g>
    </g>
</svg>