<?xml version="1.0" encoding="UTF-8"?>
<svg width="16px" height="16px" viewBox="0 0 16 16" version="1.1" xmlns="http://www.w3.org/2000/svg" xmlns:xlink="http://www.w3.org/1999/xlink">
    <!-- Generator: Sketch 48.2 (47327) - http://www.bohemiancoding.com/sketch -->
    <title>money-solid</title>
    <desc>Created with Sketch.</desc>
    <defs></defs>
    <g id="16px-solid" stroke="none" stroke-width="1" fill="none" fill-rule="evenodd" transform="translate(-192.000000, -240.000000)">
        <g id="money-solid" transform="translate(192.000000, 240.000000)" fill="#000000">
            <path d="M8,-0.0001 C3.582,-0.0001 0,3.5819 0,7.9999 C0,12.4179 3.582,15.9999 8,15.9999 C12.418,15.9999 16,12.4179 16,7.9999 C16,3.5819 12.418,-0.0001 8,-0.0001 Z M7.563,7.285 C6.483,6.79 6,6.187 6,5.5 C6,4.752 6.775,4.054 7.862,3.999 L7.563,7.285 Z M8.437,8.715 C9.517,9.21 10,9.813 10,10.5 C10,11.245 9.224,11.941 8.139,11.996 L8.437,8.715 Z M8.532,7.668 L8.861,4.051 C9.45,4.14 9.863,4.344 10.053,4.723 C10.176,4.971 10.477,5.071 10.724,4.947 C10.971,4.824 11.071,4.523 10.947,4.276 C10.648,3.679 10.091,3.319 9.372,3.138 C9.228,3.101 9.09,3.074 8.952,3.053 L8.998,2.545 C9.023,2.27 8.82,2.027 8.545,2.002 C8.271,1.977 8.027,2.18 8.002,2.455 L7.953,2.996 C6.295,3.017 5,4.145 5,5.5 C5,6.711 5.843,7.671 7.468,8.332 L7.139,11.946 C6.547,11.859 6.137,11.656 5.947,11.276 C5.824,11.029 5.523,10.929 5.276,11.053 C5.029,11.176 4.929,11.476 5.053,11.723 C5.352,12.322 5.909,12.68 6.628,12.86 C6.772,12.896 6.91,12.924 7.048,12.944 L7.002,13.455 C6.977,13.73 7.18,13.973 7.455,13.998 C7.73,14.023 7.973,13.82 7.998,13.545 L8.047,13 C9.703,12.978 11,11.853 11,10.5 C11,9.288 10.157,8.329 8.532,7.668 Z" id="shape"></path>
        </g>
    </g>
</svg>