<?xml version="1.0" encoding="UTF-8"?>
<svg width="16px" height="16px" viewBox="0 0 16 16" version="1.1" xmlns="http://www.w3.org/2000/svg" xmlns:xlink="http://www.w3.org/1999/xlink">
    <!-- Generator: Sketch 48.2 (47327) - http://www.bohemiancoding.com/sketch -->
    <title>music-note -solid</title>
    <desc>Created with Sketch.</desc>
    <defs></defs>
    <g id="16px-solid" stroke="none" stroke-width="1" fill="none" fill-rule="evenodd" transform="translate(-192.000000, -96.000000)">
        <g id="music-note-solid" transform="translate(192.000000, 96.000000)" fill="#000000">
            <path d="M14.206,0.029 L6.206,1.627 C5.505,1.767 5,2.383 5,3.098 L5,10.776 C4.468,10.298 3.772,9.998 3,9.998 C1.343,9.998 0,11.341 0,12.998 C0,14.655 1.343,15.998 3,15.998 C4.657,15.998 6,14.655 6,12.998 L6,5.098 C6,4.859 6.168,4.654 6.402,4.607 L14.402,3.01 C14.435,3.003 14.467,3 14.5,3 C14.776,3 15,3.224 15,3.5 L15,9.776 C14.468,9.298 13.772,8.998 13,8.998 C11.343,8.998 10,10.341 10,11.998 C10,13.655 11.343,14.998 13,14.998 C14.657,14.998 16,13.655 16,11.998 L16,1.5 C16,0.672 15.329,-1.77635684e-15 14.5,-1.77635684e-15 C14.401,-1.77635684e-15 14.303,0.01 14.206,0.029 Z" id="shape"></path>
        </g>
    </g>
</svg>