<?xml version="1.0" encoding="UTF-8"?>
<svg width="16px" height="16px" viewBox="0 0 16 16" version="1.1" xmlns="http://www.w3.org/2000/svg" xmlns:xlink="http://www.w3.org/1999/xlink">
    <!-- Generator: Sketch 48.2 (47327) - http://www.bohemiancoding.com/sketch -->
    <title>newspaper-solid</title>
    <desc>Created with Sketch.</desc>
    <defs></defs>
    <g id="16px-solid" stroke="none" stroke-width="1" fill="none" fill-rule="evenodd" transform="translate(-48.000000, -336.000000)">
        <g id="newspaper-solid" transform="translate(48.000000, 336.000000)" fill="#000000">
            <path d="M5.5,12.9999 L11.5,12.9999 C11.776,12.9999 12,12.7759 12,12.4999 C12,12.2239 11.776,11.9999 11.5,11.9999 L5.5,11.9999 C5.224,11.9999 5,12.2239 5,12.4999 C5,12.7759 5.224,12.9999 5.5,12.9999 M13,6 C13.552,6 14,5.552 14,5 L14,4 C14,3.448 13.552,3 13,3 L6,3 C5.448,3 5,3.448 5,4 L5,5 C5,5.552 5.448,6 6,6 L13,6 Z M1,13.9999 L1,4.9999 L3,4.9999 L3,13.9999 C3,14.5519 2.552,14.9999 2,14.9999 C1.448,14.9999 1,14.5519 1,13.9999 Z M15,15.9999 C15.552,15.9999 16,15.5519 16,14.9999 L16,2.4999 C16,1.1189 14.881,-0.0001 13.5,-0.0001 L4,-0.0001 C3.448,-0.0001 3,0.4479 3,0.9999 L3,3.9999 L1,3.9999 C0.448,3.9999 0,4.4479 0,4.9999 L0,13.9999 C0,15.1039 0.896,15.9999 2,15.9999 L15,15.9999 Z M5.5,9.9999 L13.5,9.9999 C13.776,9.9999 14,9.7759 14,9.4999 C14,9.2239 13.776,8.9999 13.5,8.9999 L5.5,8.9999 C5.224,8.9999 5,9.2239 5,9.4999 C5,9.7759 5.224,9.9999 5.5,9.9999" id="shape"></path>
        </g>
    </g>
</svg>