<?xml version="1.0" encoding="UTF-8"?>
<svg width="16px" height="16px" viewBox="0 0 16 16" version="1.1" xmlns="http://www.w3.org/2000/svg" xmlns:xlink="http://www.w3.org/1999/xlink">
    <!-- Generator: Sketch 48.2 (47327) - http://www.bohemiancoding.com/sketch -->
    <title>news-solid</title>
    <desc>Created with Sketch.</desc>
    <defs></defs>
    <g id="16px-solid" stroke="none" stroke-width="1" fill="none" fill-rule="evenodd" transform="translate(-144.000000, -192.000000)">
        <g id="news-solid" transform="translate(144.000000, 192.000000)" fill="#000000" fill-rule="nonzero">
            <path d="M3.5,1 L12.5,1 C13.8807119,1 15,2.11928813 15,3.5 L15,13.5 C15,13.7761424 14.7761424,14 14.5,14 L5.5,14 C4.11928813,14 3,12.8807119 3,11.5 L3,1.5 C3,1.22385763 3.22385763,1 3.5,1 Z M5.5,8 L12.5,8 C12.7761424,8 13,7.77614237 13,7.5 C13,7.22385763 12.7761424,7 12.5,7 L5.5,7 C5.22385763,7 5,7.22385763 5,7.5 C5,7.77614237 5.22385763,8 5.5,8 Z M5.5,11 L12.5,11 C12.7761424,11 13,10.7761424 13,10.5 C13,10.2238576 12.7761424,10 12.5,10 L5.5,10 C5.22385763,10 5,10.2238576 5,10.5 C5,10.7761424 5.22385763,11 5.5,11 Z M5.5,5 L9.5,5 C9.77614237,5 10,4.77614237 10,4.5 C10,4.22385763 9.77614237,4 9.5,4 L5.5,4 C5.22385763,4 5,4.22385763 5,4.5 C5,4.77614237 5.22385763,5 5.5,5 Z M1,6.5 C1,5 1.5,4.5 2,4 C2,5.66666667 2,8.5 2,12.5 C2,13.8807119 3.11928813,15 4.5,15 C8.83333333,15 12,15 14,15 C13.5,15.5 13,16 11.5,16 C9.16666667,16 6.83333333,16 4.5,16 C2.56700338,16 1,14.4329966 1,12.5 C1,10.5 1,8.5 1,6.5 Z" id="shape"></path>
        </g>
    </g>
</svg>