<svg xmlns="http://www.w3.org/2000/svg" width="64" height="64" viewBox="0 0 64 64"><path d="M57 16.7C53.4 12.7 47 8 36.7 8c-4.1 0-5.7.5-6.1 1.7-.5 1.4.9 2.6 2.5 4 1.2 1 2.9 2.5 2.8 3.5 0 .4-.4.7-.8 1-1.6.3-4.9-.2-8.5-.7-3.5-.6-7.5-1.2-11.2-1.2-2.5 0-4.6.3-6.4.9C-.4 20.3-.7 27.7.4 34.5 2.3 47.1 15.4 56 32.2 56 49.7 56 64 46.2 64 34.3c0-6.3-2.6-12.7-7-17.6zM8 28c0-2.2 2.7-4 6-4s6 1.8 6 4-2.7 4-6 4-6-1.8-6-4zm14 16c-3.3 0-6-1.8-6-4s2.7-4 6-4 6 1.8 6 4-2.7 4-6 4zm16 4c-3.3 0-6-1.8-6-4s2.7-4 6-4 6 1.8 6 4-2.7 4-6 4zm6-24c-2.2 0-4-.9-4-2s1.8-2 4-2 4 .9 4 2-1.8 2-4 2zm8 12c-2.2 0-4-.9-4-2s1.8-2 4-2 4 .9 4 2-1.8 2-4 2z" fill-rule="evenodd" clip-rule="evenodd"/></svg>