<?xml version="1.0" encoding="UTF-8"?>
<svg width="16px" height="16px" viewBox="0 0 16 16" version="1.1" xmlns="http://www.w3.org/2000/svg" xmlns:xlink="http://www.w3.org/1999/xlink">
    <!-- Generator: Sketch 48.2 (47327) - http://www.bohemiancoding.com/sketch -->
    <title>pencil-write-solid</title>
    <desc>Created with Sketch.</desc>
    <defs>
        <path d="M10.3074546,2.59955628 L13.272353,5.56526186 C13.4600662,5.75302622 13.7618003,5.76133609 13.9595634,5.58418788 L14.173,5.393 C14.221,5.349 14.221,5.349 14.268,5.303 C15.244,4.335 15.244,2.761 14.268,1.793 C13.739,1.266 13.043,1 12.346,1 C11.696,1 11.045,1.231 10.528,1.694 L10.3274754,1.87359439 C10.1217733,2.05782591 10.104368,2.37392958 10.2885995,2.57963169 C10.2947011,2.58644441 10.3009885,2.59308844 10.3074546,2.59955628 Z M2.159,9.186 C2.085,9.251 2.033,9.338 2.009,9.433 L1.015,13.385 C0.924,13.747 1.253,14.074 1.618,13.985 L5.592,12.995 C5.67,12.977 5.743,12.938 5.803,12.885 L12.4662706,6.92044275 C12.6720221,6.73626641 12.6895123,6.42016743 12.505336,6.21441591 C12.4991912,6.20755132 12.4928579,6.20085789 12.4863433,6.19434327 L9.52153056,3.22953056 C9.33385776,3.04185776 9.03225267,3.03351956 8.83449762,3.21053678 L2.159,9.186 Z M0.5,15 C0.224,15 0,15.225 0,15.5 C0,15.776 0.224,16 0.5,16 L15.5,16 C15.776,16 16,15.776 16,15.5 C16,15.225 15.776,15 15.5,15 L0.5,15 Z" id="path-1"></path>
    </defs>
    <g id="16px-solid" stroke="none" stroke-width="1" fill="none" fill-rule="evenodd" transform="translate(-96.000000, -336.000000)">
        <g id="pencil-write-solid" transform="translate(96.000000, 336.000000)">
            <mask id="mask-2" fill="white">
                <use xlink:href="#path-1"></use>
            </mask>
            <use id="shape" fill="#000000" xlink:href="#path-1"></use>
        </g>
    </g>
</svg>