<?xml version="1.0" encoding="UTF-8"?>
<svg width="16px" height="16px" viewBox="0 0 16 16" version="1.1" xmlns="http://www.w3.org/2000/svg" xmlns:xlink="http://www.w3.org/1999/xlink">
    <!-- Generator: Sketch 48.2 (47327) - http://www.bohemiancoding.com/sketch -->
    <title>performance-solid</title>
    <desc>Created with Sketch.</desc>
    <defs></defs>
    <g id="16px-solid" stroke="none" stroke-width="1" fill="none" fill-rule="evenodd" transform="translate(-288.000000, -384.000000)">
        <g id="performance-solid" transform="translate(288.000000, 384.000000)" fill="#000000">
            <path d="M0.5,10.9999 C0.224,10.9999 0,11.2239 0,11.4999 C0,11.7759 0.224,11.9999 0.5,11.9999 L2.05,11.9999 C2.249,12.9789 3.021,13.7509 4,13.9499 L4,15.4999 C4,15.7759 4.224,15.9999 4.5,15.9999 C4.776,15.9999 5,15.7759 5,15.4999 L5,13.9999 L6,13.9999 L6,15.4999 C6,15.7759 6.224,15.9999 6.5,15.9999 C6.776,15.9999 7,15.7759 7,15.4999 L7,13.9999 L9,13.9999 L9,15.4999 C9,15.7759 9.224,15.9999 9.5,15.9999 C9.776,15.9999 10,15.7759 10,15.4999 L10,13.9999 L11,13.9999 L11,15.4999 C11,15.7759 11.224,15.9999 11.5,15.9999 C11.776,15.9999 12,15.7759 12,15.4999 L12,13.9499 C12.979,13.7509 13.751,12.9789 13.95,11.9999 L15.5,11.9999 C15.776,11.9999 16,11.7759 16,11.4999 C16,11.2239 15.776,10.9999 15.5,10.9999 L14,10.9999 L14,9.9999 L15.5,9.9999 C15.776,9.9999 16,9.7759 16,9.4999 C16,9.2239 15.776,8.9999 15.5,8.9999 L14,8.9999 L14,6.9999 L15.5,6.9999 C15.776,6.9999 16,6.7759 16,6.4999 C16,6.2239 15.776,5.9999 15.5,5.9999 L14,5.9999 L14,4.9999 L15.5,4.9999 C15.776,4.9999 16,4.7759 16,4.4999 C16,4.2239 15.776,3.9999 15.5,3.9999 L13.95,3.9999 C13.751,3.0209 12.979,2.2499 12,2.0509 L12,0.4999 C12,0.2239 11.776,-0.0001 11.5,-0.0001 C11.224,-0.0001 11,0.2239 11,0.4999 L11,1.9999 L10,1.9999 L10,0.4999 C10,0.2239 9.776,-0.0001 9.5,-0.0001 C9.224,-0.0001 9,0.2239 9,0.4999 L9,1.9999 L7,1.9999 L7,0.4999 C7,0.2239 6.776,-0.0001 6.5,-0.0001 C6.224,-0.0001 6,0.2239 6,0.4999 L6,1.9999 L5,1.9999 L5,0.4999 C5,0.2239 4.776,-0.0001 4.5,-0.0001 C4.224,-0.0001 4,0.2239 4,0.4999 L4,2.0509 C3.021,2.2499 2.249,3.0209 2.05,3.9999 L0.5,3.9999 C0.224,3.9999 0,4.2239 0,4.4999 C0,4.7759 0.224,4.9999 0.5,4.9999 L2,4.9999 L2,5.9999 L0.5,5.9999 C0.224,5.9999 0,6.2239 0,6.4999 C0,6.7759 0.224,6.9999 0.5,6.9999 L2,6.9999 L2,8.9999 L0.5,8.9999 C0.224,8.9999 0,9.2239 0,9.4999 C0,9.7759 0.224,9.9999 0.5,9.9999 L2,9.9999 L2,10.9999 L0.5,10.9999 Z M6,5.9999 L8.793,5.9999 L10,7.2069 L10,9.9999 L6,9.9999 L6,5.9999 Z M5.5,10.9999 L10.5,10.9999 C10.776,10.9999 11,10.7759 11,10.4999 L11,6.9999 C11,6.8679 10.947,6.7399 10.854,6.6459 L9.354,5.1459 C9.26,5.0529 9.133,4.9999 9,4.9999 L5.5,4.9999 C5.224,4.9999 5,5.2239 5,5.4999 L5,10.4999 C5,10.7759 5.224,10.9999 5.5,10.9999 Z" id="shape"></path>
        </g>
    </g>
</svg>