<?xml version="1.0" encoding="UTF-8"?>
<svg width="16px" height="16px" viewBox="0 0 16 16" version="1.1" xmlns="http://www.w3.org/2000/svg" xmlns:xlink="http://www.w3.org/1999/xlink">
    <!-- Generator: Sketch 48.2 (47327) - http://www.bohemiancoding.com/sketch -->
    <title>phone-call-solid</title>
    <desc>Created with Sketch.</desc>
    <defs></defs>
    <g id="16px-solid" stroke="none" stroke-width="1" fill="none" fill-rule="evenodd" transform="translate(-192.000000, -144.000000)">
        <g id="phone-call-solid" transform="translate(192.000000, 144.000000)" fill="#000000" fill-rule="nonzero">
            <path d="M11.1836958,9.89574356 C11.6936026,9.61173816 12.3218364,9.6495118 12.794093,9.99257147 L15.3812391,11.8719427 C15.4852675,11.9475116 15.5791553,12.0361511 15.6605938,12.1356813 C16.1853354,12.7769954 16.0912012,13.7225705 15.4503392,14.2476824 L13.7262434,15.6603781 C13.3200566,15.993201 12.7695362,16.0892592 12.2747937,15.9136377 C9.90523132,15.0726492 7.53055653,13.5641327 5.14864452,11.3927798 C2.71524285,9.17448888 1.02150127,6.61185764 0.0741773213,3.71025887 C-0.0853358287,3.22167926 0.0160957636,2.6853943 0.34300535,2.28893944 L1.78047535,0.545715378 C1.86204455,0.446793507 1.95594828,0.358742611 2.05989101,0.283715136 C2.73165721,-0.201176124 3.66903623,-0.0492998801 4.15358566,0.622940223 L6.01651519,3.20747725 C6.35865723,3.68214833 6.39384586,4.31255438 6.10665875,4.82240357 L5.27392659,6.30077011 C5.69285463,6.9125444 6.35719625,7.67598006 7.2644226,8.58384643 C8.18721737,9.50729219 8.99383587,10.2239764 9.68096721,10.7327259 L11.1836958,9.89574356 Z" id="shape"></path>
        </g>
    </g>
</svg>