<?xml version="1.0" encoding="UTF-8"?>
<svg width="16px" height="16px" viewBox="0 0 16 16" version="1.1" xmlns="http://www.w3.org/2000/svg" xmlns:xlink="http://www.w3.org/1999/xlink">
    <!-- Generator: Sketch 48.2 (47327) - http://www.bohemiancoding.com/sketch -->
    <title>plane-solid</title>
    <desc>Created with Sketch.</desc>
    <defs></defs>
    <g id="16px-solid" stroke="none" stroke-width="1" fill="none" fill-rule="evenodd" transform="translate(-432.000000, -144.000000)">
        <g id="plane-solid" transform="translate(432.000000, 144.000000)" fill="#000000">
            <path d="M9.80912206,10 L5.82827134,10 L3.75034926,10 L2.40039988,11.8 C2.30640341,11.926 2.157409,12 2.00041488,12 L0.500471132,12 C0.168483581,12 -0.071507419,11.682 0.0194891686,11.362 L0.980453132,8 L0.0194891686,4.638 C-0.071507419,4.318 0.167483619,4 0.500471132,4 L2.00041488,4 C2.157409,4 2.30640341,4.074 2.40039988,4.2 L3.75034926,6 L5.82827134,6 L4.52132035,1.644 C4.42532395,1.323 4.66531495,1 5.00030239,1 L6.38225057,1 C6.95122923,1 7.47020977,1.321 7.7252002,1.83 L9.80912206,6 L11.5000586,6 C14.0609626,6 15.9998899,6.852 15.9998899,8 C15.9998899,9.153 14.0839618,10 11.5000586,10 L9.80912206,10 Z M9.23714351,11.145 L7.7252002,14.17 C7.47020977,14.679 6.95122923,15 6.38225057,15 L5.00030239,15 C4.66531495,15 4.42532395,14.677 4.52132035,14.356 L5.50728338,11.071 C5.51928293,11.029 5.55828146,11 5.60227981,11 L9.14714688,11 C9.22214407,11 9.27014227,11.078 9.23714351,11.145 Z" id="shape"></path>
        </g>
    </g>
</svg>