<?xml version="1.0" encoding="UTF-8"?>
<svg width="16px" height="16px" viewBox="0 0 16 16" version="1.1" xmlns="http://www.w3.org/2000/svg" xmlns:xlink="http://www.w3.org/1999/xlink">
    <!-- Generator: Sketch 48.2 (47327) - http://www.bohemiancoding.com/sketch -->
    <title>printer-solid</title>
    <desc>Created with Sketch.</desc>
    <defs></defs>
    <g id="16px-solid" stroke="none" stroke-width="1" fill="none" fill-rule="evenodd" transform="translate(-480.000000, -384.000000)">
        <g id="printer-solid" transform="translate(480.000000, 384.000000)" fill="#000000">
            <path d="M11,13.5 C11,14.329 10.328,15 9.5,15 L6.5,15 C5.672,15 5,14.329 5,13.5 L5,11 L11,11 L11,13.5 Z M5,3 L11,3 L11,2 L5,2 L5,3 Z M11.5,1 L4.5,1 C4.224,1 4,1.224 4,1.5 L4,3 L2.5,3 C1.119,3 0,4.119 0,5.5 L0,10.5 C0,11.881 1.119,13 2.5,13 L4,13 L4,13.5 C4,14.881 5.119,16 6.5,16 L9.5,16 C10.881,16 12,14.881 12,13.5 L12,13 L13.5,13 C14.881,13 16,11.881 16,10.5 L16,5.5 C16,4.119 14.881,3 13.5,3 L12,3 L12,1.5 C12,1.224 11.776,1 11.5,1 Z M3,5 C2.447,5 2,5.448 2,6 C2,6.552 2.447,7 3,7 C3.553,7 4,6.552 4,6 C4,5.448 3.553,5 3,5" id="shape"></path>
        </g>
    </g>
</svg>