<?xml version="1.0" encoding="UTF-8"?>
<svg width="16px" height="16px" viewBox="0 0 16 16" version="1.1" xmlns="http://www.w3.org/2000/svg" xmlns:xlink="http://www.w3.org/1999/xlink">
    <!-- Generator: Sketch 48.2 (47327) - http://www.bohemiancoding.com/sketch -->
    <title>projector-solid</title>
    <desc>Created with Sketch.</desc>
    <defs></defs>
    <g id="16px-solid" stroke="none" stroke-width="1" fill="none" fill-rule="evenodd" transform="translate(-96.000000, -288.000000)">
        <g id="projector-solid" transform="translate(96.000000, 288.000000)" fill="#000000">
            <path d="M1.5,11.9999 C1.224,11.9999 1,12.2239 1,12.4999 C1,12.7759 1.224,12.9999 1.5,12.9999 L3.5,12.9999 C3.776,12.9999 4,12.7759 4,12.4999 C4,12.2239 3.776,11.9999 3.5,11.9999 L1.5,11.9999 Z M12.5,11.9999 C12.224,11.9999 12,12.2239 12,12.4999 C12,12.7759 12.224,12.9999 12.5,12.9999 L14.5,12.9999 C14.776,12.9999 15,12.7759 15,12.4999 C15,12.2239 14.776,11.9999 14.5,11.9999 L12.5,11.9999 Z M4.5,5.9999 C4.224,5.9999 4,6.2239 4,6.4999 L4,8.4999 C4,8.7759 4.224,8.9999 4.5,8.9999 C4.776,8.9999 5,8.7759 5,8.4999 L5,6.4999 C5,6.2239 4.776,5.9999 4.5,5.9999 M6.5,5.9999 C6.224,5.9999 6,6.2239 6,6.4999 L6,8.4999 C6,8.7759 6.224,8.9999 6.5,8.9999 C6.776,8.9999 7,8.7759 7,8.4999 L7,6.4999 C7,6.2239 6.776,5.9999 6.5,5.9999 M2.5,5.9999 C2.224,5.9999 2,6.2239 2,6.4999 L2,8.4999 C2,8.7759 2.224,8.9999 2.5,8.9999 C2.776,8.9999 3,8.7759 3,8.4999 L3,6.4999 C3,6.2239 2.776,5.9999 2.5,5.9999 M11,3.9999 C12.104,3.9999 13,4.8959 13,5.9999 C13,7.1039 12.104,7.9999 11,7.9999 C9.896,7.9999 9,7.1039 9,5.9999 C9,4.8959 9.896,3.9999 11,3.9999 Z M16,9.4999 L16,5.4999 C16,4.6719 15.329,3.9999 14.5,3.9999 L13.222,3.9999 C12.672,3.3909 11.885,2.9999 11,2.9999 C10.115,2.9999 9.328,3.3909 8.778,3.9999 L1.5,3.9999 C0.671,3.9999 0,4.6719 0,5.4999 L0,9.4999 C0,10.3289 0.671,10.9999 1.5,10.9999 L14.5,10.9999 C15.329,10.9999 16,10.3289 16,9.4999 Z" id="shape"></path>
        </g>
    </g>
</svg>