<?xml version="1.0" encoding="UTF-8"?>
<svg width="16px" height="16px" viewBox="0 0 16 16" version="1.1" xmlns="http://www.w3.org/2000/svg" xmlns:xlink="http://www.w3.org/1999/xlink">
    <!-- Generator: Sketch 48.2 (47327) - http://www.bohemiancoding.com/sketch -->
    <title>protractor-solid</title>
    <desc>Created with Sketch.</desc>
    <defs></defs>
    <g id="16px-solid" stroke="none" stroke-width="1" fill="none" fill-rule="evenodd" transform="translate(-48.000000, -48.000000)">
        <g id="protractor-solid" transform="translate(48.000000, 48.000000)" fill="#000000">
            <path d="M8.49669247,11.9999 C7.49169247,11.9999 6.53369247,11.7699 5.67569247,11.3569 L7.82969247,7.9099 C8.04169247,7.9689 8.26569247,7.9999 8.49669247,7.9999 C8.72769247,7.9999 8.95169247,7.9689 9.16369247,7.9099 L11.3176925,11.3579 C10.4476925,11.7779 9.48869247,11.9999 8.49669247,11.9999 M14.9206925,15.2349 L10.0576925,7.4539 C10.6296925,6.9959 10.9966925,6.2909 10.9966925,5.4999 C10.9966925,4.2909 10.1376925,3.2819 8.99669247,3.0499 L8.99669247,1.5999 C8.99669247,1.2689 8.77269247,0.9999 8.49669247,0.9999 C8.22069247,0.9999 7.99669247,1.2689 7.99669247,1.5999 L7.99669247,3.0499 C6.85569247,3.2819 5.99669247,4.2909 5.99669247,5.4999 C5.99669247,6.2909 6.36369247,6.9959 6.93569247,7.4539 L4.81069247,10.8539 C3.48669247,9.9419 2.50969247,8.5489 2.14769247,6.9019 C2.08869247,6.6329 1.82269247,6.4619 1.55269247,6.5209 C1.28269247,6.5809 1.11269247,6.8479 1.17169247,7.1169 C1.59269247,9.0329 2.73369247,10.6509 4.28069247,11.7029 L2.07269247,15.2349 C1.92669247,15.4689 1.99769247,15.7779 2.23169247,15.9239 C2.46569247,16.0699 2.77469247,15.9999 2.92069247,15.7649 L5.14269247,12.2089 C6.15669247,12.7169 7.29769247,12.9999 8.49669247,12.9999 C9.67769247,12.9999 10.8196925,12.7269 11.8506925,12.2099 L14.0726925,15.7649 C14.2186925,15.9999 14.5276925,16.0699 14.7616925,15.9239 C14.9956925,15.7779 15.0666925,15.4689 14.9206925,15.2349" id="shape"></path>
        </g>
    </g>
</svg>