<?xml version="1.0" encoding="UTF-8"?>
<svg width="16px" height="16px" viewBox="0 0 16 16" version="1.1" xmlns="http://www.w3.org/2000/svg" xmlns:xlink="http://www.w3.org/1999/xlink">
    <!-- Generator: Sketch 48.2 (47327) - http://www.bohemiancoding.com/sketch -->
    <title>puzzle-piece-solid</title>
    <desc>Created with Sketch.</desc>
    <defs></defs>
    <g id="16px-solid" stroke="none" stroke-width="1" fill="none" fill-rule="evenodd" transform="translate(-336.000000, -192.000000)">
        <g id="puzzle-piece-solid" transform="translate(336.000000, 192.000000)" fill="#000000" fill-rule="nonzero">
            <path d="M10.3099607,1.69476008 C10.8044679,0.705300638 11.8273423,0.0380830591 12.9905311,0.0380830591 C14.6446949,0.0380830591 15.9856596,1.37884469 15.9856596,3.03275797 C15.9856596,4.19943371 15.3141899,5.22465918 14.319865,5.71733435 L15.5631179,6.96457714 C16.1469573,7.55025648 16.1454291,8.49825629 15.5597072,9.08204791 L9.05732378,15.5631071 C8.47287844,16.1456264 7.52725524,16.1456333 6.94279277,15.563114 L0.440314805,9.08193987 C-0.145356582,8.4982157 -0.146969401,7.55033806 0.436680801,6.96465632 L2.20640676,5.18845402 C2.48682579,4.90700878 2.96773077,5.05000634 3.0487554,5.4389272 C3.23997032,6.35676497 4.05338191,7.02565786 5.00352164,7.02565786 C6.10629752,7.02565786 7.000274,6.13181677 7.000274,5.02920792 C7.000274,4.07655388 6.32757877,3.26166117 5.40621552,3.07327513 C5.01695717,2.99368564 4.87217513,2.51340677 5.15260876,2.23199702 L6.93791019,0.440481395 C7.52168411,-0.145324488 8.4698878,-0.147043403 9.05578242,0.436642092 L10.3099607,1.69476008 Z" id="shape"></path>
        </g>
    </g>
</svg>