<?xml version="1.0" encoding="UTF-8"?>
<svg width="16px" height="16px" viewBox="0 0 16 16" version="1.1" xmlns="http://www.w3.org/2000/svg" xmlns:xlink="http://www.w3.org/1999/xlink">
    <!-- Generator: Sketch 48.2 (47327) - http://www.bohemiancoding.com/sketch -->
    <title>question-solid</title>
    <desc>Created with Sketch.</desc>
    <defs></defs>
    <g id="16px-solid" stroke="none" stroke-width="1" fill="none" fill-rule="evenodd" transform="translate(-336.000000, -946.000000)">
        <g id="question-solid" transform="translate(336.000000, 946.000000)" fill="#000000">
            <path d="M8,16 C3.581722,16 0,12.418278 0,8 C0,3.581722 3.581722,0 8,0 C12.418278,0 16,3.581722 16,8 C16,12.418278 12.418278,16 8,16 Z M8,13 C8.55228475,13 9,12.5522847 9,12 C9,11.4477153 8.55228475,11 8,11 C7.44771525,11 7,11.4477153 7,12 C7,12.5522847 7.44771525,13 8,13 Z M8.49519594,9.5 L8.49519594,8.5 C8.49519594,8.12917368 8.67173478,7.9050179 9.30831593,7.39367998 C10.1705521,6.70108664 10.4951959,6.2884039 10.4951959,5.5 C10.4951959,4.11928813 9.37590781,3 7.99519594,3 C6.61448406,3 5.49519594,4.11928813 5.49519594,5.5 C5.49519594,5.77614237 5.71905356,6 5.99519594,6 C6.27133831,6 6.49519594,5.77614237 6.49519594,5.5 C6.49519594,4.67157288 7.16676881,4 7.99519594,4 C8.82362306,4 9.49519594,4.67157288 9.49519594,5.5 C9.49519594,5.87756565 9.31708666,6.10397571 8.6755272,6.61930991 C7.8180271,7.30810245 7.49519594,7.71800927 7.49519594,8.5 L7.49519594,9.5 C7.49519594,9.77614237 7.71905356,10 7.99519594,10 C8.27133831,10 8.49519594,9.77614237 8.49519594,9.5 Z" id="Oval-38"></path>
        </g>
    </g>
</svg>