<?xml version="1.0" encoding="UTF-8"?>
<svg width="16px" height="16px" viewBox="0 0 16 16" version="1.1" xmlns="http://www.w3.org/2000/svg" xmlns:xlink="http://www.w3.org/1999/xlink">
    <!-- Generator: Sketch 48.2 (47327) - http://www.bohemiancoding.com/sketch -->
    <title>quote-right-solid</title>
    <desc>Created with Sketch.</desc>
    <defs></defs>
    <g id="16px-solid" stroke="none" stroke-width="1" fill="none" fill-rule="evenodd" transform="translate(-432.000000, -946.000000)">
        <g id="quote-right-solid" transform="translate(432.000000, 946.000000)" fill="#000000">
            <path d="M9,6.5 L9,3 C9,1.90000153 9.8999939,1 11,1 L14,1 C15.1000061,1 16,1.90000153 16,3 L16,9.19999695 C16,12.0999985 14.1000061,14 11.2000122,14 L10.7000122,14 C10.3099976,14 10,13.6900024 10,13.3000031 L10,12.6999969 C10,12.3099976 10.3099976,12 10.7000122,12 L11.2000122,12 C12.75,12 14,10.75 14,9.19999695 L14,9 C14,8.44999695 13.5499878,8 13,8 L10.5,8 C9.67001343,8 9,7.33000183 9,6.5 Z M0,6.5 L0,3 C0,1.90000153 0.899993896,1 2,1 L5,1 C6.1000061,1 7,1.90000153 7,3 L7,9.19999695 C7,12.0999985 5.1000061,14 2.20001221,14 L1.70001221,14 C1.30999756,14 1,13.6900024 1,13.3000031 L1,12.6999969 C1,12.3099976 1.30999756,12 1.70001221,12 L2.20001221,12 C3.75,12 5,10.75 5,9.19999695 L5,9 C5,8.44999695 4.54998779,8 4,8 L1.5,8 C0.670013428,8 0,7.33000183 0,6.5 Z" id="Path-"></path>
        </g>
    </g>
</svg>