<?xml version="1.0" encoding="UTF-8"?>
<svg width="16px" height="16px" viewBox="0 0 16 16" version="1.1" xmlns="http://www.w3.org/2000/svg" xmlns:xlink="http://www.w3.org/1999/xlink">
    <!-- Generator: Sketch 48.2 (47327) - http://www.bohemiancoding.com/sketch -->
    <title>quote-left-solid</title>
    <desc>Created with Sketch.</desc>
    <defs></defs>
    <g id="16px-solid" stroke="none" stroke-width="1" fill="none" fill-rule="evenodd" transform="translate(-384.000000, -946.000000)">
        <g id="quote-left-solid" transform="translate(384.000000, 946.000000)" fill="#000000">
            <path d="M16,9.5 L16,13 C16,14.0999985 15.1000061,15 14,15 L11,15 C9.8999939,15 9,14.0999985 9,13 L9,6.80000305 C9,3.90000153 10.8999939,2 13.7999878,2 L14.2999878,2 C14.6900024,2 15,2.30999756 15,2.69999695 L15,3.30000305 C15,3.69000244 14.6900024,4 14.2999878,4 L13.7999878,4 C12.25,4 11,5.25 11,6.80000305 L11,7 C11,7.55000305 11.4500122,8 12,8 L14.5,8 C15.3299866,8 16,8.66999817 16,9.5 Z M7,9.5 L7,13 C7,14.0999985 6.1000061,15 5,15 L2,15 C0.899993896,15 0,14.0999985 0,13 L0,6.80000305 C0,3.90000153 1.8999939,2 4.79998779,2 L5.29998779,2 C5.69000244,2 6,2.30999756 6,2.69999695 L6,3.30000305 C6,3.69000244 5.69000244,4 5.29998779,4 L4.79998779,4 C3.25,4 2,5.25 2,6.80000305 L2,7 C2,7.55000305 2.45001221,8 3,8 L5.5,8 C6.32998657,8 7,8.66999817 7,9.5 Z" id="Path-"></path>
        </g>
    </g>
</svg>