<?xml version="1.0" encoding="UTF-8"?>
<svg width="16px" height="16px" viewBox="0 0 16 16" version="1.1" xmlns="http://www.w3.org/2000/svg" xmlns:xlink="http://www.w3.org/1999/xlink">
    <!-- Generator: Sketch 48.2 (47327) - http://www.bohemiancoding.com/sketch -->
    <title>remove-circle-solid</title>
    <desc>Created with Sketch.</desc>
    <defs></defs>
    <g id="16px-solid" stroke="none" stroke-width="1" fill="none" fill-rule="evenodd" transform="translate(-48.000000, -994.000000)">
        <g id="remove-circle-solid" transform="translate(48.000000, 994.000000)" fill="#000000" fill-rule="nonzero">
            <path d="M8,16 C3.581722,16 0,12.418278 0,8 C0,3.581722 3.581722,0 8,0 C12.418278,0 16,3.581722 16,8 C16,12.418278 12.418278,16 8,16 Z M5.5,8.5 L10.5,8.5 C10.7761424,8.5 11,8.27614237 11,8 C11,7.72385763 10.7761424,7.5 10.5,7.5 L5.5,7.5 C5.22385763,7.5 5,7.72385763 5,8 C5,8.27614237 5.22385763,8.5 5.5,8.5 Z" id="Oval-7"></path>
        </g>
    </g>
</svg>