<?xml version="1.0" encoding="UTF-8"?>
<svg width="16px" height="16px" viewBox="0 0 16 16" version="1.1" xmlns="http://www.w3.org/2000/svg" xmlns:xlink="http://www.w3.org/1999/xlink">
    <!-- Generator: Sketch 48.2 (47327) - http://www.bohemiancoding.com/sketch -->
    <title>send-solid</title>
    <desc>Created with Sketch.</desc>
    <defs></defs>
    <g id="16px-solid" stroke="none" stroke-width="1" fill="none" fill-rule="evenodd" transform="translate(-288.000000, -96.000000)">
        <g id="send-solid" transform="translate(288.000000, 96.000000)" fill="#000000">
            <path d="M0.371280897,6.0173428 C-0.0246941852,6.12232563 -0.13268739,6.63424189 0.188292412,6.89020001 L2.69462173,8.8957923 C2.84051552,9.01253812 3.0393313,9.0381931 3.21008215,8.96230676 L10.9996121,5.50042737 L4.20941434,10.3510504 C4.07802743,10.4449075 4.00005255,10.5964362 4.00005255,10.7579035 L4.00005255,14.4989553 C4.00005255,14.8988899 4.44602449,15.1368509 4.7780036,14.9148873 L7.74581684,12.9362109 L10.1876632,14.8888915 C10.4466469,15.0968575 10.8336225,14.9978737 10.9616145,14.6919237 L15.9602999,2.69288665 C16.102291,2.3539421 15.8433073,2 15.5023288,2 C15.4593315,2 15.4153342,2.00599902 15.3703371,2.01799706 L0.371280897,6.0173428 Z" id="shape"></path>
        </g>
    </g>
</svg>