<svg xmlns="http://www.w3.org/2000/svg" width="16" height="16" viewBox="0 0 16 16">
  <path fill-rule="evenodd" d="M2.70703249,6.5 C2.82470517,6.08395475 2.99010942,5.68795013 3.19695551,5.31827585 L2,4.12132034 L4.12132034,2 L5.31827585,3.19695551 C5.68795013,2.99010942 6.08395475,2.82470517 6.5,2.70703249 L6.5,1 L9.5,1 L9.5,2.70703249 C9.9166805,2.82488485 10.3132591,2.99061463 10.6834173,3.19790328 L11.8813206,2 L14.0026409,4.12132034 L12.8039918,5.3199695 C13.0103956,5.68915957 13.1754745,6.08459005 13.2929675,6.5 L15,6.5 L15,9.5 L13.2929675,9.5 C13.1752948,9.91604525 13.0098906,10.3120499 12.8030445,10.6817241 L14.0026409,11.8813206 L11.8813206,14.0026409 L10.6817241,12.8030445 C10.3120499,13.0098906 9.91604525,13.1752948 9.5,13.2929675 L9.5,15 L6.5,15 L6.5,13.2929675 C6.08459005,13.1754745 5.68915957,13.0103956 5.3199695,12.8039918 L4.12132034,14.0026409 L2,11.8813206 L3.19790328,10.6834173 C2.99061463,10.3132591 2.82488485,9.9166805 2.70703249,9.5 L1,9.5 L1,6.5 L2.70703249,6.5 Z M8,10 C9.1045695,10 10,9.1045695 10,8 C10,6.8954305 9.1045695,6 8,6 C6.8954305,6 6,6.8954305 6,8 C6,9.1045695 6.8954305,10 8,10 Z"/>
</svg>
