<?xml version="1.0" encoding="UTF-8"?>
<svg width="16px" height="16px" viewBox="0 0 16 16" version="1.1" xmlns="http://www.w3.org/2000/svg" xmlns:xlink="http://www.w3.org/1999/xlink">
    <!-- Generator: Sketch 48.2 (47327) - http://www.bohemiancoding.com/sketch -->
    <title>share-solid</title>
    <desc>Created with Sketch.</desc>
    <defs></defs>
    <g id="16px-solid" stroke="none" stroke-width="1" fill="none" fill-rule="evenodd" transform="translate(-384.000000, -336.000000)">
        <g id="share-solid" transform="translate(384.000000, 336.000000)" fill="#000000">
            <path d="M0,12.5 C0,13.881 1.119,15 2.5,15 C3.881,15 5,13.881 5,12.5 C5,12.451 4.999,12.402 4.996,12.354 L11.528,10.021 C11.986,10.612 12.694,11 13.5,11 C14.881,11 16,9.881 16,8.5 C16,7.119 14.881,6 13.5,6 C12.694,6 11.986,6.388 11.528,6.979 L4.986,4.643 C4.988,4.594 5,4.549 5,4.5 C5,3.119 3.881,2 2.5,2 C1.119,2 0,3.119 0,4.5 C0,5.881 1.119,7 2.5,7 C3.479,7 4.317,6.432 4.728,5.612 L11.086,7.883 C11.035,8.082 11,8.286 11,8.5 C11,8.714 11.035,8.918 11.086,9.117 L4.738,11.384 C4.328,10.563 3.479,10 2.5,10 C1.119,10 0,11.119 0,12.5 Z" id="shape"></path>
        </g>
    </g>
</svg>