<?xml version="1.0" encoding="UTF-8"?>
<svg width="16px" height="16px" viewBox="0 0 16 16" version="1.1" xmlns="http://www.w3.org/2000/svg" xmlns:xlink="http://www.w3.org/1999/xlink">
    <!-- Generator: Sketch 48.2 (47327) - http://www.bohemiancoding.com/sketch -->
    <title>shop-cart-solid</title>
    <desc>Created with Sketch.</desc>
    <defs></defs>
    <g id="16px-solid" stroke="none" stroke-width="1" fill="none" fill-rule="evenodd" transform="translate(-144.000000, -96.000000)">
        <g id="shop-cart-solid" transform="translate(144.000000, 96.000000)" fill="#000000">
            <path d="M5.5,15.9999 C6.329,15.9999 7,15.3289 7,14.4999 C7,13.6719 6.329,12.9999 5.5,12.9999 C4.671,12.9999 4,13.6719 4,14.4999 C4,15.3289 4.671,15.9999 5.5,15.9999 Z M11,14.4999 C11,15.3289 11.671,15.9999 12.5,15.9999 C13.329,15.9999 14,15.3289 14,14.4999 C14,13.6719 13.329,12.9999 12.5,12.9999 C11.671,12.9999 11,13.6719 11,14.4999 Z M15.9803,3.6919 C16.0733,3.3729 15.8333,3.0529 15.5003,3.0529 L3.1983,3.0529 L2.9963,1.4379 C2.9653,1.1879 2.7523,0.9999 2.5003,0.9999 L0.5003,0.9999 C0.2233,0.9999 0.0003,1.2239 0.0003,1.4999 C0.0003,1.7759 0.2233,1.9999 0.5003,1.9999 L2.0583,1.9999 L3.0043,9.5619 C3.2733,11.0299 4.5023,11.9999 6.0003,11.9999 L13.5003,11.9999 C13.7763,11.9999 14.0003,11.7759 14.0003,11.4999 C14.0003,11.2239 13.7763,10.9999 13.5003,10.9999 L6.0003,10.9999 C5.4293,10.9999 4.9263,10.8029 4.5623,10.4639 L11.5333,9.9989 C13.1673,9.8799 14.5543,8.7339 14.9833,7.1289 L15.9803,3.6919 Z" id="shape"></path>
        </g>
    </g>
</svg>