<?xml version="1.0" encoding="UTF-8"?>
<svg width="16px" height="16px" viewBox="0 0 16 16" version="1.1" xmlns="http://www.w3.org/2000/svg" xmlns:xlink="http://www.w3.org/1999/xlink">
    <!-- Generator: Sketch 48.2 (47327) - http://www.bohemiancoding.com/sketch -->
    <title>shop-solid</title>
    <desc>Created with Sketch.</desc>
    <defs></defs>
    <g id="16px-solid" stroke="none" stroke-width="1" fill="none" fill-rule="evenodd" transform="translate(-96.000000, -192.000000)">
        <g id="shop-solid" transform="translate(96.000000, 192.000000)" fill="#000000">
            <path d="M13.9998,13.4999 C13.9998,14.3289 13.3288,14.9999 12.4998,14.9999 L9.9998,14.9999 L9.9998,12.9999 C9.9998,11.8959 9.1048,10.9999 7.9998,10.9999 C6.8958,10.9999 5.9998,11.8959 5.9998,12.9999 L5.9998,14.9999 L3.4998,14.9999 C2.6718,14.9999 1.9998,14.3289 1.9998,13.4999 L1.9998,8.9999 C2.5968,8.9999 3.1338,8.7379 3.4998,8.3229 C3.8658,8.7379 4.4028,8.9999 4.9998,8.9999 C5.5968,8.9999 6.1338,8.7379 6.4998,8.3229 C6.8658,8.7379 7.4028,8.9999 7.9998,8.9999 C8.5968,8.9999 9.1338,8.7379 9.4998,8.3229 C9.8658,8.7379 10.4028,8.9999 10.9998,8.9999 C11.5968,8.9999 12.1338,8.7379 12.4998,8.3229 C12.8658,8.7379 13.4028,8.9999 13.9998,8.9999 L13.9998,13.4999 Z M12.4998,15.9999 C13.8808,15.9999 14.9998,14.8809 14.9998,13.4999 L14.9998,8.7319 C15.5978,8.3869 15.9998,7.7399 15.9998,6.9999 L14.3818,0.9999 L1.6178,0.9999 L-0.0002,6.9999 C-0.0002,7.7399 0.4028,8.3869 0.9998,8.7319 L0.9998,13.4999 C0.9998,14.8809 2.1188,15.9999 3.4998,15.9999 L12.4998,15.9999 Z" id="shape"></path>
        </g>
    </g>
</svg>