<svg xmlns="http://www.w3.org/2000/svg" width="64" height="64" viewBox="0 0 64 64"><g fill="#1d1d1b"><path d="M32 0C14.4 0 0 14.4 0 32s14.4 32 32 32 32-14.4 32-32S49.6 0 32 0zm0 60C16.6 60 4 47.4 4 32S16.6 4 32 4s28 12.6 28 28-12.6 28-28 28z"/><circle cx="20.5" cy="21.4" r="4.3"/><circle cx="43.5" cy="21.4" r="4.3"/><path d="M52.5 36.6c-1.1-.3-2.2.3-2.5 1.3 0 .1-3.7 12-18 12-14.2 0-17.9-11.5-18.1-12-.3-1.1-1.4-1.7-2.5-1.3-1.1.3-1.7 1.4-1.3 2.5 0 .1 4.6 14.8 21.9 14.8s21.8-14.7 21.9-14.8c.3-1.1-.3-2.2-1.4-2.5z"/></g></svg>