<?xml version="1.0" encoding="UTF-8"?>
<svg width="16px" height="16px" viewBox="0 0 16 16" version="1.1" xmlns="http://www.w3.org/2000/svg" xmlns:xlink="http://www.w3.org/1999/xlink">
    <!-- Generator: Sketch 48.2 (47327) - http://www.bohemiancoding.com/sketch -->
    <title>sofa-solid</title>
    <desc>Created with Sketch.</desc>
    <defs>
        <path d="M3.5,0 C2.119,0 1,1.119 1,2.5 L1,4 L1.5,4 C2.329,4 3,4.671 3,5.5 L3,8.5 C3,8.77614237 3.22385763,9 3.5,9 L10.5,9 C10.7761424,9 11,8.77614237 11,8.5 L11,5.5 C11,4.671 11.671,4 12.5,4 L13,4 L13,2.5 C13,1.119 11.881,0 10.5,0 L3.5,0 Z M12.5,5 C12.224,5 12,5.224 12,5.5 L12,9.5 C12,9.776 11.776,10 11.5,10 L2.5,10 C2.224,10 2,9.776 2,9.5 L2,5.5 C2,5.224 1.776,5 1.5,5 L0.5,5 C0.224,5 0,5.224 0,5.5 L0,11 C0,12.104 0.895,13 2,13 L2,13.5 C2,13.776 2.224,14 2.5,14 C2.776,14 3,13.776 3,13.5 L3,13 L11,13 L11,13.5 C11,13.776 11.224,14 11.5,14 C11.776,14 12,13.776 12,13.5 L12,13 C13.105,13 14,12.104 14,11 L14,5.5 C14,5.224 13.776,5 13.5,5 L12.5,5 Z" id="path-1"></path>
    </defs>
    <g id="16px-solid" stroke="none" stroke-width="1" fill="none" fill-rule="evenodd" transform="translate(-384.000000, -192.000000)">
        <g id="sofa-solid" transform="translate(384.000000, 192.000000)">
            <g id="Page-1" transform="translate(1.000000, 1.000000)">
                <mask id="mask-2" fill="white">
                    <use xlink:href="#path-1"></use>
                </mask>
                <use id="shape" fill="#000000" xlink:href="#path-1"></use>
            </g>
        </g>
    </g>
</svg>