<svg xmlns="http://www.w3.org/2000/svg" width="64" height="64" viewBox="0 0 64 64"><path d="M60 8H32c-1.1 0-2-.9-2-2V2c0-1.1.9-2 2-2h28c1.1 0 2 .9 2 2v4c0 1.1-.9 2-2 2zM32.9 50.7L21.8 61.3c-.6 1.6-2 2.7-3.8 2.7-1.8 0-3.2-1.1-3.8-2.6L3.1 50.7c-1.5-1.5-1.5-3.8 0-5.3C4.6 44 7 44 8.5 45.5l5.4 5.2V4.3c0-2.1 1.6-4 3.7-4.2 2.4-.2 4.5 1.6 4.5 4v46.6l5.4-5.1c1.5-1.5 3.9-1.5 5.4 0 1.5 1.3 1.5 3.7 0 5.1zM30 38v-4c0-1.1.9-2 2-2h12c1.1 0 2 .9 2 2v4c0 1.1-.9 2-2 2H32c-1.1 0-2-.9-2-2zm0-16v-4c0-1.1.9-2 2-2h20c1.1 0 2 .9 2 2v4c0 1.1-.9 2-2 2H32c-1.1 0-2-.9-2-2z" fill-rule="evenodd" clip-rule="evenodd"/></svg>