<svg xmlns="http://www.w3.org/2000/svg" width="64" height="64" viewBox="0 0 64 64"><g fill-rule="evenodd" clip-rule="evenodd"><path d="M32.9 50.7L21.8 61.3c-.6 1.6-2 2.7-3.8 2.7-1.8 0-3.2-1.1-3.8-2.6L3.1 50.7c-1.5-1.5-1.5-3.8 0-5.3C4.6 44 7 44 8.5 45.5l5.4 5.2V4c0-2.2 1.8-4 4.1-4s4.1 1.8 4.1 4v46.6l5.4-5.1c1.5-1.5 3.9-1.5 5.4 0 1.5 1.4 1.5 3.8 0 5.2zM52 24H32c-1.1 0-2-.9-2-2v-4c0-1.1.9-2 2-2h20c1.1 0 2 .9 2 2v4c0 1.1-.9 2-2 2zM43.9 8h-12c-1.1 0-2-.9-2-2V2c0-1.1.9-2 2-2h12c1.1 0 2 .9 2 2v4c0 1.1-.9 2-2 2z"/><path d="M60 40H32c-1.1 0-2-.9-2-2v-4c0-1.1.9-2 2-2h28c1.1 0 2 .9 2 2v4c0 1.1-.9 2-2 2z"/></g></svg>