<svg xmlns="http://www.w3.org/2000/svg" width="64" height="64" viewBox="0 0 64 64"><path d="M35.4 59.5c0 1.4-1.1 2.5-2.5 2.5H31c-1.4 0-2.5-1.1-2.5-2.5V50c0-1.4 1.1-2.5 2.5-2.5h1.9c1.4 0 2.5 1.1 2.5 2.5v9.5z" opacity=".8"/><path d="M35.4 14c0 1.4-1.1 2.5-2.5 2.5H31c-1.4 0-2.5-1.1-2.5-2.5V4.5C28.5 3.1 29.6 2 31 2h1.9c1.4 0 2.5 1.1 2.5 2.5V14zM4.5 35.4c-1.4 0-2.5-1.1-2.5-2.5V31c0-1.4 1.1-2.5 2.5-2.5H14c1.4 0 2.5 1.1 2.5 2.5v1.9c0 1.4-1.1 2.5-2.5 2.5H4.5z"/><path d="M50 35.4c-1.4 0-2.5-1.1-2.5-2.5V31c0-1.4 1.1-2.5 2.5-2.5h9.5c1.4 0 2.5 1.1 2.5 2.5v1.9c0 1.4-1.1 2.5-2.5 2.5H50z" opacity=".4"/><path d="M15 53.9c-1 1-2.6 1-3.5 0l-1.3-1.3c-1-1-1-2.6 0-3.5l6.7-6.7c1-1 2.6-1 3.5 0l1.3 1.3c1 1 1 2.6 0 3.5L15 53.9z"/><path d="M47.2 21.7c-1 1-2.6 1-3.5 0l-1.3-1.3c-1-1-1-2.6 0-3.5l6.7-6.7c1-1 2.6-1 3.5 0l1.3 1.3c1 1 1 2.6 0 3.5l-6.7 6.7z" opacity=".1"/><path d="M10.1 15c-1-1-1-2.6 0-3.5l1.3-1.3c1-1 2.6-1 3.5 0l6.7 6.7c1 1 1 2.6 0 3.5l-1.3 1.3c-1 1-2.6 1-3.5 0L10.1 15z"/><path d="M42.3 47.2c-1-1-1-2.6 0-3.5l1.3-1.3c1-1 2.6-1 3.5 0l6.7 6.7c1 1 1 2.6 0 3.5l-1.3 1.3c-1 1-2.6 1-3.5 0l-6.7-6.7z" opacity=".6"/></svg>