<?xml version="1.0" encoding="UTF-8"?>
<svg width="16px" height="16px" viewBox="0 0 16 16" version="1.1" xmlns="http://www.w3.org/2000/svg" xmlns:xlink="http://www.w3.org/1999/xlink">
    <!-- Generator: Sketch 48.2 (47327) - http://www.bohemiancoding.com/sketch -->
    <title>stack-solid</title>
    <desc>Created with Sketch.</desc>
    <defs></defs>
    <g id="16px-solid" stroke="none" stroke-width="1" fill="none" fill-rule="evenodd" transform="translate(-240.000000, -192.000000)">
        <g id="stack-solid" transform="translate(240.000000, 192.000000)" fill="#000000" fill-rule="nonzero">
            <path d="M8,10.9482352 L15.2885573,7.54690843 C15.5387928,7.43013183 15.836315,7.5383217 15.9530916,7.78855727 C16.0698682,8.03879283 15.9616783,8.33631497 15.7114427,8.45309157 L8.21144273,11.9530916 C8.07741865,12.0156361 7.92258135,12.0156361 7.78855727,11.9530916 L0.288557267,8.45309157 C0.0383217029,8.33631497 -0.0698681667,8.03879283 0.04690843,7.78855727 C0.163685027,7.5383217 0.461207168,7.43013183 0.711442733,7.54690843 L8,10.9482352 Z M8,13.9482352 L15.2885573,10.5469084 C15.5387928,10.4301318 15.836315,10.5383217 15.9530916,10.7885573 C16.0698682,11.0387928 15.9616783,11.336315 15.7114427,11.4530916 L8.21144273,14.9530916 C8.07741865,15.0156361 7.92258135,15.0156361 7.78855727,14.9530916 L0.288557267,11.4530916 C0.0383217029,11.336315 -0.0698681667,11.0387928 0.04690843,10.7885573 C0.163685027,10.5383217 0.461207168,10.4301318 0.711442733,10.5469084 L8,13.9482352 Z M7.78855727,1.04690843 C7.92258135,0.984363857 8.07741865,0.984363857 8.21144273,1.04690843 L15.7114427,4.54690843 C16.0961858,4.72645517 16.0961858,5.27354483 15.7114427,5.45309157 L8.21144273,8.95309157 C8.07741865,9.01563614 7.92258135,9.01563614 7.78855727,8.95309157 L0.288557267,5.45309157 C-0.0961857558,5.27354483 -0.0961857558,4.72645517 0.288557267,4.54690843 L7.78855727,1.04690843 Z" id="shape"></path>
        </g>
    </g>
</svg>