<?xml version="1.0" encoding="UTF-8"?>
<svg width="16px" height="16px" viewBox="0 0 16 16" version="1.1" xmlns="http://www.w3.org/2000/svg" xmlns:xlink="http://www.w3.org/1999/xlink">
    <!-- Generator: Sketch 48.2 (47327) - http://www.bohemiancoding.com/sketch -->
    <title>suitcase-solid</title>
    <desc>Created with Sketch.</desc>
    <defs></defs>
    <g id="16px-solid" stroke="none" stroke-width="1" fill="none" fill-rule="evenodd" transform="translate(-48.000000, -288.000000)">
        <g id="suitcase-solid" transform="translate(48.000000, 288.000000)" fill="#000000" fill-rule="nonzero">
            <path d="M10,15 L6,15 L6,15.5 C6,15.7761424 5.77614237,16 5.5,16 C5.22385763,16 5,15.7761424 5,15.5 L5,15 L4.5,15 C3.11928813,15 2,13.8807119 2,12.5 L2,4.5 C2,3.11928813 3.11928813,2 4.5,2 L11.5,2 C12.8807119,2 14,3.11928813 14,4.5 L14,12.5 C14,13.8807119 12.8807119,15 11.5,15 L11,15 L11,15.5 C11,15.7761424 10.7761424,16 10.5,16 C10.2238576,16 10,15.7761424 10,15.5 L10,15 Z M5.5,6 L10.5,6 C10.7761424,6 11,5.77614237 11,5.5 C11,5.22385763 10.7761424,5 10.5,5 L5.5,5 C5.22385763,5 5,5.22385763 5,5.5 C5,5.77614237 5.22385763,6 5.5,6 Z M5.5,9 L10.5,9 C10.7761424,9 11,8.77614237 11,8.5 C11,8.22385763 10.7761424,8 10.5,8 L5.5,8 C5.22385763,8 5,8.22385763 5,8.5 C5,8.77614237 5.22385763,9 5.5,9 Z M5.5,12 L10.5,12 C10.7761424,12 11,11.7761424 11,11.5 C11,11.2238576 10.7761424,11 10.5,11 L5.5,11 C5.22385763,11 5,11.2238576 5,11.5 C5,11.7761424 5.22385763,12 5.5,12 Z M6.5,1 C6.22385763,1 6,0.776142375 6,0.5 C6,0.223857625 6.22385763,0 6.5,0 L9.5,0 C9.77614237,0 10,0.223857625 10,0.5 C10,0.776142375 9.77614237,1 9.5,1 L6.5,1 Z" id="shape"></path>
        </g>
    </g>
</svg>