<svg xmlns="http://www.w3.org/2000/svg" width="64" height="64" viewBox="0 0 64 64"><path d="M32 16c-8.8 0-16 7.2-16 16s7.2 16 16 16 16-7.2 16-16-7.2-16-16-16zm0 24c-4.4 0-8-3.6-8-8s3.6-8 8-8 8 3.6 8 8-3.6 8-8 8zM29.2 8.5V2.8C29.2 1.2 30.5 0 32 0s2.8 1.2 2.8 2.8v5.7c0 1.5-1.2 2.8-2.8 2.8s-2.8-1.2-2.8-2.8zM64 32c0 1.5-1.2 2.8-2.8 2.8h-5.7c-1.5 0-2.8-1.2-2.8-2.8 0-1.5 1.2-2.8 2.8-2.8h5.7c1.6 0 2.8 1.3 2.8 2.8zM34.8 55.5v5.7c0 1.5-1.2 2.8-2.8 2.8s-2.8-1.2-2.8-2.8v-5.7c0-1.5 1.2-2.8 2.8-2.8s2.8 1.2 2.8 2.8zM8.5 34.8H2.8C1.2 34.8 0 33.5 0 32c0-1.5 1.2-2.8 2.8-2.8h5.7c1.5 0 2.8 1.2 2.8 2.8 0 1.5-1.2 2.8-2.8 2.8zm38.1-17.4c-1.1-1.1-1.1-2.8 0-3.9l4.1-4.1c1.1-1.1 2.8-1.1 3.9 0s1.1 2.8 0 3.9l-4.1 4.1c-.5.5-1.3.8-2 .8-.6 0-1.3-.3-1.9-.8zm8 33.3c1.1 1.1 1.1 2.8 0 3.9-.5.5-1.3.8-2 .8s-1.4-.3-2-.8l-4.1-4.1c-1.1-1.1-1.1-2.8 0-3.9s2.8-1.1 3.9 0l4.2 4.1zm-37.2-4.1c1.1 1.1 1.1 2.8 0 3.9l-4.1 4.1c-.5.5-1.3.8-2 .8s-1.4-.3-2-.8c-1.1-1.1-1.1-2.8 0-3.9l4.1-4.1c1.1-1.1 2.9-1.1 4 0zm-8-33.3c-1.1-1.1-1.1-2.8 0-3.9s2.8-1.1 3.9 0l4.1 4.1c1.1 1.1 1.1 2.8 0 3.9-.5.5-1.3.8-2 .8s-1.4-.3-2-.8l-4-4.1z"/></svg>