<?xml version="1.0" encoding="UTF-8"?>
<svg width="16px" height="16px" viewBox="0 0 16 16" version="1.1" xmlns="http://www.w3.org/2000/svg" xmlns:xlink="http://www.w3.org/1999/xlink">
    <!-- Generator: Sketch 48.2 (47327) - http://www.bohemiancoding.com/sketch -->
    <title>television-solid</title>
    <desc>Created with Sketch.</desc>
    <defs></defs>
    <g id="16px-solid" stroke="none" stroke-width="1" fill="none" fill-rule="evenodd" transform="translate(-144.000000, -288.000000)">
        <g id="television-solid" transform="translate(144.000000, 288.000000)" fill="#000000">
            <path d="M0,12.4999 C0,13.8809 1.119,14.9999 2.5,14.9999 L13.5,14.9999 C14.881,14.9999 16,13.8809 16,12.4999 L16,5.4999 C16,4.1199 14.881,2.9999 13.5,2.9999 L11.434,2.9999 L12.916,0.7769 C13.069,0.5479 13.007,0.2369 12.777,0.0839 C12.548,-0.0691 12.237,-0.0071 12.084,0.2229 L10.232,2.9999 L5.768,2.9999 L3.916,0.2229 C3.763,-0.0071 3.452,-0.0691 3.223,0.0839 C2.993,0.2369 2.931,0.5479 3.084,0.7769 L4.566,2.9999 L2.5,2.9999 C1.119,2.9999 0,4.1199 0,5.4999 L0,12.4999 Z M13,8.0001 C13.552,8.0001 14,7.5521 14,7.0001 L14,6.0001 C14,5.4481 13.552,5.0001 13,5.0001 L12,5.0001 C11.448,5.0001 11,5.4481 11,6.0001 L11,7.0001 C11,7.5521 11.448,8.0001 12,8.0001 L13,8.0001 Z M13.5,12.9999 C13.776,12.9999 14,12.7759 14,12.4999 C14,12.2239 13.776,11.9999 13.5,11.9999 L11.5,11.9999 C11.224,11.9999 11,12.2239 11,12.4999 C11,12.7759 11.224,12.9999 11.5,12.9999 L13.5,12.9999 Z M2,11.4999 C2,12.3289 2.671,12.9999 3.5,12.9999 L8.5,12.9999 C9.329,12.9999 10,12.3289 10,11.4999 L10,6.4999 C10,5.6719 9.329,4.9999 8.5,4.9999 L3.5,4.9999 C2.671,4.9999 2,5.6719 2,6.4999 L2,11.4999 Z M13.5,10.9999 C13.776,10.9999 14,10.7759 14,10.4999 C14,10.2239 13.776,9.9999 13.5,9.9999 L11.5,9.9999 C11.224,9.9999 11,10.2239 11,10.4999 C11,10.7759 11.224,10.9999 11.5,10.9999 L13.5,10.9999 Z" id="shape"></path>
        </g>
    </g>
</svg>