<?xml version="1.0" encoding="UTF-8"?>
<svg width="16px" height="16px" viewBox="0 0 16 16" version="1.1" xmlns="http://www.w3.org/2000/svg" xmlns:xlink="http://www.w3.org/1999/xlink">
    <!-- Generator: Sketch 48.2 (47327) - http://www.bohemiancoding.com/sketch -->
    <title>th-circle-solid</title>
    <desc>Created with Sketch.</desc>
    <defs></defs>
    <g id="16px-solid" stroke="none" stroke-width="1" fill="none" fill-rule="evenodd" transform="translate(-144.000000, -994.000000)">
        <g id="th-circle-solid" transform="translate(144.000000, 994.000000)" fill="#000000" fill-rule="nonzero">
            <path d="M2,0 C3.1045695,-2.22044605e-16 4,0.8954305 4,2 C4,3.1045695 3.1045695,4 2,4 C0.8954305,4 1.48029737e-16,3.1045695 0,2 C-1.48029737e-16,0.8954305 0.8954305,1.48029737e-16 2,0 Z M8,0 C9.1045695,-2.22044605e-16 10,0.8954305 10,2 C10,3.1045695 9.1045695,4 8,4 C6.8954305,4 6,3.1045695 6,2 C6,0.8954305 6.8954305,1.48029737e-16 8,0 Z M14,0 C15.1045695,-2.22044605e-16 16,0.8954305 16,2 C16,3.1045695 15.1045695,4 14,4 C12.8954305,4 12,3.1045695 12,2 C12,0.8954305 12.8954305,1.48029737e-16 14,0 Z M14,6 C15.1045695,6 16,6.8954305 16,8 C16,9.1045695 15.1045695,10 14,10 C12.8954305,10 12,9.1045695 12,8 C12,6.8954305 12.8954305,6 14,6 Z M14,12 C15.1045695,12 16,12.8954305 16,14 C16,15.1045695 15.1045695,16 14,16 C12.8954305,16 12,15.1045695 12,14 C12,12.8954305 12.8954305,12 14,12 Z M8,12 C9.1045695,12 10,12.8954305 10,14 C10,15.1045695 9.1045695,16 8,16 C6.8954305,16 6,15.1045695 6,14 C6,12.8954305 6.8954305,12 8,12 Z M8,6 C9.1045695,6 10,6.8954305 10,8 C10,9.1045695 9.1045695,10 8,10 C6.8954305,10 6,9.1045695 6,8 C6,6.8954305 6.8954305,6 8,6 Z M2,6 C3.1045695,6 4,6.8954305 4,8 C4,9.1045695 3.1045695,10 2,10 C0.8954305,10 1.48029737e-16,9.1045695 0,8 C-1.48029737e-16,6.8954305 0.8954305,6 2,6 Z M2,12 C3.1045695,12 4,12.8954305 4,14 C4,15.1045695 3.1045695,16 2,16 C0.8954305,16 1.48029737e-16,15.1045695 0,14 C-1.48029737e-16,12.8954305 0.8954305,12 2,12 Z" id="Combined-Shape"></path>
        </g>
    </g>
</svg>