<?xml version="1.0" encoding="UTF-8"?>
<svg width="16px" height="16px" viewBox="0 0 16 16" version="1.1" xmlns="http://www.w3.org/2000/svg" xmlns:xlink="http://www.w3.org/1999/xlink">
    <!-- Generator: Sketch 48.2 (47327) - http://www.bohemiancoding.com/sketch -->
    <title>th-solid</title>
    <desc>Created with Sketch.</desc>
    <defs></defs>
    <g id="16px-solid" stroke="none" stroke-width="1" fill="none" fill-rule="evenodd" transform="translate(-192.000000, -994.000000)">
        <g id="th-solid" transform="translate(192.000000, 994.000000)" fill="#000000" fill-rule="nonzero">
            <path d="M3.5,2 L5.5,2 C6.32842712,2 7,2.67157288 7,3.5 L7,5.5 C7,6.32842712 6.32842712,7 5.5,7 L3.5,7 C2.67157288,7 2,6.32842712 2,5.5 L2,3.5 C2,2.67157288 2.67157288,2 3.5,2 Z M3.5,9 L5.5,9 C6.32842712,9 7,9.67157288 7,10.5 L7,12.5 C7,13.3284271 6.32842712,14 5.5,14 L3.5,14 C2.67157288,14 2,13.3284271 2,12.5 L2,10.5 C2,9.67157288 2.67157288,9 3.5,9 Z M10.5,2 L12.5,2 C13.3284271,2 14,2.67157288 14,3.5 L14,5.5 C14,6.32842712 13.3284271,7 12.5,7 L10.5,7 C9.67157288,7 9,6.32842712 9,5.5 L9,3.5 C9,2.67157288 9.67157288,2 10.5,2 Z M10.5,9 L12.5,9 C13.3284271,9 14,9.67157288 14,10.5 L14,12.5 C14,13.3284271 13.3284271,14 12.5,14 L10.5,14 C9.67157288,14 9,13.3284271 9,12.5 L9,10.5 C9,9.67157288 9.67157288,9 10.5,9 Z" id="Rectangle"></path>
        </g>
    </g>
</svg>