<?xml version="1.0" encoding="UTF-8"?>
<svg width="16px" height="16px" viewBox="0 0 16 16" version="1.1" xmlns="http://www.w3.org/2000/svg" xmlns:xlink="http://www.w3.org/1999/xlink">
    <!-- Generator: sketchtool 50.2 (55047) - http://www.bohemiancoding.com/sketch -->
    <title>4DB7B2A1-A7CA-4126-889E-171BF70AA0E9</title>
    <desc>Created with sketchtool.</desc>
    <defs></defs>
    <g id="Page-1" stroke="none" stroke-width="1" fill="none" fill-rule="evenodd">
        <g id="link-picker" transform="translate(-214.000000, -484.000000)" fill="#FFFFFF">
            <g id="Default-+-Select-Copy" transform="translate(100.000000, 476.000000)">
                <g id="icon_delete" transform="translate(114.000000, 8.000000)">
                    <path d="M2,6 L0,6 L0,4 L16,4 L16,6 L14,6 L14,14 C14,15.1045695 13.1045695,16 12,16 L4,16 C2.8954305,16 2,15.1045695 2,14 L2,6 Z M6,7 C5.44771525,7 5,7.44771525 5,8 L5,13 C5,13.5522847 5.44771525,14 6,14 C6.55228475,14 7,13.5522847 7,13 L7,8 C7,7.44771525 6.55228475,7 6,7 Z M10,7 C9.44771525,7 9,7.44771525 9,8 L9,13 C9,13.5522847 9.44771525,14 10,14 C10.5522847,14 11,13.5522847 11,13 L11,8 C11,7.44771525 10.5522847,7 10,7 Z M5,0 L11,0 L11,2 L5,2 L5,0 Z" id="Combined-Shape"></path>
                </g>
            </g>
        </g>
    </g>
</svg>