<?xml version="1.0" encoding="UTF-8"?>
<svg width="16px" height="16px" viewBox="0 0 16 16" version="1.1" xmlns="http://www.w3.org/2000/svg" xmlns:xlink="http://www.w3.org/1999/xlink">
    <!-- Generator: Sketch 48.2 (47327) - http://www.bohemiancoding.com/sketch -->
    <title>tree-solid</title>
    <desc>Created with Sketch.</desc>
    <defs></defs>
    <g id="16px-solid" stroke="none" stroke-width="1" fill="none" fill-rule="evenodd" transform="translate(-432.000000, -192.000000)">
        <g id="tree-solid" transform="translate(432.000000, 192.000000)" fill="#000000">
            <path d="M3.5,15 C3.224,15 3,15.224 3,15.5 C3,15.776 3.224,16 3.5,16 L13.5,16 C13.776,16 14,15.776 14,15.5 C14,15.224 13.776,15 13.5,15 L9,15 L9,12.959 C11.876,12.75 14,10.797 14,8 C14,4.609 11.19,0 8.5,0 C5.809,0 3,4.606 3,8 C3,10.797 5.124,12.75 8,12.959 L8,15 L3.5,15 Z" id="shape"></path>
        </g>
    </g>
</svg>