<svg xmlns="http://www.w3.org/2000/svg" width="64" height="64" viewBox="0 0 64 64"><path d="M0 0v64h64V0H0zm3.3 3.4h57.4v57.3H3.3V3.4z"/><path d="M20.5 21.8h-6.9c-.2 0-.3-.1-.3-.3l.4-3.5c0-.2.1-.3.3-.3h17c.1 0 .3.1.3.2v.1l.3 3.5c0 .1-.1.3-.2.3H25V46c0 .2-.1.3-.3.3H21c-.2 0-.3-.1-.3-.3V21.8h-.2zm18.4 12.9l6.2-8.6c.1-.2.2-.3.4-.3h4.1c.3 0 .3.2.1.3-1 1.4-5.4 6.9-6.9 8.7v.3l7.8 10.7c.1.2 0 .3-.1.3h-4.6c-.2 0-.3-.1-.4-.3-1.3-1.8-4.7-6.7-6.5-9.2v9.2c0 .1-.1.3-.2.3h-4c-.1 0-.3-.1-.3-.2V18c0-.1.1-.3.2-.3h3.9c.2 0 .3.1.3.3v16.7z"/></svg>