<?xml version="1.0" encoding="UTF-8"?>
<svg width="16px" height="16px" viewBox="0 0 16 16" version="1.1" xmlns="http://www.w3.org/2000/svg" xmlns:xlink="http://www.w3.org/1999/xlink">
    <!-- Generator: sketchtool 50.2 (55047) - http://www.bohemiancoding.com/sketch -->
    <title>981B44CE-A1DD-4A8D-BA02-59B51AE5DADB</title>
    <desc>Created with sketchtool.</desc>
    <defs></defs>
    <g id="Page-1" stroke="none" stroke-width="1" fill="none" fill-rule="evenodd">
        <g id="offset" transform="translate(-228.000000, -489.000000)" fill="#333333" fill-rule="nonzero">
            <g id="Group-Copy-2" transform="translate(100.000000, 392.000000)">
                <g id="Group-2" transform="translate(128.000000, 96.000000)">
                    <path d="M7,12.5175439 L1.77777778,12.5175439 C0.795938223,12.5175439 9.86864911e-17,11.7216056 0,10.7397661 L0,7.27777778 C-1.97372982e-16,6.29593822 0.795938223,5.5 1.77777778,5.5 L7.00584795,5.5 L7.00584795,7.27777778 L1.77777778,7.27777778 L1.77777778,10.7397661 L7,10.7397661 L7,12.5175439 Z M9,5.5 L14.2222222,5.5 C15.2040618,5.5 16,6.29593822 16,7.27777778 L16,10.7397661 C16,11.7216056 15.2040618,12.5175439 14.2222222,12.5175439 L8.99415205,12.5175439 L8.99415205,10.7397661 L14.2222222,10.7397661 L14.2222222,7.27777778 L9,7.27777778 L9,5.5 Z M3.80000305,1.97801672 L5.53205386,0.978016724 L7.03205386,3.57609294 L5.30000305,4.57609294 L3.80000305,1.97801672 Z M10.3839746,0.978016724 L12.1160254,1.97801672 L10.6160254,4.57609294 L8.8839746,3.57609294 L10.3839746,0.978016724 Z M5.30000305,13.4239071 L7.03205386,14.4239071 L5.53205386,17.0219833 L3.80000305,16.0219833 L5.30000305,13.4239071 Z M12.1120557,16.0219833 L10.3800049,17.0219833 L8.88000488,14.4239071 L10.6120557,13.4239071 L12.1120557,16.0219833 Z" id="Combined-Shape"></path>
                </g>
            </g>
        </g>
    </g>
</svg>