<svg xmlns="http://www.w3.org/2000/svg" width="64" height="64" viewBox="0 0 64 64"><path d="M24.7 15.4c.8.8 2 .8 2.7 0s.8-2 0-2.7l-4.1-4.1c-.8-.8-2-.8-2.7 0s-.8 2 0 2.7l4.1 4.1zm13.6 0l4.1-4.1c.8-.8.8-2 0-2.7s-2-.8-2.7 0l-4.1 4.1c-.8.8-.8 2 0 2.7s2 .8 2.7 0zm1 33.2c-.8-.8-2-.8-2.7 0s-.8 2 0 2.7l4.1 4.1c.8.8 2 .8 2.7 0s.8-2 0-2.7l-4.1-4.1zm-14.6 0l-4.1 4.1c-.8.8-.8 2 0 2.7s2 .8 2.7 0l4.1-4.1c.8-.8.8-2 0-2.7s-2-.8-2.7 0zm4-12L25.3 40H3.8V24H26c1.1 0 2-.9 2-2s-.9-2-2-2H2c-1.1 0-2 .9-2 2v20c0 1.1.9 2 2 2h23.5v-.1c.6.1 1.3 0 1.8-.5l4.1-4.1c.8-.8.8-2 0-2.7s-2-.8-2.7 0zM62 20H38c-.5 0-.9.2-1.3.6l-4.1 4.1c-.8.8-.8 2 0 2.7s2 .8 2.7 0l3.4-3.4H60v16H38c-1.1 0-2 .9-2 2s.9 2 2 2h24c1.1 0 2-.9 2-2V22c0-1.1-.9-2-2-2z"/></svg>