<svg xmlns="http://www.w3.org/2000/svg" width="16" height="16" viewBox="0 0 16 16">
  <path fill-rule="evenodd" d="M4.004,2.79999995 L5.421,2.79999995 L9.386,12.004 L7.514,12.004 L6.656,9.89799995 L2.665,9.89799995 L1.833,12.004 L4.18276525e-14,12.004 L4.004,2.79999995 Z M5.97999989,8.49399995 L4.56299989,4.74999995 L3.11999989,8.49399995 L5.97999989,8.49399995 Z M14.0459995,11.211 L14.0069995,11.211 C13.8509988,11.4883347 13.5996679,11.7158324 13.2529995,11.8935 C12.9063311,12.0711675 12.5120018,12.16 12.0699995,12.16 C11.818665,12.16 11.5565009,12.1275003 11.2834995,12.0625 C11.0104982,11.9974996 10.7591674,11.8891674 10.5294995,11.7375 C10.2998317,11.5858325 10.109167,11.3865012 9.95749954,11.1395 C9.80583212,10.8924987 9.72999954,10.5870018 9.72999954,10.223 C9.72999954,9.75499761 9.86216489,9.38233467 10.1264995,9.10499995 C10.3908342,8.82766523 10.7309975,8.61533402 11.1469995,8.46799995 C11.5630016,8.32066588 12.024497,8.22316686 12.5314995,8.17549995 C13.0385021,8.12783305 13.5346638,8.10399995 14.0199995,8.10399995 L14.0199995,7.94799995 C14.0199995,7.557998 13.8791676,7.26983422 13.5974995,7.08349995 C13.3158315,6.89716569 12.9800015,6.80399995 12.5899995,6.80399995 C12.2606646,6.80399995 11.9443344,6.87333259 11.6409995,7.01199995 C11.3376647,7.15066731 11.0863339,7.31966562 10.8869995,7.51899995 L10.0809995,6.56999995 C10.4363347,6.24066497 10.8458306,5.99366744 11.3094995,5.82899995 C11.7731685,5.66433246 12.2433305,5.58199995 12.7199995,5.58199995 C13.274669,5.58199995 13.7318311,5.65999917 14.0914995,5.81599995 C14.451168,5.97200073 14.7349985,6.17566536 14.9429995,6.42699995 C15.1510006,6.67833454 15.2961658,6.95999839 15.3784995,7.27199995 C15.4608333,7.58400151 15.5019995,7.89599839 15.5019995,8.20799995 L15.5019995,12.004 L14.0459995,12.004 L14.0459995,11.211 Z M14.02,9.15699995 L13.669,9.15699995 C13.4176654,9.15699995 13.1533347,9.16783318 12.876,9.18949995 C12.5986652,9.21116673 12.3430011,9.25883292 12.109,9.33249995 C11.8749988,9.40616699 11.6800007,9.51016595 11.524,9.64449995 C11.3679992,9.77883396 11.29,9.96299878 11.29,10.197 C11.29,10.344334 11.3224996,10.4678328 11.3875,10.5675 C11.4525003,10.6671671 11.5369994,10.747333 11.641,10.808 C11.7450005,10.8686669 11.8619993,10.9119998 11.992,10.938 C12.1220006,10.9640001 12.2519993,10.977 12.382,10.977 C12.919336,10.977 13.3266652,10.8340014 13.604,10.548 C13.8813347,10.2619985 14.02,9.87200242 14.02,9.37799995 L14.02,9.15699995 Z"/>
</svg>
