<?xml version="1.0" encoding="UTF-8"?>
<svg width="16px" height="16px" viewBox="0 0 16 16" version="1.1" xmlns="http://www.w3.org/2000/svg" xmlns:xlink="http://www.w3.org/1999/xlink">
    <!-- Generator: Sketch 48.2 (47327) - http://www.bohemiancoding.com/sketch -->
    <title>user-group -solid</title>
    <desc>Created with Sketch.</desc>
    <defs>
        <path d="M10,6.488 C10,7.09215096 9.77814497,7.95771665 9.33443491,9.08469705 L9.33440724,9.08468616 C9.24256557,9.31795508 9.3376572,9.58317703 9.55679384,9.70494902 C10.5153954,10.2376341 11.2344641,10.6369844 11.714,10.903 C12.508,11.344 13,12.181 13,13.089 L13,14 L15,14 C15.552,14 16,13.553 16,13 L16,12.089 C16,11.544 15.704,11.042 15.228,10.777 C13.223,9.663 12.216,9.103 12.207,9.098 C11.975,8.949 11.906,8.64 12.056,8.407 C12.681,7.429 13,6.458 13,5.488 C13,2.248 12.479,1 10,1 C9.27,1 8.64266052,1.24936967 8.18866052,1.55136967 C9.49466052,2.26536967 10,3.761 10,6.488 Z M3,6.5 C3,7.461 3.319,8.432 3.959,9.435 C4.094,9.676 4.006,9.979 3.765,10.114 L0.772,11.777 C0.296,12.042 0,12.544 0,13.089 L0,14 C0,14.553 0.448,15 1,15 L11,15 C11.552,15 12,14.553 12,14 L12,13.089 C12,12.544 11.705,12.042 11.229,11.777 C9.223,10.663 8.215,10.103 8.207,10.098 C7.974,9.948 7.907,9.64 8.055,9.408 C8.682,8.428 9,7.458 9,6.488 C9,3.248 8.478,2 6,2 C4.643,2 3.776,2.538 3.351,3.553 C3.055,4.261 3,4.92 3,6.5 Z" id="path-1"></path>
    </defs>
    <g id="16px-solid" stroke="none" stroke-width="1" fill="none" fill-rule="evenodd" transform="translate(-96.000000, -384.000000)">
        <g id="user-group-solid" transform="translate(96.000000, 384.000000)">
            <mask id="mask-2" fill="white">
                <use xlink:href="#path-1"></use>
            </mask>
            <use id="shape" fill="#000000" xlink:href="#path-1"></use>
        </g>
    </g>
</svg>