<?xml version="1.0" encoding="UTF-8"?>
<svg width="16px" height="16px" viewBox="0 0 16 16" version="1.1" xmlns="http://www.w3.org/2000/svg" xmlns:xlink="http://www.w3.org/1999/xlink">
    <!-- Generator: Sketch 52.1 (67048) - http://www.bohemiancoding.com/sketch -->
    <title>error-solid</title>
    <desc>Created with Sketch.</desc>
    <g id="Page-1" stroke="none" stroke-width="1" fill="none" fill-rule="evenodd">
        <g id="toast" transform="translate(-809.000000, -970.000000)" fill="#FFC800" fill-rule="nonzero">
            <g id="分组" transform="translate(785.000000, 952.000000)">
                <g id="error-solid" transform="translate(24.000000, 18.000000)">
                    <path d="M6.28522387,1.97514537 C6.4540388,1.69391706 6.68943073,1.45852513 6.97065904,1.2897102 C7.91770375,0.72122088 9.14628682,1.02810066 9.71477613,1.97514537 L15.7148548,11.970659 C15.9014878,12.2815705 16.0000786,12.6373737 16.0000786,13 C16.0000786,14.1045695 15.1046481,15 14.0000786,15 L1.99992136,15 C1.63729511,15 1.28149182,14.9014092 0.970580402,14.7147761 C0.0235356942,14.1462868 -0.283344086,12.9177037 0.285145229,11.970659 L6.28522387,1.97514537 Z M8,13 C8.55228475,13 9,12.5522847 9,12 C9,11.4477153 8.55228475,11 8,11 C7.44771525,11 7,11.4477153 7,12 C7,12.5522847 7.44771525,13 8,13 Z M7.5,5.5 L7.5,9.5 C7.5,9.77614237 7.72385763,10 8,10 C8.27614237,10 8.5,9.77614237 8.5,9.5 L8.5,5.5 C8.5,5.22385763 8.27614237,5 8,5 C7.72385763,5 7.5,5.22385763 7.5,5.5 Z" id="shape"></path>
                </g>
            </g>
        </g>
    </g>
</svg>