<?xml version="1.0" encoding="UTF-8"?>
<svg width="16px" height="16px" viewBox="0 0 16 16" version="1.1" xmlns="http://www.w3.org/2000/svg" xmlns:xlink="http://www.w3.org/1999/xlink">
    <!-- Generator: Sketch 48.2 (47327) - http://www.bohemiancoding.com/sketch -->
    <title>wifi-solid</title>
    <desc>Created with Sketch.</desc>
    <defs></defs>
    <g id="16px-solid" stroke="none" stroke-width="1" fill="none" fill-rule="evenodd" transform="translate(-336.000000, -288.000000)">
        <g id="wifi-solid" transform="translate(336.000000, 288.000000)" fill="#000000" fill-rule="nonzero">
            <path d="M10,15 C10,15.5522847 9.55228475,16 9,16 C8.44771525,16 8,15.5522847 8,15 L8,14 C8,10.6862915 5.3137085,8 2,8 L1,8 C0.44771525,8 0,7.55228475 0,7 C0,6.44771525 0.44771525,6 1,6 L2,6 C6.418278,6 10,9.581722 10,14 L10,15 Z M2,16 C0.8954305,16 0,15.1045695 0,14 C0,12.8954305 0.8954305,12 2,12 C3.1045695,12 4,12.8954305 4,14 C4,15.1045695 3.1045695,16 2,16 Z M16,15 C16,15.5522847 15.5522847,16 15,16 C14.4477153,16 14,15.5522847 14,15 L14,14 C14,7.372583 8.627417,2 2,2 L1,2 C0.44771525,2 0,1.55228475 0,1 C0,0.44771525 0.44771525,0 1,0 L2,0 C9.7319865,0 16,6.2680135 16,14 L16,15 Z" id="shape"></path>
        </g>
    </g>
</svg>