<?xml version="1.0" encoding="UTF-8"?>
<svg width="16px" height="16px" viewBox="0 0 16 16" version="1.1" xmlns="http://www.w3.org/2000/svg" xmlns:xlink="http://www.w3.org/1999/xlink">
    <!-- Generator: Sketch 48.2 (47327) - http://www.bohemiancoding.com/sketch -->
    <title>windows-solid</title>
    <desc>Created with Sketch.</desc>
    <defs></defs>
    <g id="16px-solid" stroke="none" stroke-width="1" fill="none" fill-rule="evenodd" transform="translate(-48.000000, -192.000000)">
        <g id="windows-solid" transform="translate(48.000000, 192.000000)" fill="#000000">
            <path d="M1,3.9999 L6.5,3.9999 L15,3.9999 L15,11.4999 C15,12.8809 13.881,13.9999 12.5,13.9999 L3.5,13.9999 C2.119,13.9999 1,12.8809 1,11.4999 L1,3.9999 Z M12.5,14.9999 C14.433,14.9999 16,13.4329 16,11.4999 L16,1.4999 C16,1.2239 15.776,0.9999 15.5,0.9999 L0.5,0.9999 C0.224,0.9999 0,1.2239 0,1.4999 L0,11.4999 C0,13.4329 1.567,14.9999 3.5,14.9999 L12.5,14.9999 Z M3,2.4999 C3,2.2239 2.776,1.9999 2.5,1.9999 C2.224,1.9999 2,2.2239 2,2.4999 C2,2.7759 2.224,2.9999 2.5,2.9999 C2.776,2.9999 3,2.7759 3,2.4999 Z M5,2.4999 C5,2.2239 4.776,1.9999 4.5,1.9999 C4.224,1.9999 4,2.2239 4,2.4999 C4,2.7759 4.224,2.9999 4.5,2.9999 C4.776,2.9999 5,2.7759 5,2.4999 Z M7,2.4999 C7,2.2239 6.776,1.9999 6.5,1.9999 C6.224,1.9999 6,2.2239 6,2.4999 C6,2.7759 6.224,2.9999 6.5,2.9999 C6.776,2.9999 7,2.7759 7,2.4999 Z" id="shape"></path>
        </g>
    </g>
</svg>