<?xml version="1.0" encoding="UTF-8"?>
<svg width="16px" height="16px" viewBox="0 0 16 16" version="1.1" xmlns="http://www.w3.org/2000/svg" xmlns:xlink="http://www.w3.org/1999/xlink">
    <!-- Generator: Sketch 48.2 (47327) - http://www.bohemiancoding.com/sketch -->
    <title>windy-solid</title>
    <desc>Created with Sketch.</desc>
    <defs>
        <path d="M7.647,3.78 C7.524,4.175 7.744,4.596 8.139,4.719 C8.535,4.843 8.956,4.623 9.079,4.227 C9.306,3.503 9.979,3 10.75,3 C11.716,3 12.5,3.784 12.5,4.75 C12.5,5.716 11.716,6.5 10.75,6.5 L2.75,6.5 C2.336,6.5 2,6.836 2,7.25 C2,7.664 2.336,8 2.75,8 L10.75,8 C12.545,8 14,6.545 14,4.75 C14,2.955 12.545,1.5 10.75,1.5 C9.318,1.5 8.068,2.433 7.647,3.78 Z M0.75,9 C0.336,9 0,9.336 0,9.75 C0,10.164 0.336,10.5 0.75,10.5 L12.75,10.5 C13.716,10.5 14.5,11.284 14.5,12.25 C14.5,13.216 13.716,14 12.75,14 C11.98,14 11.307,13.498 11.08,12.775 C10.956,12.38 10.534,12.16 10.139,12.285 C9.744,12.409 9.525,12.83 9.649,13.224 C10.071,14.569 11.32,15.5 12.75,15.5 C14.545,15.5 16,14.045 16,12.25 C16,10.455 14.545,9 12.75,9 L0.75,9 Z" id="path-1"></path>
    </defs>
    <g id="16px-solid" stroke="none" stroke-width="1" fill="none" fill-rule="evenodd" transform="translate(-384.000000, -288.000000)">
        <g id="windy-solid" transform="translate(384.000000, 288.000000)">
            <mask id="mask-2" fill="white">
                <use xlink:href="#path-1"></use>
            </mask>
            <use id="shape" fill="#000000" xlink:href="#path-1"></use>
        </g>
    </g>
</svg>