<?xml version="1.0" encoding="UTF-8"?>
<svg width="16px" height="16px" viewBox="0 0 16 16" version="1.1" xmlns="http://www.w3.org/2000/svg" xmlns:xlink="http://www.w3.org/1999/xlink">
    <!-- Generator: Sketch 48.2 (47327) - http://www.bohemiancoding.com/sketch -->
    <title>wrench-solid</title>
    <desc>Created with Sketch.</desc>
    <defs></defs>
    <g id="16px-solid" stroke="none" stroke-width="1" fill="none" fill-rule="evenodd" transform="translate(-240.000000, -240.000000)">
        <g id="wrench-solid" transform="translate(240.000000, 240.000000)" fill="#000000">
            <path d="M3.2854,15.4367 C2.5334,16.1877 1.3154,16.1877 0.5634,15.4367 C-0.1876,14.6847 -0.1876,13.4657 0.5644,12.7147 C3.4134,9.8657 5.3364,7.9467 6.3314,6.9587 C6.0784,6.3527 5.9464,5.6987 5.9464,5.0267 C5.9464,2.2507 8.1964,-0.0003 10.9734,-0.0003 C11.5294,-0.0003 12.0744,0.0907 12.5904,0.2657 C12.6743787,0.294217108 12.7453607,0.340333485 12.8019304,0.401565849 C12.9893172,0.604397788 12.9767964,0.920732584 12.7739645,1.10811939 L10.7214219,3.00436615 C10.5934539,3.12258969 10.5362508,3.2988996 10.5704352,3.46973294 L10.8383552,4.80863706 C10.8762475,4.99800033 11.0198026,5.14861263 11.207131,5.19554195 L12.089147,5.41650375 C12.249481,5.45667045 12.4193049,5.41500413 12.542841,5.30518988 L14.9255264,3.18716307 C14.9751386,3.14306159 15.0330357,3.10928037 15.0958407,3.08778983 C15.3571108,2.99838875 15.641386,3.13771611 15.730787,3.3989862 C15.9084,3.9217 16.0004,4.4687 16.0004,5.0267 C16.0004,7.8027 13.7494,10.0537 10.9734,10.0537 C10.3114,10.0537 9.6684,9.9257 9.0694,9.6807 C8.0684,10.6647 6.1394,12.5837 3.2854,15.4367 Z" id="shape"></path>
        </g>
    </g>
</svg>