<svg role="img" viewBox="0 0 24 24" xmlns="http://www.w3.org/2000/svg"><path d="M23.936 16.43L24 10.598l-.07-.333-.201-.42-.34-.262c-.441-.347-2.677.023-3.28-.524-.427-.39-.51-1.392-.64-2.348-.24-1.852-.39-1.948-.68-2.576C17.734 1.906 14.878.231 12.915 0H7.601C3.419 0 0 3.414 0 7.583v8.847C0 20.59 3.419 24 7.6 24h8.734c4.182 0 7.579-3.409 7.602-7.57zM7.57 6h4.56c.87 0 1.575.773 1.575 1.713 0 .936-.705 1.716-1.576 1.716H7.57c-.87 0-1.574-.78-1.574-1.716C5.996 6.773 6.7 6 7.57 6zM5.996 16.286c0-.944.68-1.715 1.522-1.715h8.955c.836 0 1.514.771 1.514 1.715 0 .931-.678 1.714-1.514 1.714H7.518c-.842 0-1.522-.783-1.522-1.714z"/></svg>
