<svg role="img" viewBox="0 0 24 24" xmlns="http://www.w3.org/2000/svg"><path d="M5.043 23.848V8.164H.195v15.684h4.848zm0-21.244C5.013 1.201 4.078.132 2.559.132 1.039.132.045 1.2.045 2.604c0 1.373.965 2.473 2.455 2.473h.03c1.548 0 2.513-1.1 2.513-2.473zm7.908 21.244v-8.936c0-.478.035-.956.176-1.297.384-.956 1.26-1.946 2.729-1.946 1.924 0 3.132 1.092 3.132 3.243v8.936h4.88v-9.175c0-4.915-2.624-7.202-6.124-7.202-2.87 0-4.129 1.604-4.828 2.696l.035-2.098H8.079c.07 1.502 0 15.78 0 15.78h4.872z"/></svg>
