<svg role="img" viewBox="0 0 24 24" xmlns="http://www.w3.org/2000/svg"><path d="M14.173 18.056c4.404 0 7.391-4.098 7.391-9.584 0-4.147-3.442-8.01-8.672-8.01-6.508 0-9.79 4.763-9.79 8.735 0 2.405.892 4.545 2.806 5.343.313.13.594.004.686-.35.062-.246.213-.865.279-1.123.091-.35.056-.473-.197-.78-.551-.664-.903-1.523-.903-2.742 0-3.533 2.588-6.697 6.744-6.697 3.677 0 5.699 2.294 5.699 5.359 0 4.032-1.748 7.435-4.343 7.435-1.434 0-2.505-1.21-2.162-2.694.41-1.771 1.21-3.683 1.21-4.962 0-1.144-.602-2.1-1.848-2.1-1.466 0-2.642 1.548-2.642 3.62 0 1.32.437 2.213.437 2.213l-1.762 7.62c-.239 1.034-.275 2.17-.241 3.13.1.862.935 1.563 1.659.618.508-.83 1.056-1.879 1.339-2.93.169-.622.964-3.844.964-3.844.476.927 1.867 1.743 3.346 1.743z"/></svg>
