<?xml version="1.0" standalone="no"?><!DOCTYPE svg PUBLIC "-//W3C//DTD SVG 1.1//EN" "http://www.w3.org/Graphics/SVG/1.1/DTD/svg11.dtd"><svg t="1506047745692" class="icon" style="" viewBox="0 0 1025 1024" version="1.1" xmlns="http://www.w3.org/2000/svg" p-id="1007" xmlns:xlink="http://www.w3.org/1999/xlink" width="48.046875" height="48"><defs><style type="text/css"></style></defs><path d="M1024 402.148612c0-15.180828-11.484233-24.615229-34.469943-28.311824L680.617553 328.921539 542.157967 48.915763c-7.789793-16.821125-17.849274-25.227377-30.154733-25.227377-12.303304 0-22.356318 8.406252-30.152578 25.227377L343.384602 328.921539 34.45701 373.836788C11.488544 377.533383 0 386.967784 0 402.148612c0 8.619641 5.129969 18.465733 15.387751 29.542586l224.002896 217.846934L186.467905 957.226341c-0.821226 5.746427-1.228606 9.86118-1.228606 12.311925 0 8.61533 2.151138 15.894282 6.457726 21.847632 4.304432 5.961972 10.762158 8.92787 19.381799 8.92787 7.38888 0 15.590364-2.450746 24.615229-7.378102l276.302714-145.247096 276.322113 145.247096c8.630418 4.927357 16.834058 7.378102 24.606607 7.378102 8.23166 0 14.473841-2.965898 18.780428-8.92787 4.293655-5.944729 6.446948-13.232302 6.446948-21.847632 0-5.326115-0.206923-9.427935-0.618614-12.311925l-52.927054-307.688209 223.384282-217.846934C1018.673885 421.02388 1024 411.173478 1024 402.148612z" p-id="1008" fill="#cdcdcd"></path></svg>